<svg width="180" height="68" viewBox="0 0 180 68" fill="none" xmlns="http://www.w3.org/2000/svg">
<g clip-path="url(#clip0)">
<path d="M91.4873 38.3197H88.1489V38.168L88.4827 38.1376C88.6952 38.1073 88.7862 38.0769 88.7862 37.8038V33.646C88.7862 33.2514 88.5738 32.9783 88.1489 32.9783C87.6329 32.9783 87.2081 33.4032 87.2081 33.8281V37.7128C87.2081 38.0466 87.2991 38.0769 87.5419 38.1073L87.8454 38.1376V38.2894H84.5677V38.1376L84.8712 38.0769C85.0229 38.0466 85.1443 38.0466 85.1443 37.7128V33.5549C85.1443 32.9783 85.0229 32.7962 84.4463 32.7052V32.5534L87.1777 31.8857V32.9783C87.6936 32.4927 88.331 31.8857 89.2414 31.8857C90.3644 31.8857 90.8803 32.5838 90.8803 33.4639V37.7128C90.8803 38.0162 91.0017 38.0466 91.2141 38.0769L91.5176 38.1073L91.4873 38.3197Z" fill="#001246"/>
<path d="M83.7482 30.4294C83.7482 31.006 83.2626 31.4916 82.6253 31.4916C81.988 31.4916 81.5327 31.0364 81.5327 30.4294C81.5327 29.8528 81.988 29.3672 82.6253 29.3672C83.293 29.3672 83.7482 29.8224 83.7482 30.4294Z" fill="#001246"/>
<path d="M84.3248 38.3206H81.0168V38.1689C81.1078 38.1385 81.3202 38.1385 81.3202 38.1385C81.5327 38.1082 81.6541 38.0778 81.6541 37.7744V33.5862C81.6541 33.0096 81.5327 32.7971 80.9561 32.7364V32.5847L83.7178 31.917V37.6833C83.7178 38.0475 83.8089 38.0778 84.1123 38.1385L84.3551 38.1689L84.3248 38.3206Z" fill="#001246"/>
<path d="M80.774 38.3202H77.4356V38.1684L77.7694 38.1381C77.9818 38.1077 78.0729 38.0167 78.0729 37.7739V33.6768C78.0729 33.1912 77.8301 32.9787 77.4356 32.9787C76.95 32.9787 76.4947 33.4036 76.4947 33.7981V37.7435C76.4947 38.0774 76.6161 38.1077 76.8286 38.1381L77.1321 38.1684V38.3202H73.7937V38.1684L74.1579 38.1077C74.34 38.0774 74.4007 37.9863 74.4007 37.8346V30.6722C74.4007 29.9438 74.1882 29.8831 73.7026 29.7921V29.6403L76.4644 28.9727V33.0091C76.8893 32.4931 77.7087 31.9165 78.4978 31.9165C79.4083 31.9165 80.1366 32.4324 80.1366 33.4947V37.7435C80.1366 38.0774 80.258 38.0774 80.5008 38.1077L80.774 38.1381V38.3202Z" fill="#001246"/>
<path d="M73.5506 36.8631C73.1257 37.5308 72.1849 38.5323 70.4854 38.5323C67.5415 38.5323 65.9634 36.8024 65.9634 34.1317C65.9634 30.854 68.1182 29.4883 70.455 29.4883C71.6386 29.4883 72.276 29.8828 72.7312 29.8828C72.883 29.8828 73.0954 29.8525 73.2471 29.7918L73.2775 31.9162H73.0044L72.1849 30.3988C71.8511 30.1256 71.3655 29.9739 70.5764 29.9739C69.1197 29.9739 68.2699 31.6127 68.2699 33.7978C68.2699 36.2865 69.4232 37.6522 70.8799 37.6522C72.4581 37.6522 73.0044 37.0148 73.3382 36.6506L73.5506 36.8631Z" fill="#001246"/>
<path d="M64.082 38.3202H60.7436V38.1684L61.0774 38.1381C61.2899 38.1077 61.3809 38.0167 61.3809 37.7739V33.6768C61.3809 33.1912 61.1381 32.9787 60.7436 32.9787C60.258 32.9787 59.8028 33.4036 59.8028 33.7981V37.7435C59.8028 38.0774 59.9242 38.1077 60.1366 38.1381L60.4401 38.1684V38.3202H57.1017V38.1684L57.4963 38.1077C57.6783 38.0774 57.739 37.9863 57.739 37.8346V30.6722C57.739 29.9438 57.5266 29.8831 57.041 29.7921V29.6403L59.8028 28.9727V33.0091C60.2277 32.4931 61.0471 31.9165 61.8362 31.9165C62.7466 31.9165 63.475 32.4324 63.475 33.4947V37.7435C63.475 38.0774 63.5964 38.0774 63.8392 38.1077L64.1123 38.1381L64.082 38.3202Z" fill="#001246"/>
<path d="M57.4662 37.2575C57.1324 37.8341 56.3737 38.4411 55.2204 38.4411C54.0975 38.4411 53.5512 37.6824 53.5512 36.8933V32.6444H52.7925V32.4927L55.4935 30.3379H55.6453V32.1285H57.1931L57.011 32.6444H55.6453V36.7112C55.6453 37.2575 55.9488 37.5003 56.3433 37.5003C56.7075 37.5003 57.102 37.2575 57.3752 37.045L57.4662 37.2575Z" fill="#001246"/>
<path d="M52.9438 38.1377L50.2731 38.3805V37.3486C49.8482 37.8342 49.0288 38.4412 48.2094 38.4412C47.1471 38.4412 46.6009 37.7432 46.6009 36.8327V33.4943C46.6009 32.9177 46.3884 32.7356 45.9028 32.6749V32.5231L48.6646 31.8555V36.4989C48.6646 36.9845 48.8467 37.2576 49.3019 37.2576C49.6054 37.2576 49.7268 37.1969 49.9392 37.0755C50.2124 36.8934 50.2427 36.772 50.2427 36.4382V33.4943C50.2427 32.9177 50.0606 32.7659 49.5447 32.6749V32.5231L52.3065 31.8555V37.4397C52.3065 37.8646 52.6403 37.8949 52.9438 37.9556V38.1377V38.1377Z" fill="#001246"/>
<path d="M39.2868 35.5277C39.2868 37.3183 37.8301 38.4716 35.7967 38.4716C34.7345 38.4716 33.733 38.1681 33.1867 37.7736V35.8009H33.4295L34.1882 37.4397C34.6434 37.7129 35.0987 37.986 35.8877 37.986C36.95 37.986 37.5266 37.288 37.5266 36.4989C37.5266 35.7705 36.9803 35.2242 35.6753 34.7994C34.0364 34.2834 33.126 33.555 33.126 32.1286C33.126 30.6112 34.6434 29.4883 36.343 29.4883C37.4052 29.4883 38.1639 29.9435 38.4067 29.9435C38.4978 29.9435 38.6495 29.9132 38.7405 29.9132V31.8859H38.4978L37.6783 30.4291C37.4355 30.156 36.7679 30.0346 36.2519 30.0346C35.3415 30.0346 34.6738 30.5505 34.6738 31.2789C34.6738 32.0072 35.1594 32.3714 36.6768 32.857C38.4674 33.4337 39.2868 34.1317 39.2868 35.5277Z" fill="#001246"/>
<path d="M98.0726 37.5914C97.9209 37.8645 97.3139 38.4411 96.4034 38.4411C95.493 38.4411 95.1591 37.9555 95.0681 37.4093C94.7039 37.9555 94.2183 38.4411 93.1561 38.4411C92.0635 38.4411 91.4565 37.8038 91.4565 36.8933C91.4565 35.9525 92.0028 35.4366 93.4292 34.8903C94.37 34.5261 95.0074 34.4047 95.0074 33.4032C95.0074 32.5534 94.6735 32.2499 94.2487 32.2499C93.672 32.2499 93.3382 32.6141 93.2775 32.7052C93.3685 32.7659 93.7631 32.9176 93.7631 33.4639C93.7631 34.0102 93.3078 34.344 92.7616 34.344C92.1849 34.344 91.9118 33.8888 91.9118 33.4032C91.9118 32.5534 93.065 31.8857 94.8253 31.8857C96.3124 31.8857 97.0408 32.5838 97.0408 33.7977V37.0451C97.0408 37.5307 97.1015 37.7431 97.405 37.7431C97.587 37.7431 97.7691 37.6217 97.9209 37.47L98.0726 37.5914ZM95.0074 36.6809V34.5261C94.4307 35.2241 93.4899 35.2545 93.4899 36.6809C93.4899 37.1968 93.7327 37.561 94.188 37.561C94.6128 37.561 95.0074 37.0451 95.0074 36.6809Z" fill="#001246"/>
<path d="M45.9026 35.1938C45.9026 37.1058 44.5369 38.4411 42.807 38.4411C41.0771 38.4411 39.7114 37.1058 39.7114 35.1634C39.7114 33.2514 41.1075 31.8857 42.807 31.8857C44.5369 31.9161 45.9026 33.2514 45.9026 35.1938ZM43.8085 35.1938C43.8085 32.9783 43.5961 32.2196 42.8374 32.2196C42.0483 32.2196 41.8662 32.9783 41.8662 35.1634C41.8662 37.2272 42.0483 38.1073 42.8374 38.1073C43.5961 38.1376 43.8085 37.2575 43.8085 35.1938Z" fill="#001246"/>
<path d="M170 37.2584C169.667 37.8351 168.938 38.4724 167.755 38.4724C166.632 38.4724 166.085 37.7137 166.085 36.9246V32.6454H165.327V32.4936L168.028 30.3389H168.179V32.1295H169.727L169.545 32.6454H168.179V36.7425C168.179 37.2888 168.483 37.5012 168.877 37.5012C169.242 37.5012 169.545 37.2888 169.849 37.046L170 37.2584Z" fill="#001246"/>
<path d="M165.326 36.2256C165.326 37.5913 164.112 38.4411 162.595 38.4411C161.26 38.4411 160.713 38.0769 160.44 37.9555V36.3166H160.592L161.32 37.6823C161.624 37.8948 162.17 38.0769 162.625 38.0769C163.354 38.0769 163.839 37.7127 163.839 37.1057C163.839 36.438 163.02 36.2256 162.17 35.9524C161.229 35.6186 160.379 35.1027 160.379 34.0101C160.379 32.6747 161.563 31.916 162.898 31.916C164.021 31.916 164.537 32.3409 164.841 32.2499V33.828H164.689L163.961 32.6444C163.718 32.4623 163.323 32.3106 162.898 32.3106C162.049 32.3106 161.654 32.614 161.654 33.13C161.654 33.7066 162.443 33.919 163.323 34.2529C164.416 34.5867 165.326 35.0116 165.326 36.2256Z" fill="#001246"/>
<path d="M138.649 38.3197H135.311V38.1679L135.615 38.1376C135.827 38.1072 135.918 38.0769 135.918 37.8037V33.6459C135.918 33.2514 135.706 32.9175 135.281 32.9175C134.734 32.9175 134.31 33.3728 134.31 33.828V37.7127C134.31 38.0465 134.401 38.0769 134.643 38.1072L134.947 38.1376V38.2893H131.7V38.1376L132.003 38.0769C132.155 38.0465 132.276 38.0465 132.276 37.7127V33.5852C132.276 33.0086 132.155 32.8265 131.578 32.7354V32.5837L134.31 31.916V33.0086C134.825 32.523 135.463 31.916 136.373 31.916C137.496 31.916 138.012 32.5837 138.012 33.4942V37.743C138.012 38.0465 138.134 38.0769 138.346 38.1072L138.619 38.1376V38.3197H138.649Z" fill="#001246"/>
<path d="M130.941 30.4294C130.941 31.006 130.455 31.4916 129.818 31.4916C129.181 31.4916 128.726 31.0364 128.726 30.4294C128.726 29.8528 129.181 29.3672 129.818 29.3672C130.455 29.3672 130.941 29.8528 130.941 30.4294Z" fill="#001246"/>
<path d="M131.518 38.3197H128.21V38.1679C128.331 38.1376 128.513 38.1376 128.513 38.1376C128.726 38.1072 128.847 38.0769 128.847 37.7734V33.5852C128.847 33.0086 128.695 32.7961 128.149 32.7354V32.5837L130.911 31.916V37.6823C130.911 38.0769 131.002 38.1072 131.305 38.1376L131.548 38.1679L131.518 38.3197Z" fill="#001246"/>
<path d="M128.027 38.3197H124.689V38.1679L124.992 38.1376C125.205 38.1072 125.296 38.0769 125.296 37.8037V33.6459C125.296 33.2514 125.084 32.9782 124.659 32.9782C124.143 32.9782 123.687 33.4031 123.687 33.828V37.7127C123.687 38.0465 123.779 38.0769 124.021 38.1072L124.325 38.1376V38.2893H121.077V38.1376L121.381 38.0769C121.533 38.0465 121.654 38.0465 121.654 37.7127V33.5852C121.654 33.0086 121.533 32.7961 120.956 32.7354V32.5837L123.687 31.916V33.0086C124.203 32.523 124.841 31.916 125.751 31.916C126.874 31.916 127.39 32.5837 127.39 33.4942V37.743C127.39 38.0465 127.511 38.0769 127.724 38.1072L128.027 38.1376V38.3197Z" fill="#001246"/>
<path d="M121.047 32.7961C121.047 33.3728 120.714 33.7673 120.107 33.7673C119.682 33.7673 119.378 33.4942 119.378 33.13C119.378 33.0086 119.409 32.8568 119.5 32.7354C119.196 32.7354 118.498 33.221 118.498 33.737V37.743C118.498 38.0465 118.619 38.1072 118.862 38.1376L119.196 38.1679V38.3197H115.797V38.1679L116.07 38.1376C116.343 38.1072 116.434 38.0769 116.434 37.7127V33.5245C116.434 32.9479 116.222 32.7961 115.736 32.7354V32.5837L118.468 31.916V32.9175C118.923 32.3106 119.56 31.916 120.137 31.916C120.683 31.916 121.047 32.2499 121.047 32.7961Z" fill="#001246"/>
<path d="M109.757 38.3204H105.66V38.1686L106.146 38.1079C106.51 38.0776 106.601 38.0169 106.601 37.6223C106.601 37.5616 106.601 37.5009 106.601 37.4706L106.449 31.5222H106.419L103.93 38.4114H103.536L101.108 31.5829H101.078L100.987 36.9547C100.987 37.0761 100.987 37.1975 100.987 37.2885C100.987 38.0169 101.169 38.1079 101.745 38.199V38.3507H99.5298V38.199C100.106 38.0776 100.41 37.8348 100.41 36.9547L100.592 30.8849C100.592 30.7938 100.592 30.7331 100.592 30.6421C100.592 30.2779 100.471 29.944 100.015 29.9137C100.015 29.9137 99.7726 29.8833 99.6208 29.8833V29.6709H102.686L104.507 35.1641H104.537L106.54 29.6709H109.241V29.8226C108.756 29.853 108.513 30.0047 108.513 30.3386C108.513 30.4296 108.513 30.7331 108.513 30.8545L108.756 37.592C108.756 37.9562 108.908 38.0776 109.272 38.1079L109.757 38.1686V38.3204Z" fill="#001246"/>
<path d="M159.894 35.1938C159.894 37.1058 158.498 38.4411 156.798 38.4411C155.068 38.4411 153.703 37.1058 153.703 35.1634C153.703 33.2514 155.099 31.8857 156.798 31.8857C158.528 31.9161 159.894 33.2818 159.894 35.1938ZM157.769 35.1938C157.769 32.9783 157.557 32.2196 156.798 32.2196C156.009 32.2196 155.827 32.9783 155.827 35.1634C155.827 37.2272 156.009 38.1073 156.798 38.1073C157.587 38.1376 157.769 37.2575 157.769 35.1938Z" fill="#001246"/>
<path d="M154.188 32.0381C154.188 33.6163 152.701 34.4964 150.728 34.4964C150.425 34.4964 150.273 34.4964 149.909 34.466V37.6223C149.909 37.8955 150.03 38.0472 150.546 38.1079L150.911 38.1383V38.3204H146.844V38.1383L147.36 38.0776C147.694 38.0472 147.785 37.9562 147.785 37.6527V30.551C147.785 30.0351 147.511 29.944 146.844 29.853V29.6709H150.364C152.823 29.6709 154.188 30.2475 154.188 32.0381ZM151.942 32.0078C151.942 30.5814 151.426 30.0047 150.455 30.0047C150.212 30.0047 150.03 30.0351 149.879 30.0654V34.1019C149.97 34.1019 150.061 34.1322 150.425 34.1322C151.426 34.1626 151.942 33.5859 151.942 32.0078Z" fill="#001246"/>
<path d="M145.083 32.0678L144.689 32.8266L143.657 32.7659C143.991 33.0694 144.264 33.4942 144.264 34.1316C144.264 35.4669 143.02 36.3774 141.502 36.3774C141.138 36.3774 140.743 36.3167 140.44 36.256C140.379 36.347 140.349 36.4684 140.349 36.5898C140.349 36.7416 140.652 36.863 140.986 36.9237L142.777 37.2575C144.355 37.561 145.023 37.9859 145.023 38.9874C145.023 40.2924 143.293 41.1118 141.442 41.1118C139.742 41.1118 138.255 40.8083 138.255 39.8675C138.255 39.0785 139.105 38.7446 139.833 38.5625C139.256 38.3197 139.074 37.8341 139.074 37.5003C139.074 36.8326 139.59 36.4988 140.106 36.1346C139.256 35.7704 138.771 35.0724 138.771 34.1619C138.771 32.8266 140.015 31.8857 141.533 31.8857C142.14 31.8857 142.504 32.0071 142.777 32.1285L145.083 32.0678ZM142.231 34.1619C142.231 32.7355 142.018 32.2196 141.472 32.2196C140.895 32.2196 140.743 32.7355 140.743 34.1619C140.743 35.558 140.926 36.0436 141.472 36.0436C142.018 36.0436 142.231 35.558 142.231 34.1619ZM143.323 39.8372C143.323 39.3819 142.959 39.2302 141.957 39.0481L140.258 38.7143C139.985 38.9571 139.681 39.1392 139.681 39.7765C139.681 40.4138 140.379 40.8083 141.472 40.8083C142.655 40.8083 143.323 40.3228 143.323 39.8372Z" fill="#001246"/>
<path d="M115.645 35.1938C115.645 37.1058 114.249 38.4411 112.549 38.4411C110.819 38.4411 109.454 37.1058 109.454 35.1634C109.454 33.2514 110.85 31.8857 112.549 31.8857C114.249 31.9161 115.645 33.2818 115.645 35.1938ZM113.52 35.1938C113.52 32.9783 113.308 32.2196 112.549 32.2196C111.76 32.2196 111.578 32.9783 111.578 35.1634C111.578 37.2272 111.76 38.1073 112.549 38.1073C113.308 38.1376 113.52 37.2575 113.52 35.1938Z" fill="#001246"/>
<path d="M17.9819 28.5176H11.5176V38.9576H17.9819V28.5176Z" fill="#FFCB05"/>
<path d="M25.9331 28.5176H19.4688V38.9576H25.9331V28.5176Z" fill="#001246"/>
</g>
<defs>
<clipPath id="clip0">
<rect width="160" height="14.1426" fill="white" transform="translate(10 27)"/>
</clipPath>
</defs>
</svg>
