<svg xmlns="http://www.w3.org/2000/svg" xmlns:xlink="http://www.w3.org/1999/xlink" width="1200" zoomAndPan="magnify" viewBox="0 0 900 470.999988" height="628" preserveAspectRatio="xMidYMid meet" version="1.0"><defs><clipPath id="ca75168fed"><path d="M 218.828125 26.523438 L 681.210938 26.523438 L 681.210938 432.167969 L 218.828125 432.167969 Z M 218.828125 26.523438 " clip-rule="nonzero"/></clipPath><clipPath id="2789f29704"><path d="M 218.269531 138 L 681.769531 138 L 681.769531 273 L 218.269531 273 Z M 218.269531 138 " clip-rule="nonzero"/></clipPath><clipPath id="0f70382309"><path d="M 351 59 L 654 59 L 654 432.167969 L 351 432.167969 Z M 351 59 " clip-rule="nonzero"/></clipPath><clipPath id="b643bf7775"><path d="M 375.476562 56 L 662.847656 56 L 662.847656 432.167969 L 375.476562 432.167969 Z M 375.476562 56 " clip-rule="nonzero"/></clipPath><clipPath id="e75e89c3c7"><path d="M 218.269531 142 L 681.769531 142 L 681.769531 198 L 218.269531 198 Z M 218.269531 142 " clip-rule="nonzero"/></clipPath><clipPath id="31155a2f30"><path d="M 241 26.417969 L 371 26.417969 L 371 417 L 241 417 Z M 241 26.417969 " clip-rule="nonzero"/></clipPath></defs><g clip-path="url(#ca75168fed)"><path fill="#ff92a2" d="M 435.222656 70.398438 C 433.132812 67.480469 432.210938 64.414062 432.464844 61.210938 C 432.753906 58.21875 434.015625 55.949219 436.246094 54.398438 C 438.550781 52.851562 441.21875 52.472656 444.238281 53.261719 C 447.480469 54.167969 450.164062 56.074219 452.292969 58.992188 C 454.375 61.875 455.277344 64.9375 454.992188 68.179688 C 454.738281 71.136719 453.5 73.40625 451.261719 74.992188 C 448.921875 76.5 446.257812 76.863281 443.269531 76.070312 C 440.027344 75.207031 437.34375 73.3125 435.222656 70.398438 Z M 681.210938 177.726562 C 681.210938 177.542969 680.996094 177.367188 680.996094 177.183594 C 680.996094 173.65625 674.730469 170.589844 661.765625 167.996094 L 661.765625 76.5 C 661.765625 73.871094 661.066406 71.53125 659.226562 69.476562 C 657.390625 67.425781 655.285156 66.273438 652.691406 66.019531 L 558.347656 56.074219 C 557.128906 55.964844 555.894531 56.058594 554.8125 56.34375 L 554.8125 56.234375 L 546.195312 59.914062 C 544.898438 60.238281 543.601562 60.867188 542.59375 61.804688 C 540.757812 63.460938 539.6875 65.605469 539.6875 68.234375 L 539.6875 162.96875 C 539.6875 164.589844 540.03125 166.089844 540.714844 167.457031 C 526.921875 170.050781 520.242188 173.132812 519.164062 176.699219 L 519.164062 176.859375 C 519.164062 176.96875 519.105469 177.074219 519.105469 177.183594 C 519.105469 177.289062 519.164062 177.402344 519.164062 177.511719 L 519.164062 183.234375 C 519.164062 183.34375 519.351562 183.453125 519.351562 183.558594 C 519.351562 185.292969 521.003906 186.914062 524.066406 188.425781 C 524.242188 188.675781 524.5 188.910156 524.71875 189.128906 C 526.699219 195.003906 534.09375 200.136719 546.839844 204.53125 C 560.019531 209.03125 575.59375 211.789062 593.527344 212.367188 C 594.066406 235.027344 581.316406 249.546875 555.242188 257.113281 L 555.191406 257.113281 C 530.523438 263.597656 500.886719 265.113281 466.28125 261.546875 L 502.363281 217.933594 C 486.15625 202.625 468.234375 192.136719 448.425781 186.585938 C 448.210938 186.515625 447.859375 186.390625 447.859375 186.316406 L 447.859375 82.230469 C 450.019531 82.015625 452.5 81.1875 454.585938 79.746094 C 458.332031 77.222656 460.375 73.53125 460.8125 68.664062 C 461.242188 64.09375 459.964844 59.730469 457.007812 55.589844 C 454.054688 51.519531 450.300781 48.890625 445.761719 47.699219 C 440.9375 46.4375 436.683594 47.070312 433.011719 49.589844 C 429.230469 52.109375 427.140625 55.804688 426.742188 60.667969 C 426.308594 65.28125 427.570312 69.800781 430.519531 73.910156 C 433.472656 77.980469 437.238281 80.933594 441.808594 82.015625 C 441.847656 82.015625 441.378906 82.015625 441.378906 82.015625 L 441.378906 184.910156 C 431.65625 182.644531 420.816406 182.121094 411.019531 183.34375 C 410.191406 183.453125 409.484375 183.582031 408.617188 183.726562 L 395.9375 185.992188 L 395.214844 186.101562 C 394.492188 186.207031 393.773438 186.335938 393.015625 186.476562 C 388.695312 187.273438 384.492188 188.425781 380.386719 189.941406 L 413.070312 252.359375 C 388.113281 246.375 365.699219 238.164062 345.820312 227.714844 C 318.238281 213.15625 303.398438 198.351562 301.3125 183.289062 C 322.378906 183.257812 340.382812 180.660156 355.332031 175.507812 C 369.410156 170.683594 376.917969 164.914062 377.855469 158.214844 C 379.546875 157.0625 380.125 155.855469 380.125 154.59375 C 380.125 154.378906 380.878906 154.179688 379.800781 154 L 379.800781 148.757812 C 380.878906 148.542969 379.960938 148.34375 379.960938 148.164062 C 379.960938 144.308594 372.238281 140.992188 357.113281 138.21875 L 357.113281 46.941406 C 357.113281 44.347656 356.339844 42.023438 354.464844 39.972656 C 352.628906 37.917969 350.496094 36.746094 347.902344 36.460938 L 253.683594 26.566406 C 252.460938 26.460938 251.238281 26.550781 250.160156 26.835938 L 250.160156 26.730469 L 241.460938 30.40625 C 240.199219 30.691406 238.941406 31.304688 237.898438 32.242188 C 236.058594 33.933594 235.035156 36.078125 235.035156 38.671875 L 235.035156 133.410156 C 235.035156 135.5 235.773438 137.410156 236.925781 139.140625 C 225.296875 141.589844 219.371094 144.433594 218.828125 147.675781 C 218.828125 147.75 218.828125 147.804688 218.828125 147.835938 C 218.828125 147.949219 218.828125 148.058594 218.828125 148.164062 C 218.828125 148.273438 218.828125 148.378906 218.828125 148.488281 L 218.828125 154.21875 C 218.828125 154.324219 218.828125 154.433594 218.828125 154.542969 C 218.828125 156.269531 220.339844 157.890625 223.367188 159.40625 C 223.546875 159.65625 223.746094 159.890625 223.960938 160.105469 C 225.980469 165.980469 233.34375 171.113281 246.054688 175.507812 C 259.882812 180.261719 276.339844 182.84375 295.421875 183.234375 C 296.902344 200.28125 312.800781 216.816406 343.121094 232.847656 C 364.691406 244.199219 389.179688 252.949219 416.585938 259.113281 L 418.851562 263.4375 C 419.714844 263.328125 420.582031 263.238281 421.445312 263.167969 L 412.320312 264.734375 C 410.300781 265.058594 408.394531 265.5625 406.59375 266.246094 C 403.925781 267.292969 401.550781 268.75 399.460938 270.625 C 399.210938 270.804688 399.007812 270.984375 398.867188 271.164062 C 397.859375 272.03125 396.941406 273 396.113281 274.082031 C 392.078125 279.378906 390.664062 285.898438 391.386719 293.644531 L 391.683594 293.703125 L 391.683594 314.828125 L 375.910156 312.074219 L 370.078125 313.046875 L 370.078125 270.894531 L 369.996094 270.949219 L 345.730469 266.625 L 321.496094 270.949219 L 321.460938 270.894531 L 321.460938 286.78125 L 316.570312 285.914062 L 292.292969 290.1875 L 292.292969 311.695312 L 287.265625 310.832031 L 263.097656 315.152344 L 263.125 315.097656 L 263.125 334.011719 L 258.101562 333.152344 L 233.738281 337.421875 L 236.140625 337.851562 L 233.953125 337.476562 L 233.953125 396.703125 L 258.238281 401.027344 L 263.125 400.164062 L 263.125 401.890625 L 286.890625 406.160156 L 286.890625 406.214844 L 292.292969 405.296875 L 292.292969 407.082031 L 316.570312 411.402344 L 321.460938 410.539062 L 321.460938 412.269531 L 345.230469 416.539062 L 345.230469 416.59375 L 351.710938 415.617188 L 351.710938 417.507812 L 376.019531 421.832031 L 380.878906 420.972656 L 380.878906 422.753906 L 404.648438 427.019531 L 404.648438 427.074219 L 410.046875 426.210938 L 410.046875 427.941406 L 434.355469 432.210938 L 458.664062 427.886719 L 458.664062 414.808594 L 481.621094 418.914062 L 569.9375 403.242188 L 569.9375 376.871094 L 570.152344 376.925781 L 496.476562 363.847656 L 496.476562 301.914062 L 496.90625 301.808594 L 496.476562 301.859375 L 496.476562 298.78125 L 495.910156 298.835938 C 495.148438 294.148438 493.417969 289.539062 490.902344 285 C 489.855469 283.164062 488.65625 281.359375 487.394531 279.59375 C 484.082031 275.058594 480.242188 271.203125 475.917969 268.03125 C 506.996094 270.371094 533.917969 268.691406 556.714844 262.492188 C 585.886719 254.640625 600.078125 237.65625 599.320312 212.796875 C 600.042969 212.796875 600.761719 212.796875 601.484375 212.796875 C 622.839844 212.796875 641.058594 209.960938 656.148438 204.773438 C 670.195312 199.945312 677.699219 194.0625 678.671875 187.355469 C 680.328125 186.203125 681.210938 184.921875 681.210938 183.625 C 681.210938 183.441406 681.210938 183.203125 681.210938 183.019531 L 681.210938 177.726562 " fill-opacity="1" fill-rule="nonzero"/></g><path fill="#ced2f7" d="M 481.675781 392.542969 L 481.675781 418.914062 L 458.394531 414.808594 L 458.394531 401.515625 L 434.085938 397.191406 L 429.167969 398.054688 L 429.167969 383.246094 L 481.40625 392.488281 Z M 399.894531 345.6875 L 399.894531 316.398438 L 399.945312 316.34375 L 391.199219 314.828125 L 391.199219 293.703125 L 391.144531 293.644531 C 390.421875 285.898438 392.078125 279.378906 396.113281 274.082031 C 396.941406 273 397.859375 272.03125 398.867188 271.164062 C 399.007812 270.984375 399.210938 270.804688 399.460938 270.625 C 401.550781 268.75 403.925781 267.292969 406.59375 266.246094 C 408.394531 265.5625 410.300781 265.058594 412.320312 264.734375 C 412.566406 264.695312 412.820312 264.660156 413.074219 264.625 C 418.511719 263.941406 424.164062 264.625 430.035156 266.679688 C 431.835938 267.324219 433.671875 268.121094 435.546875 269.058594 C 443.214844 272.769531 449.664062 278.207031 454.882812 285.375 C 456.144531 287.144531 457.28125 288.941406 458.285156 290.78125 C 459.078125 292.152344 459.777344 293.558594 460.394531 294.996094 C 461.761719 298.128906 462.699219 301.300781 463.199219 304.511719 L 463.308594 304.558594 L 463.253906 304.558594 L 463.253906 379.464844 L 429.167969 373.464844 L 429.167969 349.039062 L 404.863281 344.769531 Z M 441.917969 184.910156 C 443.824219 185.347656 445.753906 185.816406 447.699219 186.316406 C 447.914062 186.390625 448.128906 186.460938 448.34375 186.53125 C 468.148438 192.082031 486.15625 202.511719 502.363281 217.824219 L 489.34375 220.09375 C 476.5625 208.0625 462.679688 199.035156 447.699219 193.019531 C 445.789062 192.261719 443.863281 191.539062 441.917969 190.855469 C 439.757812 190.136719 437.5625 189.449219 435.328125 188.804688 C 423.15625 185.453125 411.507812 184.335938 400.378906 185.453125 C 399.695312 185.488281 398.992188 185.5625 398.273438 185.667969 C 397.515625 185.777344 396.757812 185.886719 396.003906 185.992188 L 408.753906 183.726562 C 409.617188 183.582031 410.460938 183.453125 411.289062 183.34375 C 421.089844 182.121094 431.296875 182.644531 441.917969 184.910156 " fill-opacity="1" fill-rule="evenodd"/><path fill="#8887b2" d="M 452.292969 58.992188 C 450.164062 56.074219 447.480469 54.167969 444.238281 53.261719 C 441.21875 52.472656 438.550781 52.851562 436.246094 54.398438 C 434.015625 55.949219 432.753906 58.21875 432.464844 61.210938 C 432.210938 64.414062 433.132812 67.480469 435.222656 70.398438 C 437.34375 73.3125 440.027344 75.207031 443.269531 76.070312 C 446.257812 76.863281 448.921875 76.5 451.261719 74.992188 C 453.5 73.40625 454.738281 71.136719 454.992188 68.179688 C 455.277344 64.9375 454.375 61.875 452.292969 58.992188 Z M 447.699219 186.316406 C 445.753906 185.816406 443.824219 185.347656 441.917969 184.910156 L 441.917969 81.691406 C 441.882812 81.691406 441.847656 81.691406 441.808594 81.691406 C 437.238281 80.464844 433.472656 77.820312 430.519531 73.75 C 427.570312 69.640625 426.308594 65.28125 426.738281 60.667969 C 427.136719 55.804688 429.222656 52.109375 433.003906 49.589844 C 436.675781 47.070312 440.925781 46.4375 445.753906 47.699219 C 450.289062 48.890625 454.039062 51.519531 456.988281 55.589844 C 459.941406 59.730469 461.203125 64.09375 460.769531 68.664062 C 460.339844 73.53125 458.25 77.222656 454.503906 79.746094 C 452.417969 81.1875 450.148438 82.015625 447.699219 82.230469 Z M 413.074219 252.359375 L 416.585938 259.113281 C 389.179688 252.949219 364.691406 244.199219 343.121094 232.847656 C 312.800781 216.816406 296.902344 200.28125 295.421875 183.234375 C 297.152344 183.273438 298.917969 183.289062 300.71875 183.289062 C 300.902344 183.289062 301.09375 183.289062 301.316406 183.289062 C 303.398438 198.351562 318.238281 213.15625 345.824219 227.714844 C 365.699219 238.164062 388.117188 246.375 413.074219 252.359375 Z M 461.792969 266.679688 L 466.28125 261.328125 C 500.886719 264.894531 530.523438 263.34375 555.191406 256.683594 L 555.242188 256.683594 C 581.316406 249.65625 594.085938 234.8125 593.542969 212.148438 C 595.453125 212.222656 597.375 212.273438 599.320312 212.3125 C 600.078125 237.746094 585.871094 254.394531 556.703125 262.246094 C 533.90625 268.445312 506.976562 270.371094 475.894531 268.03125 C 471.285156 267.667969 466.585938 267.21875 461.792969 266.679688 " fill-opacity="1" fill-rule="evenodd"/><path fill="#e9edf8" d="M 496.09375 301.859375 L 496.53125 301.808594 L 496.09375 301.914062 Z M 429.167969 383.246094 L 429.167969 373.464844 L 463.253906 379.464844 L 463.253906 379.519531 L 463.308594 379.519531 L 496.09375 373.734375 L 496.09375 363.847656 L 570.152344 376.925781 L 481.730469 392.542969 L 481.40625 392.488281 Z M 429.550781 263.4375 C 433.003906 264.082031 436.300781 265.257812 439.433594 266.949219 C 441.847656 268.316406 444.132812 270.011719 446.292969 272.03125 L 459.257812 269.757812 L 461.792969 266.679688 C 466.585938 267.21875 471.285156 267.667969 475.894531 268.03125 C 480.214844 271.203125 484.035156 275.058594 487.347656 279.59375 C 488.609375 281.359375 489.757812 283.164062 490.804688 285 C 493.324219 289.539062 494.964844 294.148438 495.71875 298.835938 L 463.308594 304.558594 L 463.199219 304.511719 C 462.699219 301.300781 461.761719 298.128906 460.394531 294.996094 C 459.777344 293.558594 459.078125 292.152344 458.285156 290.78125 C 457.28125 288.941406 456.144531 287.144531 454.882812 285.375 C 449.664062 278.207031 443.214844 272.769531 435.546875 269.058594 C 433.671875 268.121094 431.835938 267.324219 430.035156 266.679688 C 424.164062 264.625 418.511719 263.941406 413.074219 264.625 C 412.820312 264.660156 412.566406 264.695312 412.320312 264.734375 L 421.445312 263.167969 C 424.039062 262.914062 426.738281 263.003906 429.550781 263.4375 " fill-opacity="1" fill-rule="evenodd"/><path fill="#a6ace0" d="M 481.730469 392.542969 L 570.152344 376.925781 L 570.316406 376.871094 L 570.316406 403.242188 L 481.675781 418.914062 L 481.675781 392.542969 Z M 495.71875 298.835938 L 496.09375 298.78125 L 496.09375 373.734375 L 463.308594 379.519531 L 463.253906 379.519531 L 463.253906 304.558594 L 463.308594 304.558594 Z M 439.433594 266.949219 C 436.300781 265.257812 433.003906 264.082031 429.550781 263.4375 L 429.550781 234.253906 L 422.203125 232.46875 L 434.785156 220.417969 L 446.78125 238.46875 L 439.433594 236.6875 Z M 433.4375 195.179688 C 435.632812 195.792969 437.796875 196.441406 439.917969 197.125 L 437.976562 220.308594 C 436.320312 219.769531 434.679688 219.265625 433.058594 218.796875 Z M 461.792969 266.679688 L 459.257812 269.757812 L 446.292969 272.03125 L 489.34375 220.09375 L 502.363281 217.824219 L 466.28125 261.328125 Z M 301.316406 183.289062 C 301.09375 183.289062 300.902344 183.289062 300.71875 183.289062 C 298.917969 183.289062 297.152344 183.273438 295.421875 183.234375 C 276.339844 182.84375 259.882812 180.261719 246.054688 175.507812 C 233.34375 171.113281 225.980469 165.980469 223.960938 160.105469 C 226.914062 163.132812 233.988281 165.820312 245.1875 168.160156 C 260.390625 171.328125 278.714844 172.917969 300.179688 172.917969 C 321.675781 172.917969 340.023438 171.328125 355.222656 168.160156 C 368.511719 165.382812 375.984375 162.125 377.636719 158.375 C 377.710938 158.34375 377.78125 158.289062 377.855469 158.214844 C 376.917969 164.914062 369.410156 170.683594 355.332031 175.507812 C 340.382812 180.660156 322.382812 183.257812 301.316406 183.289062 Z M 678.671875 187.238281 C 677.699219 193.9375 670.195312 199.703125 656.148438 204.53125 C 641.058594 209.714844 622.839844 212.3125 601.484375 212.3125 C 600.761719 212.3125 600.042969 212.3125 599.320312 212.3125 C 597.375 212.273438 595.453125 212.222656 593.542969 212.148438 C 575.609375 211.574219 560.054688 209.03125 546.871094 204.53125 C 534.125 200.136719 526.757812 195.003906 524.777344 189.128906 C 527.695312 192.152344 534.773438 194.835938 546.011719 197.179688 C 561.207031 200.3125 579.535156 201.878906 600.996094 201.878906 C 622.496094 201.878906 640.824219 200.3125 655.984375 197.179688 C 669.3125 194.40625 676.800781 191.148438 678.457031 187.398438 C 678.527344 187.328125 678.601562 187.273438 678.671875 187.238281 " fill-opacity="1" fill-rule="evenodd"/><path fill="#e8eaff" d="M 481.40625 392.488281 L 481.730469 392.542969 L 481.675781 392.542969 Z M 481.40625 392.488281 " fill-opacity="1" fill-rule="evenodd"/><g clip-path="url(#2789f29704)"><path fill="#eaebec" d="M 462.714844 235.441406 C 463.796875 236.195312 464.875 237.027344 465.957031 237.929688 L 478.648438 218.6875 C 477.171875 217.574219 475.710938 216.453125 474.273438 215.339844 Z M 460.769531 206.367188 C 458.679688 205.214844 456.558594 204.097656 454.398438 203.015625 L 448.726562 224.6875 C 450.308594 225.480469 451.894531 226.308594 453.476562 227.175781 Z M 433.4375 195.179688 L 433.058594 218.796875 C 434.679688 219.265625 436.320312 219.769531 437.976562 220.308594 L 439.917969 197.125 C 437.796875 196.441406 435.632812 195.792969 433.4375 195.179688 Z M 399.839844 192.859375 C 398.6875 192.964844 397.535156 193.128906 396.382812 193.34375 C 395.519531 193.488281 394.652344 193.652344 393.789062 193.828125 L 403.726562 218.742188 C 405.171875 218.457031 406.648438 218.203125 408.15625 217.988281 Z M 420.367188 192.691406 C 418.238281 192.515625 416.101562 192.351562 413.941406 192.207031 L 418.691406 217.550781 C 420.238281 217.660156 421.804688 217.789062 423.390625 217.933594 Z M 429.550781 263.4375 C 426.738281 263.003906 424.039062 262.914062 421.445312 263.167969 C 420.582031 263.238281 419.714844 263.328125 418.851562 263.4375 L 416.585938 259.113281 L 413.074219 252.359375 L 380.394531 189.941406 C 384.5 188.425781 388.710938 187.273438 393.035156 186.476562 C 393.789062 186.335938 394.527344 186.207031 395.25 186.101562 L 396.003906 185.992188 C 396.757812 185.886719 397.515625 185.777344 398.273438 185.667969 C 398.992188 185.5625 399.695312 185.488281 400.378906 185.453125 C 411.507812 184.335938 423.15625 185.453125 435.328125 188.804688 C 437.5625 189.449219 439.757812 190.136719 441.917969 190.855469 C 443.863281 191.539062 445.789062 192.261719 447.699219 193.019531 C 462.679688 199.035156 476.5625 208.0625 489.34375 220.09375 L 446.292969 272.03125 C 444.132812 270.011719 441.847656 268.316406 439.433594 266.949219 L 439.433594 236.6875 L 446.78125 238.46875 L 434.785156 220.417969 L 422.203125 232.46875 L 429.550781 234.253906 Z M 218.828125 148.488281 C 218.828125 148.378906 218.828125 148.273438 218.828125 148.164062 C 218.828125 148.058594 218.828125 147.949219 218.828125 147.835938 C 218.828125 147.804688 218.828125 147.75 218.828125 147.675781 C 219.371094 144.433594 225.457031 141.589844 237.085938 139.140625 C 237.410156 139.570312 237.753906 140 238.117188 140.4375 C 238.871094 141.265625 239.679688 141.949219 240.546875 142.488281 L 234.550781 144.648438 L 340.636719 155.785156 L 361.757812 148.164062 L 355.332031 147.515625 C 356.734375 145.929688 357.4375 144.003906 357.4375 141.734375 L 357.4375 138.21875 C 372.742188 140.992188 380.394531 144.308594 380.394531 148.164062 C 380.394531 148.34375 380.375 148.542969 380.339844 148.757812 C 379.617188 152.429688 371.75 155.601562 356.734375 158.269531 C 340.960938 161.042969 321.914062 162.429688 299.585938 162.429688 C 277.292969 162.429688 258.261719 161.042969 242.488281 158.269531 C 227.148438 155.566406 219.261719 152.308594 218.828125 148.488281 Z M 681.101562 177.726562 C 680.417969 181.4375 672.550781 184.609375 657.5 187.238281 C 641.726562 190.046875 622.691406 191.453125 600.402344 191.453125 C 578.074219 191.453125 559.023438 190.046875 543.253906 187.238281 C 527.914062 184.535156 520.042969 181.292969 519.648438 177.511719 C 519.613281 177.402344 519.59375 177.289062 519.59375 177.183594 C 519.59375 177.074219 519.613281 176.96875 519.648438 176.859375 L 519.648438 176.699219 C 520.226562 173.132812 527.40625 170.050781 541.199219 167.457031 C 541.632812 168.355469 542.207031 169.183594 542.929688 169.945312 C 543.652344 170.773438 544.441406 171.457031 545.304688 171.996094 L 539.363281 174.15625 L 645.402344 185.292969 L 666.574219 177.671875 L 660.089844 177.019531 C 661.496094 175.4375 662.195312 173.507812 662.195312 171.242188 L 662.195312 167.996094 C 674.839844 170.589844 681.15625 173.65625 681.15625 177.183594 C 681.15625 177.367188 681.140625 177.542969 681.101562 177.726562 " fill-opacity="1" fill-rule="evenodd"/></g><path fill="#ff5a72" d="M 235.980469 337.851562 L 257.992188 341.746094 L 257.992188 401.027344 L 233.683594 396.703125 L 233.683594 337.476562 Z M 262.910156 340.878906 L 262.910156 315.097656 L 262.964844 315.152344 L 262.910156 315.152344 L 287.214844 319.421875 L 287.214844 406.160156 L 262.910156 401.890625 Z M 292.941406 77.636719 L 274.140625 75.691406 L 274.140625 102.550781 L 292.941406 104.554688 L 292.941406 99.363281 L 279.757812 97.957031 L 279.757812 91.042969 L 289.589844 92.070312 L 289.589844 86.878906 L 279.757812 85.855469 L 279.757812 81.421875 L 292.941406 82.828125 Z M 252.804688 74.394531 C 249.707031 75.371094 248.160156 77.566406 248.160156 80.988281 C 248.160156 83.796875 249.78125 86.070312 253.019531 87.800781 C 254.066406 88.339844 255.234375 88.808594 256.53125 89.203125 L 258.371094 89.691406 C 258.40625 89.726562 258.445312 89.742188 258.476562 89.742188 C 258.585938 89.742188 258.746094 89.78125 258.960938 89.851562 L 259.667969 90.011719 C 260.390625 90.230469 260.996094 90.445312 261.503906 90.664062 C 263.15625 91.382812 263.988281 92.285156 263.988281 93.363281 L 263.988281 93.472656 L 263.824219 94.066406 C 263.648438 94.429688 263.410156 94.753906 263.125 95.039062 C 262.257812 95.796875 260.90625 96.066406 259.070312 95.851562 C 257.199219 95.667969 255.347656 94.914062 253.511719 93.578125 L 252.265625 92.609375 C 251.90625 92.285156 251.582031 91.957031 251.292969 91.632812 L 247.890625 95.144531 L 251.671875 98.226562 C 254.121094 99.777344 256.609375 100.699219 259.128906 100.984375 C 261.574219 101.238281 263.773438 100.875 265.714844 99.90625 C 268.238281 98.679688 269.496094 96.679688 269.496094 93.90625 C 269.496094 90.878906 267.894531 88.5 264.6875 86.769531 C 264.148438 86.519531 263.59375 86.265625 263.015625 86.015625 C 262.441406 85.796875 261.808594 85.582031 261.125 85.367188 L 259.289062 84.878906 C 259.214844 84.878906 259.160156 84.863281 259.128906 84.828125 C 259.015625 84.789062 258.855469 84.757812 258.640625 84.71875 L 256.910156 84.230469 C 256.625 84.121094 256.335938 83.996094 256.046875 83.851562 C 254.464844 83.132812 253.671875 82.214844 253.671875 81.09375 C 253.671875 80.125 254.195312 79.472656 255.234375 79.152344 C 255.632812 79.042969 256.085938 78.988281 256.585938 78.988281 L 258.316406 79.097656 L 260.261719 79.527344 C 261.882812 80.035156 263.25 80.753906 264.363281 81.691406 L 267.5 78.179688 C 265.769531 76.738281 263.949219 75.675781 262.042969 74.992188 C 260.675781 74.449219 259.234375 74.109375 257.722656 73.964844 L 256.101562 73.910156 C 255.527344 73.910156 254.949219 73.949219 254.371094 74.019531 C 253.832031 74.125 253.3125 74.25 252.804688 74.394531 Z M 462.714844 235.441406 L 474.273438 215.339844 C 475.710938 216.453125 477.171875 217.574219 478.648438 218.6875 L 465.957031 237.929688 C 464.875 237.027344 463.796875 236.195312 462.714844 235.441406 Z M 316.488281 294.511719 L 316.488281 411.402344 L 292.183594 407.082031 L 292.183594 290.1875 Z M 321.40625 293.644531 L 321.40625 270.894531 L 321.460938 270.949219 L 345.714844 275.164062 L 345.714844 416.539062 L 321.40625 412.269531 Z M 460.769531 206.367188 L 453.476562 227.175781 C 451.894531 226.308594 450.308594 225.480469 448.726562 224.6875 L 454.398438 203.015625 C 456.558594 204.097656 458.679688 205.214844 460.769531 206.367188 Z M 318.976562 80.394531 L 318.976562 107.253906 L 337.777344 109.253906 L 337.777344 104.0625 L 324.542969 102.660156 L 324.542969 80.988281 Z M 315.574219 101.742188 L 302.394531 100.335938 L 302.394531 78.613281 L 296.773438 78.015625 L 296.773438 104.929688 L 315.574219 106.929688 Z M 342.257812 153.621094 C 341.25 153.875 340.152344 153.945312 338.960938 153.835938 L 244.8125 143.894531 C 243.226562 143.75 241.804688 143.28125 240.546875 142.488281 C 239.679688 141.949219 238.871094 141.265625 238.117188 140.4375 C 237.753906 140 237.410156 139.570312 237.085938 139.140625 C 235.933594 137.410156 235.359375 135.5 235.359375 133.410156 L 235.359375 38.671875 C 235.359375 36.078125 236.277344 33.933594 238.117188 32.242188 C 239.15625 31.304688 240.308594 30.691406 241.570312 30.40625 C 242.582031 30.117188 243.660156 30.046875 244.8125 30.191406 L 338.960938 40.078125 C 341.589844 40.363281 343.824219 41.523438 345.660156 43.535156 C 347.5 45.625 348.414062 47.96875 348.414062 50.5625 L 348.414062 145.300781 C 348.414062 147.929688 347.5 150.074219 345.660156 151.730469 C 344.65625 152.628906 343.519531 153.261719 342.257812 153.621094 " fill-opacity="1" fill-rule="evenodd"/><g clip-path="url(#0f70382309)"><path fill="#33cccc" d="M 380.554688 349.039062 L 404.863281 353.363281 L 404.863281 427.019531 L 380.554688 422.753906 Z M 434.085938 405.785156 L 434.085938 432.210938 L 409.777344 427.941406 L 409.777344 401.460938 L 409.832031 401.515625 L 434.085938 405.730469 Z M 571.449219 125.949219 C 570.875 126.132812 570.261719 126.1875 569.613281 126.113281 L 561.835938 125.304688 L 561.835938 119.195312 L 569.667969 120.003906 C 570.242188 120.078125 570.835938 120.257812 571.449219 120.546875 C 572.636719 121.195312 573.234375 122.167969 573.234375 123.46875 C 573.234375 124.726562 572.636719 125.558594 571.449219 125.949219 Z M 375.585938 320.667969 L 375.636719 421.832031 L 351.28125 417.507812 L 351.28125 415.617188 L 351.226562 316.34375 Z M 399.839844 192.859375 L 408.15625 217.988281 C 406.648438 218.203125 405.171875 218.457031 403.726562 218.742188 L 393.789062 193.828125 C 394.652344 193.652344 395.519531 193.488281 396.382812 193.34375 C 397.535156 193.128906 398.6875 192.964844 399.839844 192.859375 Z M 420.367188 192.691406 L 423.390625 217.933594 C 421.804688 217.789062 420.238281 217.660156 418.691406 217.550781 L 413.941406 192.207031 C 416.101562 192.351562 418.238281 192.515625 420.367188 192.691406 Z M 611.152344 107.304688 L 621.199219 122.976562 L 621.199219 137.085938 L 627.195312 137.734375 L 627.195312 123.628906 L 637.242188 110.0625 L 630.4375 109.363281 L 624.222656 118.007812 L 617.957031 108.011719 Z M 583.386719 104.332031 L 583.386719 119.957031 C 583.386719 123.667969 584.46875 126.910156 586.628906 129.683594 C 587.707031 131.050781 589.097656 132.148438 590.789062 132.976562 C 592.300781 133.769531 593.957031 134.238281 595.757812 134.382812 C 597.558594 134.597656 599.234375 134.492188 600.78125 134.058594 C 602.472656 133.554688 603.824219 132.742188 604.832031 131.625 C 607.027344 129.320312 608.128906 126.292969 608.128906 122.546875 L 608.128906 106.984375 L 602.1875 106.335938 L 602.1875 121.628906 C 602.1875 123.753906 601.71875 125.503906 600.78125 126.871094 C 600.203125 127.625 599.449219 128.183594 598.511719 128.546875 C 597.648438 128.871094 596.730469 128.976562 595.757812 128.871094 C 594.785156 128.761719 593.867188 128.476562 593.003906 128.007812 C 592.101562 127.429688 591.363281 126.6875 590.789062 125.789062 C 589.8125 124.242188 589.328125 122.402344 589.328125 120.277344 L 589.328125 104.984375 Z M 567.722656 102.765625 L 555.839844 101.472656 L 555.839844 130.222656 L 570.367188 131.734375 C 571.8125 131.878906 573.265625 131.679688 574.746094 131.140625 C 577.625 130.023438 579.066406 127.664062 579.066406 124.058594 C 579.066406 122.4375 578.597656 120.941406 577.660156 119.574219 C 576.90625 118.53125 575.878906 117.574219 574.585938 116.710938 C 575.125 116.132812 575.539062 115.523438 575.824219 114.871094 C 576.183594 114.082031 576.363281 113.199219 576.363281 112.222656 C 576.363281 108.625 574.925781 105.976562 572.042969 104.28125 C 570.605469 103.417969 569.160156 102.910156 567.722656 102.765625 Z M 561.835938 107.632812 L 567.347656 108.226562 C 567.992188 108.296875 568.585938 108.496094 569.128906 108.820312 C 570.351562 109.46875 570.945312 110.425781 570.910156 111.683594 C 570.910156 112.730469 570.511719 113.488281 569.722656 113.957031 C 569.429688 114.097656 569.09375 114.207031 568.695312 114.28125 C 568.371094 114.386719 568.0625 114.425781 567.777344 114.386719 L 561.835938 113.789062 Z M 647.070312 183.128906 C 646.03125 183.382812 644.933594 183.453125 643.78125 183.34375 L 549.570312 173.457031 C 548.027344 173.277344 546.601562 172.789062 545.304688 171.996094 C 544.441406 171.457031 543.652344 170.773438 542.929688 169.945312 C 542.207031 169.183594 541.632812 168.355469 541.199219 167.457031 C 540.515625 166.089844 540.171875 164.589844 540.171875 162.96875 L 540.171875 68.234375 C 540.171875 65.605469 541.09375 63.460938 542.929688 61.804688 C 543.9375 60.867188 545.089844 60.238281 546.386719 59.914062 C 547.359375 59.660156 548.417969 59.589844 549.570312 59.699219 L 643.78125 69.640625 C 646.371094 69.894531 648.585938 71.046875 650.421875 73.097656 C 652.296875 75.152344 653.234375 77.492188 653.234375 80.125 L 653.234375 174.859375 C 653.234375 177.488281 652.296875 179.632812 650.421875 181.292969 C 649.414062 182.191406 648.296875 182.804688 647.070312 183.128906 " fill-opacity="1" fill-rule="evenodd"/></g><g clip-path="url(#b643bf7775)"><path fill="#0d9494" d="M 429.167969 373.464844 L 429.167969 398.054688 L 409.832031 401.515625 L 409.777344 401.460938 L 409.777344 426.210938 L 404.863281 427.074219 L 404.863281 353.363281 L 429.167969 349.039062 Z M 434.085938 432.210938 L 434.085938 405.785156 L 458.394531 401.515625 L 458.394531 427.886719 Z M 399.894531 316.398438 L 399.894531 345.6875 L 380.554688 349.039062 L 380.554688 420.972656 L 375.636719 421.832031 L 375.585938 320.667969 L 399.894531 316.34375 Z M 662.195312 167.996094 L 662.195312 171.242188 C 662.195312 173.507812 661.496094 175.4375 660.089844 177.019531 C 659.875 177.238281 659.660156 177.457031 659.445312 177.671875 C 658.46875 178.535156 657.410156 179.132812 656.253906 179.453125 L 647.070312 183.234375 L 647.070312 183.128906 C 648.296875 182.804688 649.414062 182.191406 650.421875 181.292969 C 652.296875 179.632812 653.234375 177.488281 653.234375 174.859375 L 653.234375 80.125 C 653.234375 77.492188 652.296875 75.152344 650.421875 73.097656 C 648.585938 71.046875 646.371094 69.894531 643.78125 69.640625 L 549.570312 59.699219 C 548.417969 59.589844 547.359375 59.660156 546.386719 59.914062 L 555.191406 56.234375 L 555.191406 56.34375 C 556.234375 56.058594 557.371094 55.964844 558.59375 56.074219 L 652.796875 66.019531 C 655.394531 66.273438 657.605469 67.425781 659.445312 69.476562 C 661.28125 71.53125 662.195312 73.871094 662.195312 76.5 L 662.195312 167.996094 " fill-opacity="1" fill-rule="evenodd"/></g><g clip-path="url(#e75e89c3c7)"><path fill="#b9bcbe" d="M 342.257812 153.621094 L 342.257812 153.730469 L 351.441406 149.949219 C 352.628906 149.585938 353.691406 148.972656 354.625 148.109375 C 354.878906 147.929688 355.113281 147.730469 355.332031 147.515625 L 361.757812 148.164062 L 340.636719 155.785156 L 234.550781 144.648438 L 240.546875 142.488281 C 241.804688 143.28125 243.226562 143.75 244.8125 143.894531 L 338.960938 153.835938 C 340.152344 153.945312 341.25 153.875 342.257812 153.621094 Z M 223.367188 159.40625 C 220.339844 157.890625 218.828125 156.269531 218.828125 154.542969 C 218.828125 154.433594 218.828125 154.324219 218.828125 154.21875 L 218.828125 148.488281 C 219.261719 152.308594 227.148438 155.566406 242.488281 158.269531 C 258.261719 161.042969 277.292969 162.429688 299.585938 162.429688 C 321.914062 162.429688 340.960938 161.042969 356.734375 158.269531 C 371.75 155.601562 379.617188 152.429688 380.339844 148.757812 L 380.339844 154 C 380.375 154.179688 380.394531 154.378906 380.394531 154.59375 C 380.394531 155.855469 379.546875 157.0625 377.855469 158.214844 C 377.78125 158.289062 377.710938 158.34375 377.636719 158.375 C 374.109375 160.71875 367.140625 162.808594 356.734375 164.644531 C 340.960938 167.417969 321.914062 168.808594 299.585938 168.808594 C 277.292969 168.808594 258.261719 167.417969 242.488281 164.644531 C 233.628906 163.0625 227.257812 161.316406 223.367188 159.40625 Z M 524.183594 188.425781 C 521.125 186.914062 519.59375 185.292969 519.59375 183.558594 C 519.59375 183.453125 519.613281 183.34375 519.648438 183.234375 L 519.648438 177.511719 C 520.042969 181.292969 527.914062 184.535156 543.253906 187.238281 C 559.023438 190.046875 578.074219 191.453125 600.402344 191.453125 C 622.691406 191.453125 641.726562 190.046875 657.5 187.238281 C 672.550781 184.609375 680.417969 181.4375 681.101562 177.726562 L 681.101562 183.019531 C 681.140625 183.203125 681.15625 183.382812 681.15625 183.558594 C 681.15625 184.855469 680.328125 186.085938 678.671875 187.238281 C 678.601562 187.273438 678.527344 187.328125 678.457031 187.398438 C 674.929688 189.742188 667.945312 191.832031 657.5 193.667969 C 641.726562 196.441406 622.691406 197.828125 600.402344 197.828125 C 578.074219 197.828125 559.023438 196.441406 543.253906 193.667969 C 534.429688 192.082031 528.074219 190.335938 524.183594 188.425781 Z M 545.304688 171.996094 C 546.601562 172.789062 548.027344 173.277344 549.570312 173.457031 L 643.78125 183.34375 C 644.933594 183.453125 646.03125 183.382812 647.070312 183.128906 L 647.070312 183.234375 L 656.253906 179.453125 C 657.410156 179.132812 658.46875 178.535156 659.445312 177.671875 C 659.660156 177.457031 659.875 177.238281 660.089844 177.019531 L 666.574219 177.671875 L 645.402344 185.292969 L 539.363281 174.15625 L 545.304688 171.996094 " fill-opacity="1" fill-rule="evenodd"/></g><path fill="#797eae" d="M 223.960938 160.105469 C 223.746094 159.890625 223.546875 159.65625 223.367188 159.40625 C 227.257812 161.316406 233.628906 163.0625 242.488281 164.644531 C 258.261719 167.417969 277.292969 168.808594 299.585938 168.808594 C 321.914062 168.808594 340.960938 167.417969 356.734375 164.644531 C 367.140625 162.808594 374.109375 160.71875 377.636719 158.375 C 375.984375 162.125 368.511719 165.382812 355.222656 168.160156 C 340.023438 171.328125 321.675781 172.917969 300.179688 172.917969 C 278.714844 172.917969 260.390625 171.328125 245.1875 168.160156 C 233.988281 165.820312 226.914062 163.132812 223.960938 160.105469 Z M 524.777344 189.128906 C 524.5625 188.910156 524.367188 188.675781 524.183594 188.425781 C 528.074219 190.335938 534.429688 192.082031 543.253906 193.667969 C 559.023438 196.441406 578.074219 197.828125 600.402344 197.828125 C 622.691406 197.828125 641.726562 196.441406 657.5 193.667969 C 667.945312 191.832031 674.929688 189.742188 678.457031 187.398438 C 676.800781 191.148438 669.3125 194.40625 655.984375 197.179688 C 640.824219 200.3125 622.496094 201.878906 600.996094 201.878906 C 579.535156 201.878906 561.207031 200.3125 546.011719 197.179688 C 534.773438 194.835938 527.695312 192.152344 524.777344 189.128906 " fill-opacity="1" fill-rule="evenodd"/><path fill="#ffffff" d="M 252.804688 74.394531 C 253.3125 74.25 253.832031 74.125 254.371094 74.019531 C 254.949219 73.949219 255.527344 73.910156 256.101562 73.910156 L 257.722656 73.964844 C 259.234375 74.109375 260.675781 74.449219 262.042969 74.992188 C 263.949219 75.675781 265.769531 76.738281 267.5 78.179688 L 264.363281 81.691406 C 263.25 80.753906 261.882812 80.035156 260.261719 79.527344 L 258.316406 79.097656 L 256.585938 78.988281 C 256.085938 78.988281 255.632812 79.042969 255.234375 79.152344 C 254.195312 79.472656 253.671875 80.125 253.671875 81.09375 C 253.671875 82.214844 254.464844 83.132812 256.046875 83.851562 C 256.335938 83.996094 256.625 84.121094 256.910156 84.230469 L 258.640625 84.71875 C 258.855469 84.757812 259.015625 84.789062 259.128906 84.828125 C 259.160156 84.863281 259.214844 84.878906 259.289062 84.878906 L 261.125 85.367188 C 261.808594 85.582031 262.441406 85.796875 263.015625 86.015625 C 263.59375 86.265625 264.148438 86.519531 264.6875 86.769531 C 267.894531 88.5 269.496094 90.878906 269.496094 93.90625 C 269.496094 96.679688 268.238281 98.679688 265.714844 99.90625 C 263.773438 100.875 261.574219 101.238281 259.128906 100.984375 C 256.609375 100.699219 254.121094 99.777344 251.671875 98.226562 L 247.890625 95.144531 L 251.292969 91.632812 C 251.582031 91.957031 251.90625 92.285156 252.265625 92.609375 L 253.511719 93.578125 C 255.347656 94.914062 257.199219 95.667969 259.070312 95.851562 C 260.90625 96.066406 262.257812 95.796875 263.125 95.039062 C 263.410156 94.753906 263.648438 94.429688 263.824219 94.066406 L 263.988281 93.472656 L 263.988281 93.363281 C 263.988281 92.285156 263.15625 91.382812 261.503906 90.664062 C 260.996094 90.445312 260.390625 90.230469 259.667969 90.011719 L 258.960938 89.851562 C 258.746094 89.78125 258.585938 89.742188 258.476562 89.742188 C 258.445312 89.742188 258.40625 89.726562 258.371094 89.691406 L 256.53125 89.203125 C 255.234375 88.808594 254.066406 88.339844 253.019531 87.800781 C 249.78125 86.070312 248.160156 83.796875 248.160156 80.988281 C 248.160156 77.566406 249.707031 75.371094 252.804688 74.394531 Z M 292.941406 77.636719 L 292.941406 82.828125 L 279.757812 81.421875 L 279.757812 85.855469 L 289.589844 86.878906 L 289.589844 92.070312 L 279.757812 91.042969 L 279.757812 97.957031 L 292.941406 99.363281 L 292.941406 104.554688 L 274.140625 102.550781 L 274.140625 75.691406 Z M 571.449219 125.949219 C 572.636719 125.558594 573.234375 124.726562 573.234375 123.46875 C 573.234375 122.167969 572.636719 121.195312 571.449219 120.546875 C 570.835938 120.257812 570.242188 120.078125 569.667969 120.003906 L 561.835938 119.195312 L 561.835938 125.304688 L 569.613281 126.113281 C 570.261719 126.1875 570.875 126.132812 571.449219 125.949219 Z M 315.574219 101.742188 L 315.574219 106.929688 L 296.773438 104.929688 L 296.773438 78.015625 L 302.394531 78.613281 L 302.394531 100.335938 Z M 318.976562 80.394531 L 324.542969 80.988281 L 324.542969 102.660156 L 337.777344 104.0625 L 337.777344 109.253906 L 318.976562 107.253906 Z M 567.722656 102.765625 C 569.160156 102.910156 570.605469 103.417969 572.042969 104.28125 C 574.925781 105.976562 576.363281 108.625 576.363281 112.222656 C 576.363281 113.199219 576.183594 114.082031 575.824219 114.871094 C 575.539062 115.523438 575.125 116.132812 574.585938 116.710938 C 575.878906 117.574219 576.90625 118.53125 577.660156 119.574219 C 578.597656 120.941406 579.066406 122.4375 579.066406 124.058594 C 579.066406 127.664062 577.625 130.023438 574.746094 131.140625 C 573.265625 131.679688 571.8125 131.878906 570.367188 131.734375 L 555.839844 130.222656 L 555.839844 101.472656 Z M 583.386719 104.332031 L 589.328125 104.984375 L 589.328125 120.277344 C 589.328125 122.402344 589.8125 124.242188 590.789062 125.789062 C 591.363281 126.6875 592.101562 127.429688 593.003906 128.007812 C 593.867188 128.476562 594.785156 128.761719 595.757812 128.871094 C 596.730469 128.976562 597.648438 128.871094 598.511719 128.546875 C 599.449219 128.183594 600.203125 127.625 600.78125 126.871094 C 601.71875 125.503906 602.1875 123.753906 602.1875 121.628906 L 602.1875 106.335938 L 608.128906 106.984375 L 608.128906 122.546875 C 608.128906 126.292969 607.027344 129.320312 604.832031 131.625 C 603.824219 132.742188 602.472656 133.554688 600.78125 134.058594 C 599.234375 134.492188 597.558594 134.597656 595.757812 134.382812 C 593.957031 134.238281 592.300781 133.769531 590.789062 132.976562 C 589.097656 132.148438 587.707031 131.050781 586.628906 129.683594 C 584.46875 126.910156 583.386719 123.667969 583.386719 119.957031 Z M 611.152344 107.304688 L 617.957031 108.011719 L 624.222656 118.007812 L 630.4375 109.363281 L 637.242188 110.0625 L 627.195312 123.628906 L 627.195312 137.734375 L 621.199219 137.085938 L 621.199219 122.976562 Z M 561.835938 107.632812 L 561.835938 113.789062 L 567.777344 114.386719 C 568.0625 114.425781 568.371094 114.386719 568.695312 114.28125 C 569.09375 114.207031 569.429688 114.097656 569.722656 113.957031 C 570.511719 113.488281 570.910156 112.730469 570.910156 111.683594 C 570.945312 110.425781 570.351562 109.46875 569.128906 108.820312 C 568.585938 108.496094 567.992188 108.296875 567.347656 108.226562 L 561.835938 107.632812 " fill-opacity="1" fill-rule="evenodd"/><g clip-path="url(#31155a2f30)"><path fill="#bb355a" d="M 257.992188 341.746094 L 262.910156 340.878906 L 262.910156 400.164062 L 257.992188 401.027344 Z M 292.183594 318.5625 L 292.183594 405.296875 L 287.214844 406.214844 L 287.214844 319.421875 L 287.269531 319.421875 L 287.8125 319.371094 Z M 316.488281 294.511719 L 321.40625 293.644531 L 321.40625 410.539062 L 316.488281 411.402344 Z M 345.714844 416.539062 L 345.714844 275.164062 L 369.964844 270.949219 L 370.019531 270.894531 L 370.019531 313.046875 L 351.226562 316.34375 L 351.28125 415.617188 L 345.714844 416.59375 Z M 357.4375 138.21875 L 357.4375 141.734375 C 357.4375 144.003906 356.734375 145.929688 355.332031 147.515625 C 355.113281 147.730469 354.878906 147.929688 354.625 148.109375 C 353.691406 148.972656 352.628906 149.585938 351.441406 149.949219 L 342.257812 153.730469 L 342.257812 153.621094 C 343.519531 153.261719 344.65625 152.628906 345.660156 151.730469 C 347.5 150.074219 348.414062 147.929688 348.414062 145.300781 L 348.414062 50.5625 C 348.414062 47.96875 347.5 45.625 345.660156 43.535156 C 343.824219 41.523438 341.589844 40.363281 338.960938 40.078125 L 244.8125 30.191406 C 243.660156 30.046875 242.582031 30.117188 241.570312 30.40625 L 250.375 26.730469 L 250.375 26.835938 C 251.453125 26.550781 252.605469 26.460938 253.832031 26.566406 L 347.984375 36.460938 C 350.574219 36.746094 352.789062 37.917969 354.625 39.972656 C 356.5 42.023438 357.4375 44.347656 357.4375 46.941406 L 357.4375 138.21875 " fill-opacity="1" fill-rule="evenodd"/></g><path fill="#4eeef1" d="M 404.863281 353.363281 L 380.554688 349.039062 L 399.894531 345.6875 L 404.863281 344.769531 L 429.167969 349.039062 Z M 409.832031 401.515625 L 429.167969 398.054688 L 434.085938 397.191406 L 458.394531 401.515625 L 434.085938 405.785156 L 434.085938 405.730469 Z M 399.894531 316.398438 L 399.894531 316.34375 L 375.585938 320.667969 L 351.226562 316.34375 L 370.019531 313.046875 L 375.636719 312.074219 L 391.199219 314.828125 L 399.945312 316.34375 L 399.894531 316.398438 " fill-opacity="1" fill-rule="evenodd"/><path fill="#ff92a2" d="M 262.910156 340.878906 L 257.992188 341.746094 L 235.980469 337.851562 L 233.683594 337.421875 L 257.992188 333.152344 L 262.910156 334.011719 Z M 287.214844 319.421875 L 262.910156 315.152344 L 262.964844 315.152344 L 287.214844 310.832031 L 292.183594 311.695312 L 292.183594 318.5625 L 287.8125 319.371094 L 287.269531 319.421875 Z M 321.40625 293.644531 L 316.488281 294.511719 L 292.183594 290.1875 L 316.488281 285.914062 L 321.40625 286.78125 Z M 345.714844 275.164062 L 321.460938 270.949219 L 345.714844 266.625 L 369.964844 270.949219 L 345.714844 275.164062 " fill-opacity="1" fill-rule="evenodd"/></svg>