<?xml version="1.0" encoding="UTF-8"?><svg xmlns="http://www.w3.org/2000/svg" xmlns:xlink="http://www.w3.org/1999/xlink" height="480.0" preserveAspectRatio="xMidYMid meet" version="1.0" viewBox="24.0 16.0 464.0 480.0" width="464.0" zoomAndPan="magnify"><g id="change1_1"><circle cx="256" cy="216" fill="#efad29" r="88"/></g><g id="change2_1"><circle cx="256" cy="216" fill="#f9ca6b" r="72"/></g><g id="change3_1"><path d="M216,344.96v55.04H24v-55.04c0-14.64,10-27.44,24.24-31.04l39.76-9.92h64l39.76,9.92c14.24,3.6,24.24,16.4,24.24,31.04Z" fill="#2a86c5"/></g><g id="change4_1"><path d="M152,267.68v44.32c0,17.68-14.32,32-32,32-8.8,0-16.8-3.6-22.64-9.36-5.76-5.84-9.36-13.84-9.36-22.64v-44.32c8.48,7.68,19.68,12.32,32,12.32s23.52-4.64,32-12.32Z" fill="#f2b981"/></g><g id="change5_1"><path d="M120,272c-13.04,0-24.72-6.32-32-16v21.92c9.04,6.4,20.08,10.08,32,10.08s22.96-3.68,32-10.08v-21.92c-7.28,9.68-18.96,16-32,16Z" fill="#e0a36c"/></g><g id="change6_1"><path d="M55.997,207.993l.004-31.994c0-35.347,28.654-64.001,64-64.001h0c35.346,0,64,28.654,64,64.001v32" fill="#8c6239"/></g><g id="change7_1"><path d="M80,376v24h-16v-24c0-4.4,3.6-8,8-8s8,3.6,8,8Z" fill="#116fa3"/></g><g id="change7_2"><path d="M176,376v24h-16v-24c0-4.4,3.6-8,8-8s8,3.6,8,8Z" fill="#116fa3"/></g><g id="change4_2"><path d="M168,184v48c0,14.16-6.16,26.96-16,35.68-8.48,7.68-19.68,12.32-32,12.32s-23.52-4.64-32-12.32c-.64-.56-1.28-1.12-1.92-1.76-8.72-8.64-14.08-20.64-14.08-33.92v-50.56c14.32-3.44,27.76-10.08,40-21.44l-8,32c16,0,32-10.64,48-32l16,24Z" fill="#f2b981"/></g><g id="change4_3"><path d="M64.001,199.998h8v32h-8c-8.831,0-16-7.169-16-16h0c0-8.831,7.169-16,16-16Z" fill="#f2b981"/></g><g id="change4_4"><path d="M184.001,199.998h8v32h-8c-8.831,0-16-7.169-16-16h0c0-8.831,7.169-16,16-16Z" fill="#f2b981" transform="rotate(180 180.001 215.999)"/></g><g id="change1_2"><path d="M216.158,223.998c-4.414,0-8.039-3.582-8.039-8s3.547-8,7.961-8h.078c4.422,0,8,3.582,8,8s-3.578,8-8,8Z" fill="#efad29"/></g><g id="change1_3"><path d="M296.158,223.998c-4.414,0-8.039-3.582-8.039-8s3.547-8,7.961-8h.078c4.422,0,8,3.582,8,8s-3.578,8-8,8Z" fill="#efad29"/></g><g id="change1_4"><path d="M280,232c0-13.234-10.766-24-24-24-4.414,0-8-3.586-8-8s3.586-8,8-8c2.852,0,5.508,1.531,6.938,4.008,2.195,3.82,7.078,5.141,10.93,2.914,3.82-2.211,5.133-7.102,2.914-10.93-2.879-4.984-7.503-8.539-12.781-10.43v-1.57c0-4.422-3.578-8-8-8s-8,3.578-8,8v1.482c-9.292,3.313-16,12.11-16,22.526,0,13.234,10.766,24,24,24,4.414,0,8,3.586,8,8s-3.576,7.985-7.98,7.996c-.007,0-.013-.004-.02-.004-.008,0-.015,.005-.023,.005-2.843-.009-5.488-1.535-6.914-4.005-2.203-3.828-7.094-5.156-10.93-2.914-3.82,2.211-5.133,7.102-2.914,10.93,2.879,4.984,7.503,8.539,12.781,10.43v1.562c0,4.422,3.578,8,8,8s8-3.578,8-8v-1.474c9.292-3.313,16-12.11,16-22.526Z" fill="#efad29"/></g><g id="change8_1"><path d="M392,56c0-4.422-3.578-8-8-8s-8,3.578-8,8v5.172c-33.505-29.258-75.455-45.172-120-45.172-50.914,0-98.438,20.789-133.836,58.531-3.023,3.219-2.859,8.281,.367,11.305,3.203,3.008,8.273,2.852,11.305-.367,32.336-34.477,75.719-53.469,122.164-53.469,39.949,0,77.585,14.13,107.922,40h-3.922c-4.422,0-8,3.578-8,8s3.578,8,8,8h24c1.019,0,2.032-.215,2.994-.604,.494-.2,.885-.545,1.324-.834,.382-.25,.807-.403,1.151-.726,.03-.028,.039-.068,.068-.096,.513-.495,.867-1.116,1.234-1.733,.169-.286,.426-.525,.556-.825,.156-.358,.162-.774,.265-1.157,.167-.631,.373-1.25,.383-1.899,0-.044,.025-.081,.025-.125v-24Z" fill="#009f77"/></g><g id="change8_2"><path d="M389.477,426.164c-3.234-3.023-8.289-2.852-11.312,.359-32.344,34.484-75.727,53.477-122.164,53.477-39.94,0-77.572-14.129-107.913-40h3.913c4.422,0,8-3.578,8-8s-3.578-8-8-8h-24c-.455,0-.848,.186-1.282,.258-.555,.09-1.109,.123-1.639,.331-.594,.234-1.08,.621-1.595,.983-.313,.218-.674,.324-.961,.592-.033,.031-.043,.075-.075,.106-.47,.455-.783,1.033-1.13,1.591-.204,.331-.499,.613-.65,.965-.141,.325-.142,.704-.239,1.05-.185,.664-.394,1.317-.404,2.001,0,.043-.024,.079-.024,.122v24c0,4.422,3.578,8,8,8s8-3.578,8-8v-5.168c33.511,29.254,75.46,45.168,120,45.168,50.906,0,98.43-20.789,133.836-58.523,3.023-3.227,2.859-8.289-.359-11.312Z" fill="#009f77"/></g><g id="change5_2"><path d="M64 200H72V232H64z" fill="#e0a36c"/></g><g id="change5_3"><path d="M168 200H176V232H168z" fill="#e0a36c"/></g><g id="change3_2"><path d="M488,344.96v55.04h-192v-55.04c0-14.64,10-27.44,24.24-31.04l39.76-9.92h64l39.76,9.92c14.24,3.6,24.24,16.4,24.24,31.04Z" fill="#2a86c5"/></g><g id="change4_5"><path d="M424,267.68v44.32c0,17.68-14.32,32-32,32-8.8,0-16.8-3.6-22.64-9.36-5.76-5.84-9.36-13.84-9.36-22.64v-44.32c8.48,7.68,19.68,12.32,32,12.32s23.52-4.64,32-12.32Z" fill="#f2b981"/></g><g id="change5_4"><path d="M392,272c-13.04,0-24.72-6.32-32-16v21.92c9.04,6.4,20.08,10.08,32,10.08s22.96-3.68,32-10.08v-21.92c-7.28,9.68-18.96,16-32,16Z" fill="#e0a36c"/></g><g id="change6_2"><path d="M327.997,207.993l.004-31.994c0-35.347,28.654-64.001,64-64.001h0c35.346,0,64,28.654,64,64.001v32" fill="#8c6239"/></g><g id="change7_3"><path d="M352,376v24h-16v-24c0-4.4,3.6-8,8-8s8,3.6,8,8Z" fill="#116fa3"/></g><g id="change7_4"><path d="M448,376v24h-16v-24c0-4.4,3.6-8,8-8s8,3.6,8,8Z" fill="#116fa3"/></g><g id="change4_6"><path d="M440,184v48c0,14.16-6.16,26.96-16,35.68-8.48,7.68-19.68,12.32-32,12.32s-23.52-4.64-32-12.32c-.64-.56-1.28-1.12-1.92-1.76-8.72-8.64-14.08-20.64-14.08-33.92v-50.56c14.32-3.44,27.76-10.08,40-21.44l-8,32c16,0,32-10.64,48-32l16,24Z" fill="#f2b981"/></g><g id="change4_7"><path d="M336.001,199.998h8v32h-8c-8.831,0-16-7.169-16-16h0c0-8.831,7.169-16,16-16Z" fill="#f2b981"/></g><g id="change4_8"><path d="M456.001,199.998h8v32h-8c-8.831,0-16-7.169-16-16h0c0-8.831,7.169-16,16-16Z" fill="#f2b981" transform="rotate(180 452.002 215.999)"/></g><g id="change5_5"><path d="M336 200H344V232H336z" fill="#e0a36c"/></g><g id="change5_6"><path d="M440 200H448V232H440z" fill="#e0a36c"/></g></svg>