<?xml version="1.0" encoding="UTF-8"?><svg xmlns="http://www.w3.org/2000/svg" xmlns:xlink="http://www.w3.org/1999/xlink" data-name="Layer 1" height="327.4" preserveAspectRatio="xMidYMid meet" version="1.0" viewBox="-0.4 -0.0 386.6 327.4" width="386.6" zoomAndPan="magnify"><g id="change1_1"><path d="M365.38607,256.08635l-.00007-.00293c2.99335-1.67487,4.67457-3.54364,4.67457-5.5163,0-2.03686-1.79517-3.97381-4.98591-5.69189l-.00909-.327V233.06718a3.68268,3.68268,0,0,1-.28058,1.38092l-.00012-.004a3.68152,3.68152,0,0,0,.28009-1.37983c0-7.17968-22.16193-13-49.5-13-27.33813,0-49.5,5.82032-49.5,13l.00061.00635v15.24658a4.05173,4.05173,0,0,0,.05.6c.31,1.82,2.06,3.55,4.95,5.1v11.8a4.05173,4.05173,0,0,0,.05.6l.7522.17334v.0011l-.75715-.17444a4.04522,4.04522,0,0,1-.05-.6v-3.84c-5.06,2.04-8,4.48-8,7.09,0,.0174.00476.03455.005.05194v15.19812a4.05173,4.05173,0,0,0,.05.6,6.55272,6.55272,0,0,0,2.95,3.87v14.53a4.05173,4.05173,0,0,0,.05.6c1.18,6.9,22.87,12.4,49.45,12.4s48.26-5.5,49.45-12.4a4.05173,4.05173,0,0,0,.05-.6v-15.25l-.00513-.00116c-.00048-1.56823-1.05871-3.07641-2.99487-4.465V272.90715c4.67-1.88,7.54-4.1,7.95-6.49a4.05173,4.05173,0,0,0,.05-.6v-15.25C370.06557,252.54094,368.38259,254.41075,365.38607,256.08635ZM266.12984,233.735c.29651,1.53229,1.60907,2.99365,3.75452,4.34088l.00171.00372C267.73867,236.73131,266.42531,235.26866,266.12984,233.735ZM381.16555,115.29716a5.02114,5.02114,0,0,0-2.58,9.34l-10.03,33.07h-.2a5.02667,5.02667,0,0,0-3.84,1.78l-18.52-10.62a4.854,4.854,0,0,0,.18-1.33,5.025,5.025,0,1,0-9.87,1.35l-25.99,15.91a5.02473,5.02473,0,1,0-5.91,7.98v.01l-6.46,30.92h-.01a5.02586,5.02586,0,0,0-4.88,3.87l-14.98.2a5.03238,5.03238,0,0,0-4.93-4.07,5.21953,5.21953,0,0,0-1.44.21l-7.49006-14.5c-.02734.09222-.06189.182-.08966.27411.32965-1.06873.65058-2.1405.92969-3.22412-.02576-.01587-.04925-.03534-.07489-.05139a10.39032,10.39032,0,0,0,1.74487.89141,24.14067,24.14067,0,0,0,2.72-3.8,6.88171,6.88171,0,0,0,.99-2.55,8.03442,8.03442,0,0,0-.9-4.01c2.06-6.7,4.57-13.67,4.39-20.87995a13.29615,13.29615,0,0,0-1.26-5.88c-1.07-2.07-2.95-3.63-4.04-5.69a17.48819,17.48819,0,0,1-1.35-3.88c-.72-2.72-1.43-5.44-2.15-8.16-.63-2.39-1.41-4.98-3.37-6.42a1.08164,1.08164,0,0,0-.39-.51,17.51078,17.51078,0,0,0-3.05-1.98c-1.45087-.80383-2.90485-1.60571-4.42529-2.39.06427.03345.13141.06653.19531.1a4.49308,4.49308,0,0,0,1.01-4.01,24.43244,24.43244,0,0,0-1.34-2.59c-1.11-2.57.28-5.51,1.93-7.77,1.65-2.26,3.68-4.48,4.01-7.26a6.60381,6.60381,0,0,0-1.42-4.9c-.45-.55-.99-1.03-1.39-1.61-1.32-1.9-.96-4.44-1.26-6.74a11.59741,11.59741,0,0,0-8.39-9.53,14.37439,14.37439,0,0,0-8.35.59,47.54446,47.54446,0,0,0-7.41,3.84c-1.67-1.05-3.98-.2-5.26,1.3-1.26995,1.5-1.8,3.48-2.43994,5.34a37.99769,37.99769,0,0,1-2.32,5.37,8.38105,8.38105,0,0,0-1.35,3.75,6.25646,6.25646,0,0,0,1.12,3.24,16.14571,16.14571,0,0,0,3.05,3.6c1.43994,1.27,3.28,2.63,3.16,4.55-.03.46-.14,1.03.25,1.3a.96729.96729,0,0,0,.59.11,6.43106,6.43106,0,0,0,2.47815-.57532,19.5328,19.5328,0,0,1-1.67608,2.58875,70.1927,70.1927,0,0,0-6.97211,1.50659c-.1.78-.2,1.57-.25,2.39a38.75824,38.75824,0,0,1-9.14,3.31,4.97565,4.97565,0,0,0-1.51995.52,3.98687,3.98687,0,0,0-1.1,1.21c-4.91,7.31-4.58,16.85-7.35,25.21a58.92789,58.92789,0,0,0-2.31,7.11,25.54725,25.54725,0,0,0-.3,5.99,8.39381,8.39381,0,0,0,.51,2.99,8.88731,8.88731,0,0,0,1.13995,1.79,22.09812,22.09812,0,0,0,2.45,2.9,9.21988,9.21988,0,0,0,3.55,2.66c2.18.73,4.55-.13,6.92005-1.04q-.6,2.715-1.06,5.46a2.59439,2.59439,0,0,0-.04,1c.19.91,1.25,1.41,1.93,2.51a30.98155,30.98155,0,0,1-4.32,7.37,6.21765,6.21765,0,0,0-.91,1.36,5.59374,5.59374,0,0,0-.32,2.04q-.13494,3.75-.27,7.51a1.68634,1.68634,0,0,0,.32,1.29.959.959,0,0,0,.797.24231c-3.717,14.39172-4.92359,29.342-5.93256,44.21326h-.00226l.00782-.11561-.12116.11561h-.02869l-.01336.04016-5.07678,4.84423a4.90528,4.90528,0,0,0-2.94-.96,5.09345,5.09345,0,0,0-1.56.25l-9.56-17.01a5.02892,5.02892,0,1,0-8.31-3.81,4.92762,4.92762,0,0,0,.96,2.94l-16.44,22.5c-.04,1.42-.08,2.84-.13,4.25l18.4-25.19a5.12923,5.12923,0,0,0,2.24.53,4.744,4.744,0,0,0,1.13995-.14l9.66,17.2a5.032,5.032,0,1,0,8.1,1.27l3.44-3.29.02874-.42443h.00373l-.03247.48443c-.2,3.06-.37,6.31995.86,8.63995-5.05,14.58-5.06006,30.37-8.13,45.49-.51,2.55-1.58222,8.16-1.83222,10.74a3.04923,3.04923,0,0,0,1.06,3.09c.06159-.02411.12653-.04.18836-.06372a28.91621,28.91621,0,0,0-3.16614,6.54376c-.55,1.6-.93006,3.46-.08,4.93a5.29626,5.29626,0,0,0,3.2,2.18c2.74.81,5.66.6,8.51.38a3.73419,3.73419,0,0,0,2.77-1,3.503,3.503,0,0,0,.59-2.09,45.99145,45.99145,0,0,0,.01-5.87c-.04993-.80792-.11975-1.62573-.24921-2.42383.10864.0785.21741.157.337.23383.63-.34,1.26995-.68,1.9-1.03a1.31571,1.31571,0,0,0,.51-.39,1.41935,1.41935,0,0,0,.17-.84,15.34469,15.34469,0,0,1,.23-3.1c1.2-6.73,3.70221-16.36,5.43219-22.97a309.51044,309.51044,0,0,0,6.39-31.97,103.37152,103.37152,0,0,0,3.61-11.66c.72-2.87,1.31-5.78,2.09-8.64.84-3.11,1.91-6.16,2.98-9.2,1.62-4.62,3.23-9.23,4.85-13.6q.18,12.69.84,25.39a59.97576,59.97576,0,0,1,.08,7.7c-.27,3.55-1.19,7.13-.35,10.03-1.43,6.92-2.87,13.93-2.54,20.99.15,3.08.64,6.14.88,9.22.66,8.36-.46,16.77.25,25.23.35413.15.71491.27552,1.07867.39a29.40307,29.40307,0,0,0,.00135,9.72,18.40429,18.40429,0,0,0-.03,2.1,28.982,28.982,0,0,0,9.7-.02,28.91746,28.91746,0,0,0,18.42,1.97,6.26756,6.26756,0,0,0,2.27-.87,2.50268,2.50268,0,0,0,1.16-2.03,3.23082,3.23082,0,0,0-1.54-2.32c-4.07-2.99-10.16-2.68-13.54-6.43-.54-.6-.99-1.3-1.55-1.91a.56986.56986,0,0,1-.01.13,16.46527,16.46527,0,0,0-.38-4.52c-1.33-8.64.97-17.36,1.93-26.05.63-5.64.69-11.32.84-17.43a39.8438,39.8438,0,0,0,2.95-12c1.14-8.84,2.27-17.68,3.32-26.53,1.22045-10.4074,2.29736-21.0072,1.67395-31.4154.02044.332.04889.6629.066.99542a2.63057,2.63057,0,0,0,.15-.35c.35278-.91443.66345-1.84485.97742-2.77393-.12885.38367-.24085.77289-.37744,1.15393l6.46,12.52a5.026,5.026,0,1,0,8.33,5.03l15.12-.21a5.02575,5.02575,0,1,0,7.2-5.68l6.47-30.93a5.01892,5.01892,0,0,0,5.03-5.02,4.88859,4.88859,0,0,0-.23-1.49l25.94-15.87a5.0745,5.0745,0,0,0,3.67,1.58,4.97206,4.97206,0,0,0,3.66-1.59l18.64,10.67a4.418,4.418,0,0,0-.13,1.1,5.03,5.03,0,1,0,7.53-4.36l10.03-33.04a1.22832,1.22832,0,0,0,.28.02,5.03,5.03,0,0,0,0-10.06Zm-172.78,200.12-.01038-.00855.01233.00855Zm43.29-195.36c-.09-.04-.18-.09-.27-.13.092.04254.17895.0871.27014.13Zm.011.00666-.00018-.00153q.69186.32565,1.35632.661Q252.37755,120.39025,251.68654,120.06383Zm-88.581,183.0133a9.6527,9.6527,0,0,0-.63-5.88q-.31494-16.575-.61-33.15a115.03,115.03,0,0,0-.88-14.31c.07-3.36-.02-6.73.04-9.81.74-15.56,1.14-31.14,1.02-46.67-.2.07-.41.13-.61.18005a27.97621,27.97621,0,0,0,10.19-5.15,1.70861,1.70861,0,0,0,.65-.79,1.676,1.676,0,0,0-.21-1.13,51.861,51.861,0,0,0-6.02-10.31,2.63067,2.63067,0,0,0-.3-.52c-.38971-.55963-.77948-1.12921-1.18914-1.69879a7.08815,7.08815,0,0,0,1.49176.124,3.71517,3.71517,0,0,0,2.87542-1.33448,10.21547,10.21547,0,0,0,.91114-1.96588,5.94589,5.94589,0,0,1,.58258-1.00342,2.7636,2.7636,0,0,0,2.44824.78852c6.33-5.67,12.75-11.44,17.36-18.93a34.378,34.378,0,0,0,2.84-6.49,11.87664,11.87664,0,0,0-1.2-6c-.82-1.49-2.16-2.69-3.15-4.3.01-1.7-1.34-3.06-2.56-4.25a52.24521,52.24521,0,0,1-8.06-9.57,34.52851,34.52851,0,0,1-2.33-4.37c-1.01-2.24-1.8-4.62-3.38-6.49-1.58-1.88-4.23-3.13-6.25-2.17a19.70526,19.70526,0,0,0-6.27-1.94,12.44565,12.44565,0,0,1-5.2973-1.37946l3.723-3.70227a4.97766,4.97766,0,0,0,2.9389.94751,5.05168,5.05168,0,0,0,3.85431-1.78265l6.84943,3.79816a4.85947,4.85947,0,0,0-.09638.97155,5.04673,5.04673,0,1,0,7.813-4.21563L187.68032,71.089h.04815a5.03889,5.03889,0,0,0,4.91425-3.91052l17.12756.2489a5.06017,5.06017,0,1,0-.08032-2.41693l-17.08734-.2409a5.0436,5.0436,0,1,0-7.259,5.71722l-7.96558,29.27655a4.90066,4.90066,0,0,0-.48981-.02405,5.0248,5.0248,0,0,0-3.93457,1.895l-6.80121-3.774a4.96835,4.96835,0,0,0,.12037-1.1001,5.04673,5.04673,0,1,0-10.09345,0,4.94729,4.94729,0,0,0,.538,2.25635l-3.31488,3.29675a2.39653,2.39653,0,0,0-1.567-1.09619,3.70525,3.70525,0,0,0-1.47.19c-1.0398.28-2.0896.55994-3.13947.84985a33.66523,33.66523,0,0,1-.63635-5.21142c5.3277-1.80133,8.90662-6.9997,11.9458-11.8584a3.16264,3.16264,0,0,0,.58-1.41c.04-.98-.81-1.71-1.35-2.52a11.92606,11.92606,0,0,1-1.34-4.22,17.70476,17.70476,0,0,0-16.79-13.29c-2.7.00995-5.61.6-7.94-.77-.56-.32-1.22-.77-1.79-.46-.8.43-.36,1.63-.32,2.54.05,1.02-.56,1.95-.81,2.95a5.0577,5.0577,0,0,0,.4812,3.48535l-.01843.00952a1.464,1.464,0,0,0-.621,1.65124,12.93109,12.93109,0,0,0-2.529,3.59088,4.08486,4.08486,0,0,0-.01148,3.52723c-1.61664,2.15387-3.28741,4.435-3.65124,7.10339a14.90508,14.90508,0,0,0,.09271,3.69171q.24207,2.12732.56183,4.24487a6.09568,6.09568,0,0,0,.78247,2.5279c1.06836,1.59521,3.27466,1.85553,5.11584,1.41052a22.90157,22.90157,0,0,1-.19494,4.17175,24.92672,24.92672,0,0,0-2.75794-1.16436,2.1025,2.1025,0,0,0-.82-.16,2.203,2.203,0,0,0-.95.4,34.6,34.6,0,0,0-3.25,2.29c-.05.04-.09.07-.14.11a2.79063,2.79063,0,0,0-1.85-.92,2.34022,2.34022,0,0,0-1.18.6c-1.18.95-2.34,1.94-3.46,2.97a1.71709,1.71709,0,0,0-1.88-.24,5.88241,5.88241,0,0,0-1.56,1.12c-1.13,1.04-2.27,2.09-3.4,3.13-.38995-1.29,0-2.51-.48-3.5a2.38581,2.38581,0,0,0-.79-.88q.02994.66.09,1.32a17.16525,17.16525,0,0,1,.16-5.15c.43-1.16,1.43-2.05,1.87-3.21a4.94568,4.94568,0,0,0,.07-2.95c0-.01-.01-.03-.01-.04a29.5859,29.5859,0,0,0,1.16-4.63,7.40609,7.40609,0,0,0-.08-3.28,7.87425,7.87425,0,0,0-1.87-2.88c-1.88-2.03-4.18-3.9-4.98-6.55-.2-.66-.38-1.46-1.03-1.71-.81-.31-1.64.6-1.71,1.48a4.39385,4.39385,0,0,0,.15539,1.383,1.82671,1.82671,0,0,0-.6665.08471,1.90818,1.90818,0,0,0-1.10657.481L97.265,80.2625a1.27737,1.27737,0,0,0,.26056.06463.94407.94407,0,0,0,1.05-.61,1.47041,1.47041,0,0,0-.49-1.19q-.99-1.16994-1.98-2.34a1.85724,1.85724,0,0,0-1.26-.84,1.5539,1.5539,0,0,0-1.13849.64575l-4.52148-5.42572-1.28-1.54-1.49-1.78a1.33936,1.33936,0,0,0-1.02-.48005,1.31249,1.31249,0,0,0-.85.31,1.33054,1.33054,0,0,0-.17,1.87l1.49,1.78,1.28,1.54,4.868,5.83716a3.76789,3.76789,0,0,0-.818,1.74286,4.23371,4.23371,0,0,0,.3,1.71,15.00308,15.00308,0,0,0,1.85,4.09,3.648,3.648,0,0,0-.88,2.36,7.21289,7.21289,0,0,1,0,1.04c-.07995.68-.51995,1.29-.57995,1.98a3.58507,3.58507,0,0,0,.76,2.11,57.94921,57.94921,0,0,0,5.26,7.03,1.40458,1.40458,0,0,1,.38.64,1.42313,1.42313,0,0,1-.12.7c-.71,2.01-1.43,4.02-2.06,5.91.17-.5.34-1.01.52-1.53a10.33264,10.33264,0,0,0-1.91.27,261.10074,261.10074,0,0,0-8.75994,26.09,21.65375,21.65375,0,0,0-2.61005,4.09,4.19557,4.19557,0,0,0-.65,2.31c.13,1.27,1.26995,2.15,1.99,3.2.39617.58216.67871,1.23389,1.02453,1.84888l-2.05572,2.78467a5.04045,5.04045,0,0,0-7.275,3.501l-6.96991-.0401a5.04084,5.04084,0,0,0-8.45532-2.60168l-18.059-12.82355a4.90527,4.90527,0,0,0,.52191-2.2243,5.04672,5.04672,0,1,0-10.09344,0,4.97536,4.97536,0,0,0,1.68628,3.74994L25.334,156.99168a5.02694,5.02694,0,0,0-5.661,5.01062,4.76648,4.76648,0,0,0,.265,1.5979L8.64809,171.31688a4.98091,4.98091,0,0,0-3.59729-1.51764A5.04672,5.04672,0,1,0,10.09346,174.85a4.82408,4.82408,0,0,0-.21679-1.45343l11.35412-7.75671a5.04384,5.04384,0,1,0,6.35962-7.78894l9.54737-20.6767a4.83534,4.83534,0,0,0,1.23663.16058,4.93212,4.93212,0,0,0,2.971-.97162l18.332,13.02436a4.89971,4.89971,0,0,0-.257,1.57379,5.04407,5.04407,0,0,0,9.8927,1.38922l7.17865.04016a5.04624,5.04624,0,1,0,8.97729-4.32007l1.84534-2.49811c.50354.4217,1.04962.80207,1.59113,1.17469a10.69541,10.69541,0,0,0,2.14,1.25,7.22974,7.22974,0,0,0,3.1.42,22.26679,22.26679,0,0,0,7.74-2.44,10.83152,10.83152,0,0,0,6.07995-2.53,424.92392,424.92392,0,0,1-8.00994,47.63,1.08666,1.08666,0,0,0-.01.69,1.03946,1.03946,0,0,0,.38.4,9.29275,9.29275,0,0,0,5.72009,1.31757c.06525,10.3067.61969,20.60821,1.57715,30.77362-8.99512-2.43244-21.57324-3.94605-35.50421-3.94605-27.33813,0-49.5,5.82025-49.5,13l-.00305.00488v15.25a4.05173,4.05173,0,0,0,.05.6c.32,1.82,2.06,3.55,4.95,5.1v11.8a4.05173,4.05173,0,0,0,.05.6c.00244.01385.00848.0274.011.04126-.00268-.01453-.00982-.02869-.01233-.04321a4.044,4.044,0,0,1-.05-.6v-3.84c-5.06,2.04-8,4.48-8,7.09l.00134.01392v15.23809a4.05173,4.05173,0,0,0,.05.6,6.55272,6.55272,0,0,0,2.95,3.87v14.53a4.05173,4.05173,0,0,0,.05.6c1.19,6.9,22.88,12.4,49.45,12.4,17.8753,0,33.52331-2.4895,42.22455-6.2174a10.23957,10.23957,0,0,0,.8952.58795,8.83243,8.83243,0,0,1-2.09973,2.97943,37.80192,37.80192,0,0,1-4.15,3.16,39.752,39.752,0,0,0-4.63,3.97,3.56093,3.56093,0,0,0-1.17,1.89,1.56255,1.56255,0,0,0-.02.31c.05,1.07995,1.13,1.81,2.13,2.24a17.62845,17.62845,0,0,0,11.52.51,28.13976,28.13976,0,0,0,10.12-5.53,13.60565,13.60565,0,0,0,4.88-.44,2.93166,2.93166,0,0,0,1.08-.48,2.23888,2.23888,0,0,0,.75-1.48,5.29964,5.29964,0,0,0-.16-1.81c.01-.2.01-.4.02-.6.05-1.58.11-3.15.15-4.72a3.44844,3.44844,0,0,0-.22919-1.74786,3.03108,3.03108,0,0,0,1.1792-1.83216,3.679,3.679,0,0,0-.27-1.52,55.6739,55.6739,0,0,1-2.11005-9,235.03411,235.03411,0,0,0,.07-37.53,28.04656,28.04656,0,0,1,.98-8.81,13.77,13.77,0,0,0,.73-2.73c.22-2.26-1.15-4.38995-.87-7.26a82.6391,82.6391,0,0,1,2.09-21.76c.9,3.21,1.59,6.48,2.27,9.72a120.17736,120.17736,0,0,0,2.24,17.73c.3,1.76-.01,3.61.53,5.31.47,1.48,1.57,2.79,1.35,4.29.85,14.37,1.13,28.77.99,42.78a16.76314,16.76314,0,0,1-.92,4.1,6.6014,6.6014,0,0,0-.12,4.14,7.88835,7.88835,0,0,0,1.2,1.93c.92,1.18,1.84,2.37,3.03,3.82q.33728-.316.684-.63055-.28491.25863-.564.52051a48.01138,48.01138,0,0,0-3.16,9.34,9.74005,9.74005,0,0,0-.21,1.18,3.28289,3.28289,0,0,0,.17,1.53,3.80253,3.80253,0,0,0,2.11005,1.86c2.41,1.07,5.16,1.03,7.8.86,2.37-.16,5.05-.58,6.4-2.54a5.106,5.106,0,0,0,.71-1.64,14.56971,14.56971,0,0,0,.35-2.37c.16-1.74.31-3.48.47-5.23a9.30417,9.30417,0,0,0-.05-2.98,4.74259,4.74259,0,0,0-.18-.57,1.10178,1.10178,0,0,0-.16.15c1.03-1.14,2.83-1.56,3.47-2.96a4.49785,4.49785,0,0,0,.25-2.19A9.9783,9.9783,0,0,0,163.10555,303.07713Zm-135.24-35.7074c.02832.07435.06805.14771.10107.22162C27.93337,267.51744,27.89406,267.444,27.86556,267.36973Zm.35473.71662c.0412.06915.088.13769.13331.20642C28.308,268.224,28.2618,268.15544,28.22029,268.08635Zm.51441.72223c.04663.05682.09326.11358.14264.17C28.82784,268.9221,28.78145,268.86534,28.7347,268.80858Zm106.70886-51.45514-.00183-.005.00385.00867a.894.894,0,0,1,.01763.08832C135.45455,217.41539,135.4551,217.38274,135.44356,217.35344ZM170.8669,169.0963a5.90764,5.90764,0,0,1,.46845-.46094,4.52815,4.52815,0,0,0-.04395-.64423,4.51934,4.51934,0,0,1,.04419.646A5.29009,5.29009,0,0,0,170.8669,169.0963Zm-7.09131-16.58917a71.69876,71.69876,0,0,0,1.76-13.33c2.72,2.18,5.56,4.22,8.13,6.25-.73,1.05-1.49,2.35-1.04,3.35q-4.155,5.07-8.13,10.25a.6103.6103,0,0,0-.07.87q.477.81976.95391,1.63953a17.69537,17.69537,0,0,1-1.66815,2.6726,2.51029,2.51029,0,0,0-.86468-.24945c-.10327-.03814-.20789-.07568-.31134-.11364a26.2051,26.2051,0,0,0-1.78974-5.109C162.66555,157.34715,163.29555,154.82713,163.77559,152.50713ZM30.1418,40.96007V41.29a9.22265,9.22265,0,0,0,9.22,9.22h80.57a7.21465,7.21465,0,0,0,7.21-7.22v-35.91a7.21255,7.21255,0,0,0-7.21-7.21h-2M117.93.17H35.35982a5.21493,5.21493,0,0,0-5.215,5.2149V40.95506m215.60528-.165v.33a9.22265,9.22265,0,0,0,9.22,9.22h80.57a7.21465,7.21465,0,0,0,7.21-7.22V7.21a7.21256,7.21256,0,0,0-7.21-7.21h-2m-.00189,0H250.9681a5.2149,5.2149,0,0,0-5.21491,5.215V40.785" fill="#4833da"/></g><g id="change2_1"><path d="M260.67554,225.01713c-1.05,8.85-2.18,17.69-3.32,26.53a39.844,39.844,0,0,1-2.95,12c-.15,6.11-.21,11.79-.84,17.43-.96,8.69-3.26,17.41-1.93,26.05a16.46527,16.46527,0,0,1,.38,4.52,2.874,2.874,0,0,0-2.04-.57,16.29972,16.29972,0,0,0-1.91.61,8.77528,8.77528,0,0,1-1.92.24c-3.4.17-6.95.32-10.09-1.01-.71-8.46.41-16.87006-.25-25.23-.24-3.08-.73-6.14-.88-9.22-.33-7.06,1.11-14.07,2.54-20.99-.84-2.9.08-6.48.35-10.03a59.97574,59.97574,0,0,0-.08-7.7q-.66-12.68994-.84-25.39c-1.62,4.37006-3.23,8.98-4.85,13.6-1.07,3.04-2.14,6.09-2.98,9.2-.78,2.86-1.37,5.77-2.09,8.63995a103.37314,103.37314,0,0,1-3.61,11.66,309.5131,309.5131,0,0,1-6.39,31.97c-1.73,6.61005-4.23216,16.24-5.43217,22.97a15.34469,15.34469,0,0,0-.23,3.1,1.41932,1.41932,0,0,1-.17.84,1.31563,1.31563,0,0,1-.51.39c-.63.35-1.27.69-1.9,1.03a10.67669,10.67669,0,0,1-2.57-2.54,4.79685,4.79685,0,0,0-2.57-1.81,5.08885,5.08885,0,0,0-1.98.09,28.76693,28.76693,0,0,0-4.99,1.43994,3.04922,3.04922,0,0,1-1.06-3.09c.25-2.58,1.32218-8.19,1.83219-10.74,3.07-15.12,3.08-30.91,8.13-45.49-1.23-2.32-1.06-5.57995-.86-8.63995,1.07-16.02,2.16-32.19,6.17-47.71a1.5564,1.5564,0,0,0,.83-.33c.47-.37.8-.89,1.27-1.25a7.50751,7.50751,0,0,1,2.55-.93,13.02014,13.02014,0,0,0,4.14-2.42,147.68659,147.68659,0,0,0,15.21-14.39,25.96693,25.96693,0,0,0,4.17-5.16,80.59088,80.59088,0,0,1,13.44-1.28,6.37045,6.37045,0,0,1,3.28.46,3.69669,3.69669,0,0,0,1.42.63995,1.46446,1.46446,0,0,0,.65-.13995,30.9844,30.9844,0,0,1,2.22,6.08C264.01556,193.54716,262.49554,209.49717,260.67554,225.01713ZM35.35981,46.17h82.57012a5.21493,5.21493,0,0,0,5.21494-5.21493V5.385A5.21494,5.21494,0,0,0,117.92993.17H35.35981A5.21494,5.21494,0,0,0,30.14487,5.385V40.95508A5.21493,5.21493,0,0,0,35.35981,46.17ZM250.96811,46h82.57012a5.21494,5.21494,0,0,0,5.21494-5.21494V5.21494A5.21494,5.21494,0,0,0,333.53823,0H250.96811a5.21494,5.21494,0,0,0-5.21494,5.21494V40.78506A5.21494,5.21494,0,0,0,250.96811,46Z" fill="#f2a7c8"/></g><g id="change3_1"><path d="M219.671,66.0463a5.04733,5.04733,0,0,1-9.9007,1.38115l-17.12755-.24893A5.03889,5.03889,0,0,1,187.7285,71.089h-.04818l-8.02979,29.48536a5.04344,5.04344,0,1,1-7.813,4.21564,4.86071,4.86071,0,0,1,.09641-.97157l-6.84944-3.79812a5.05159,5.05159,0,0,1-3.85429,1.78264,4.97782,4.97782,0,0,1-2.93893-.94751l-10.08541,10.0292a5.04762,5.04762,0,1,1-9.18609,3.75793l-16.6056-.0321a5.04445,5.04445,0,0,1-8.43128,2.65786l-7.94142,5.59674a5.04036,5.04036,0,0,1-6.79322,6.55234L85.46909,148.07062a5.04627,5.04627,0,1,1-8.9773,4.32l-7.17863-.04014a5.04408,5.04408,0,0,1-9.89271-1.38919,4.8992,4.8992,0,0,1,.257-1.57381l-18.332-13.02434a4.93244,4.93244,0,0,1-2.971.97162,4.83444,4.83444,0,0,1-1.23662-.16061L27.5904,157.8509a5.044,5.044,0,1,1-6.35963,7.78891L9.87668,173.39657a4.824,4.824,0,0,1,.21677,1.45339,5.04673,5.04673,0,1,1-5.04268-5.05072,4.981,4.981,0,0,1,3.59733,1.51764L19.938,163.60021a4.76666,4.76666,0,0,1-.265-1.59792,5.02666,5.02666,0,0,1,5.661-5.01058l9.67589-20.9497a4.97543,4.97543,0,0,1-1.68629-3.74994,5.04673,5.04673,0,1,1,10.09345,0,4.90568,4.90568,0,0,1-.5219,2.22426l18.059,12.82356a5.04089,5.04089,0,0,1,8.45534,2.60169l6.9699.04014a5.04046,5.04046,0,0,1,7.275-3.501l13.72288-18.589a4.94722,4.94722,0,0,1-1.0198-3.02725,5.05474,5.05474,0,0,1,5.05077-5.05072A4.9986,4.9986,0,0,1,104.58,120.946l8.102-5.70917a5.04474,5.04474,0,1,1,9.61972-3.03524l16.81434.03211a5.04844,5.04844,0,0,1,4.85-3.66159,4.97574,4.97574,0,0,1,2.48118.65845l10.27013-10.21392a4.94762,4.94762,0,0,1-.538-2.25637,5.04673,5.04673,0,1,1,10.09345,0,4.96745,4.96745,0,0,1-.12041,1.10008l6.80121,3.774a5.02494,5.02494,0,0,1,3.93461-1.895,4.88971,4.88971,0,0,1,.48981.02407l7.96554-29.27659a5.04347,5.04347,0,1,1,7.259-5.7172l17.08737.24088a5.04352,5.04352,0,0,1,9.981,1.03583ZM148.42554,177.20713a.885.885,0,0,1-.51-.03.72583.72583,0,0,1-.35-.71,3.40441,3.40441,0,0,1,.36-1,3.1189,3.1189,0,0,1-1.15.79,1.044,1.044,0,0,1-1.22-.42,1.42842,1.42842,0,0,1,.08-1.14,15.44758,15.44758,0,0,1,1.37-2.8c-.19-.52-.38-1.03-.56-1.55a19.98065,19.98065,0,0,1-2.23,1.64c-.46.3-1.11.56-1.52.19a.87817.87817,0,0,1-.19-.92005,2.45953,2.45953,0,0,1,.52-.84c.8-.97,1.62-1.93,2.51-2.88-.06-.22-.13-.43-.19-.66a4.53646,4.53646,0,0,1-1.27.09.98477.98477,0,0,1-.48-.13.85335.85335,0,0,1-.18-1.13,2.587,2.587,0,0,1,.95-.81c.14-.08.27-.16.41-.24a56.045,56.045,0,0,1-1.3-18.07c.21-8.81.33-17.6,1.22-26.33.37-3.71.8-7.81994-1.31-10.87994a35.43192,35.43192,0,0,1-11.1,5.61,5.01447,5.01447,0,0,1-3.31.04,3.71136,3.71136,0,0,1-1.95-3.12c-.43005-.15-.87005-.32-1.31005-.48-.02-.01-.03-.01-.05-.02-1.53,3.51-1.88,7.4-2.06,11.22-.48,9.99.09,20.05-.72,29.45-.41,8.89-1.11,17.82-3.16,26.46a96.4312,96.4312,0,0,0,15.15,1.64,30.80547,30.80547,0,0,0,7.31-.47,30.34,30.34,0,0,0,6.84-2.55c-.01-.04-.03-.07-.04-.11A2.748,2.748,0,0,1,148.42554,177.20713Zm-1.11-1.23c.14-.01.27-.02.4-.03.05-.12994.13-.29.21-.48A4.2327,4.2327,0,0,1,147.31555,175.97715Zm-58.13-105.41-1.28-1.54-1.49-1.78a1.33938,1.33938,0,0,0-1.02-.48,1.31249,1.31249,0,0,0-.85.31,1.33053,1.33053,0,0,0-.17,1.87l1.49,1.78,1.28,1.54,10.94995,13.13,2.04-1.69Zm46.258,146.78626-.02008-.054c-3.28637-9.70691-3.799-20.03369-6.20447-29.95251-.218-.73236-.00122-1.4311-.37377-2.15137a.57858.57858,0,0,0-.97913.40552,52.63206,52.63206,0,0,0,1.199,7.06958c.55121,2.98224.98273,5.98492,1.42518,8.98468a101.7445,101.7445,0,0,0,2.678,13.04339c.33068,1.09064.60137,2.20624,1.03143,3.26313a.69692.69692,0,0,0,1.29864-.35175A.66686.66686,0,0,0,135.44354,217.35344Zm-13.07672,41.74108c-.10876-.00927-.38165-.03564-.47265-.04193-.02039-.00366-.041-.00641-.06122-.01049a1.858,1.858,0,0,1-.30042-.09784c-.36767-.22034-.13482-.056-.54107-.42145-2.16419-2.40454-3.60285-4.533-5.65363-7.23944-.40656-.49445-.64331-1.12928-1.05676-1.60114a.68613.68613,0,0,0-1.008.885,84.76825,84.76825,0,0,0,5.30792,7.27362,9.73456,9.73456,0,0,0,2.2251,2.29755,2.49285,2.49285,0,0,0,1.74689.25659A.6827.6827,0,0,0,122.36682,259.09452Zm0,0c-.10876-.00927-.38165-.03564-.47265-.04193-.02039-.00366-.041-.00641-.06122-.01049a1.858,1.858,0,0,1-.30042-.09784c-.36767-.22034-.13482-.056-.54107-.42145-2.16419-2.40454-3.60285-4.533-5.65363-7.23944-.40656-.49445-.64331-1.12928-1.05676-1.60114a.68613.68613,0,0,0-1.008.885,84.76825,84.76825,0,0,0,5.30792,7.27362,9.73456,9.73456,0,0,0,2.2251,2.29755,2.49285,2.49285,0,0,0,1.74689.25659A.6827.6827,0,0,0,122.36682,259.09452Zm25.30127-.67089c-.74792-1.53-1.613-2.99836-2.44556-4.48285-.46313-.70569-.74066-1.56006-1.24823-2.21692a.66112.66112,0,0,0-.97131.85272c.95484,2.01544,2.52783,4.6178,3.43689,6.48279-.50464-.17706-1.147-.32184-1.34167.34131-.16877.6156.45037.90924.95428,1.00348a4.974,4.974,0,0,0,1.66522.24987C148.79077,260.2783,147.956,259.09941,147.66809,258.42363Zm-15.657,45.21362c-.4242-.60193-1.31037-.34351-1.93079-.27649-2.41791.48993-5.272,1.70172-6.40454,1.04083a1.2487,1.2487,0,0,1,.14325-.69623c1.18927-1.698,4.29364-3.63885,6.0846-5.64239a5.51778,5.51778,0,0,0,1.18292-1.77167.69828.69828,0,0,0-1.28913-.44537c-1.36749,2.51666-5.10522,4.38653-7.13671,7.061-.83558,1.44934-.35407,2.95929,1.45324,3.04975,1.76355.17327,3.44538-.55457,5.1286-.9668a7.1069,7.1069,0,0,1,1.80628-.33661c.06256.00049.1051.00189.13727.0033a.64848.64848,0,0,0,.31475.01916A.697.697,0,0,0,132.01111,303.63725Zm-15.5058-11.04047a18.4018,18.4018,0,0,0-1.20953,3.15851,8.66383,8.66383,0,0,0-.45569,1.9068.69828.69828,0,0,0,1.3595.09283,26.87251,26.87251,0,0,1,1.59484-4.71276A.6982.6982,0,0,0,116.50531,292.59678Zm45.11462,8.22913c-2.05981,1.183-4.17919,2.24707-6.3396,3.23321a4.82237,4.82237,0,0,0-1.73742,1.09192,1.09878,1.09878,0,0,0,.19073,1.3548c1.24353.96,2.95685.35223,4.39417.36353a7.09475,7.09475,0,0,1,1.9682.14239c.54748.11054,1.16284.36182,1.33423-.564-.15491-.82251-.59015-.64557-1.34345-.84943-1.5553-.36353-3.56238.14947-4.85705.02374,1.37152-.76031,2.81726-1.38574,4.17975-2.16443.93-.54681,1.84918-1.11187,2.78613-1.64685a.57041.57041,0,1,0-.57569-.98492Zm-1.11438,11.64123a4.743,4.743,0,0,0-.18-.57,1.10174,1.10174,0,0,0-.16.15,34.6262,34.6262,0,0,0-4.36-2.43,7.90646,7.90646,0,0,0-4.57-.53c-2.08.45-3.76,1.91-5.32,3.37a48.01148,48.01148,0,0,0-3.16,9.34,9.74024,9.74024,0,0,0-.21,1.18,3.28274,3.28274,0,0,0,.17,1.53,3.80249,3.80249,0,0,0,2.11,1.86005c2.41,1.07,5.16,1.03,7.8.86,2.37-.16,5.05-.58,6.4-2.54a5.106,5.106,0,0,0,.71-1.64,14.56987,14.56987,0,0,0,.35-2.37c.16-1.74.31-3.48005.47-5.23005A9.30417,9.30417,0,0,0,160.50555,312.46714Zm-26.85-1.53a3.44372,3.44372,0,0,0-.23-1.75c-.01.01995-.03.03-.04.04a10.30605,10.30605,0,0,1-4.24,2.16c-2.49-.2-4.47-2.07-6.85-2.69a7.0325,7.0325,0,0,0-7.03,2.26c-.01-.01-.02-.01-.03-.01995a8.83224,8.83224,0,0,1-2.1,2.98,37.80192,37.80192,0,0,1-4.15,3.16,39.752,39.752,0,0,0-4.63,3.97,3.56089,3.56089,0,0,0-1.17,1.89,1.5625,1.5625,0,0,0-.02.31c.05,1.08,1.13,1.81,2.13,2.24a17.62832,17.62832,0,0,0,11.52.51,28.13961,28.13961,0,0,0,10.12-5.53,13.60564,13.60564,0,0,0,4.88-.44,2.93166,2.93166,0,0,0,1.08-.48,2.23891,2.23891,0,0,0,.75-1.48,5.29945,5.29945,0,0,0-.16-1.81006c.01-.2.01-.4.02-.6C133.55554,314.07713,133.61554,312.50712,133.65552,310.93718Zm140.27-154.87a13.29612,13.29612,0,0,0-1.26-5.88c-1.07-2.07-2.95-3.63-4.04-5.69a17.48862,17.48862,0,0,1-1.35-3.88c-.72-2.72-1.43-5.44-2.15-8.16-.63-2.38995-1.41-4.98-3.37-6.42a1.08164,1.08164,0,0,0-.39-.51,17.5102,17.5102,0,0,0-3.05-1.98c-2.22-1.23-4.43-2.46-6.91-3.62a2.20888,2.20888,0,0,0-.6-1.88,6.8011,6.8011,0,0,0-1.64-1.22c-1.01-.59-2.01-1.18-3.01-1.77-.74-.44-1.49-.88-2.27-1.26l-.03.3c.56,1.93,1.13,3.87,1.79,5.57.34,1.3.68,2.6.96,3.62a41.34331,41.34331,0,0,1-1.19,6.12,5.11075,5.11075,0,0,1-.82,1.88,5.37634,5.37634,0,0,1-3.29,1.47,19.18256,19.18256,0,0,1-4.46.5,6.44239,6.44239,0,0,1-4.12-1.55c-1.48-1.38-1.94-3.55-3.05-5.47a40.01231,40.01231,0,0,0,1.28-5.95c-.95-2.46-1.91-4.93-2.71-7.4.3-.34.58-.68.85-1.04a70.18764,70.18764,0,0,0-6.99,1.51c-.1.78-.2,1.57-.25,2.39a38.75835,38.75835,0,0,1-9.14,3.31,4.97561,4.97561,0,0,0-1.52.52,3.98687,3.98687,0,0,0-1.1,1.21c-4.91,7.31-4.58,16.85-7.35,25.21a58.92862,58.92862,0,0,0-2.31,7.11,25.54725,25.54725,0,0,0-.3,5.99,8.39381,8.39381,0,0,0,.51,2.99,8.88759,8.88759,0,0,0,1.13995,1.79,22.09812,22.09812,0,0,0,2.45,2.9,9.22,9.22,0,0,0,3.55,2.66c2.18.73,4.55-.13,6.92005-1.04q-.6,2.715-1.06,5.46a2.59439,2.59439,0,0,0-.04,1c.19.91,1.25,1.41,1.93,2.51a30.982,30.982,0,0,1-4.32,7.37,6.21763,6.21763,0,0,0-.91,1.36,5.59368,5.59368,0,0,0-.32,2.04q-.13494,3.75-.27,7.51a1.68629,1.68629,0,0,0,.32,1.29,1.28959,1.28959,0,0,0,1.63-.1c.47-.37.8-.89,1.27-1.25a7.50751,7.50751,0,0,1,2.55-.93,13.02014,13.02014,0,0,0,4.14-2.42,147.68659,147.68659,0,0,0,15.21-14.39,25.96693,25.96693,0,0,0,4.17-5.16,80.59088,80.59088,0,0,1,13.44-1.28,14.8128,14.8128,0,0,1,1.49,0c.16.01.32.03.48.05.13.02.25.04.37.07a3.68483,3.68483,0,0,1,.54.16,2.87341,2.87341,0,0,1,.4.18,3.69669,3.69669,0,0,0,1.42.63995,1.46446,1.46446,0,0,0,.65-.13995,30.9844,30.9844,0,0,1,2.22,6.08q.615,2.295,1.05,4.62006a16.79226,16.79226,0,0,0,5.66,4.24,24.14088,24.14088,0,0,0,2.72-3.80005,6.88165,6.88165,0,0,0,.99-2.55,8.03445,8.03445,0,0,0-.9-4.01C271.59552,170.24717,274.10553,163.27714,273.92554,156.06718Z" fill="#259c66"/></g><g id="change4_1"><path d="M365.06055,288.06714c0,7.18-22.16,13-49.5,13-26.33,0-47.88-5.4-49.41-12.22,7,4.95,25.14,8.47,46.41,8.47,26.58,0,48.26-5.5,49.45-12.4a4.04366,4.04366,0,0,0,.05-.6v-.72C364.00055,284.98712,365.06055,286.49713,365.06055,288.06714Zm-44.5-9.25c-26.57,0-48.26-5.5-49.44995-12.4a4.04376,4.04376,0,0,1-.05-.6v-3.84c-5.06,2.04-8,4.48-8,7.09,0,7.18,22.17,13,49.5,13,20.08,0,37.36-3.14,45.13-7.65C348.62054,277.11712,335.35059,278.81714,320.56055,278.81714Zm44.5-33.95v3.45a4.04366,4.04366,0,0,1-.05.6c-1.19,6.9-22.87,12.4-49.45,12.4-16.48,0-31.08-2.12-40.07-5.37,7.8,4.5,25.05005,7.62,45.07,7.62,27.34,0,49.5-5.82,49.5-13C370.06055,248.52716,368.26056,246.58716,365.06055,244.86712Zm-49.4956,1.19714c27.3381,0,49.5-5.8203,49.5-13s-22.1619-13-49.5-13-49.5,5.8203-49.5,13S288.22686,246.06426,315.565,246.06426ZM118.61554,283.84715v.72a4.05185,4.05185,0,0,1-.05.6,4.12877,4.12877,0,0,1-.61,1.53,4.02327,4.02327,0,0,1-.25.37006c-.05.07-.1.12994-.15.18994a1.18833,1.18833,0,0,1-.15.18006c-.1.12-.22.25-.34.37-.11.12-.24.24-.37.36-.15.14-.31.28-.48.41l-.15.12c-.2.16-.41.31-.63.47-.41.28-.87.57-1.36.85-.12.07-.25.14-.39.22-.4.21-.84.43-1.29.64-.28.13995-.57.27-.87.4a47.14625,47.14625,0,0,1-5.22,1.87c-.43.13-.86.26-1.31.38-2.12.58-4.44,1.12-6.95,1.59-.47.09-.95.18-1.44.26-.44.07995-.88.16-1.33.23-.37005.06-.74.12-1.12005.18-3.37.52-7,.94-10.81995,1.24-.72.05-1.44.11-2.18005.15-.75.05-1.50995.1-2.27.14-1.31.07-2.65.12-3.99.16-.53.02-1.05005.03-1.59.04q-.855.03-1.71.03c-.81995.01-1.65.02-2.48.02-21.27,0-39.41-3.52-46.41-8.47,1.53,6.82,23.07995,12.22,49.41,12.22,18.84,0,35.23-2.76,43.59-6.83a11.6411,11.6411,0,0,1,.8-1.89.6984.6984,0,0,1,1.29.44c-.06.13-.11.26-.17.4,2.57-1.57,3.99-3.3,3.99-5.12C121.61554,286.74717,120.55554,285.23716,118.61554,283.84715Zm-41.50134-4.782c-26.57,0-48.26-5.5-49.44995-12.4a4.04376,4.04376,0,0,1-.05-.6v-3.84c-5.06,2.04-8,4.48-8,7.09,0,7.18,22.17,13,49.5,13,20.08,0,37.36-3.14,45.13-7.65C105.17419,277.36516,91.90424,279.06517,77.1142,279.06517Zm38.94134-24.498h-.01a42.96926,42.96926,0,0,1-7.11,2.68994c-.24.07-.48.14-.73.21-.6.17-1.22.33-1.86005.49-.29.08-.58.15-.88.22-1.42.34-2.92.66-4.49.95-1.16.23-2.36.43-3.59.62-.61.1-1.24.19-1.87.28-.57.08-1.15.16-1.74.23-.09.01-.18005.03-.27.04-1.27.16-2.57.3-3.91.44-.59.06-1.19.11-1.8.17-.17.01-.34.02-.51.04-.61.05-1.23.1-1.85.14-.42.03-.85.06-1.28.09-.77.05-1.55.1-2.33.14-.69.04-1.39.07-2.09.1-1.01.04-2.03.07-3.06.1-1.5.03-3.02.05-4.56.05-16.48,0-31.08-2.12006-40.07-5.37006,7.8,4.5,25.05,7.62006,45.07,7.62006,17.4,0,32.7-2.36005,41.52-5.92-.02-.02-.03-.04-.05-.06C117.76556,256.73716,116.89557,255.65715,116.05554,254.56718Zm5.56-9.45v3.45a3.51665,3.51665,0,0,1-.23,1.26,1.19646,1.19646,0,0,1-.11.26,1.64,1.64,0,0,1-.09.19,3.7149,3.7149,0,0,1-.21.39c-.05.08-.11.17-.17.25a3.447,3.447,0,0,1-.24.33c-.07.09-.15.18-.24.28a9.18545,9.18545,0,0,1-1.23,1.15c-.21.16-.43.32995-.66.49-.36.24-.74.49-1.15.73.87,1.18,1.71,2.29,2.67,3.43,4.24-1.91,6.66-4.13995,6.66-6.51C126.61554,248.77714,124.81555,246.83714,121.61554,245.11717ZM72.1186,246.31229c27.3381,0,49.5-5.8203,49.5-13s-22.1619-13-49.5-13-49.5,5.8203-49.5,13S44.78051,246.31229,72.1186,246.31229ZM245.19524,85.69535a4.31649,4.31649,0,0,0-.9382,2.48116,7.78575,7.78575,0,0,1-.58643,2.61872,13.6774,13.6774,0,0,1-2.23879,2.48785,6.21742,6.21742,0,0,0-1.44731,5.08313,2.64124,2.64124,0,0,1,.05422,1.24035c-.12778.39838-.623.7103-.97133.47857a1.09146,1.09146,0,0,1-.341-.78714,6.78745,6.78745,0,0,0-2.03769-3.85088,3.9205,3.9205,0,0,0-1.8291-1.04535,2.15548,2.15548,0,0,0-1.97591.523,2.8723,2.8723,0,0,0-.51933,2.44685,7.90086,7.90086,0,0,0,3.03695,5.07124,7.80168,7.80168,0,0,1-3.32176,3.85441,19.68316,19.68316,0,0,1-3.83034,6.59154c.79878,2.47015,1.75174,4.93469,2.70469,7.39923a39.885,39.885,0,0,1-1.28093,5.95359c1.10921,1.91931,1.57161,4.08338,3.05127,5.46668a6.43612,6.43612,0,0,0,4.12167,1.54824,19.14258,19.14258,0,0,0,4.45766-.49636,5.34732,5.34732,0,0,0,3.29072-1.47364,4.98753,4.98753,0,0,0,.82568-1.884,41.85835,41.85835,0,0,0,1.18463-6.11786c-.279-1.01505-.61768-2.31742-.9564-3.61978-.667-1.69639-1.22818-3.63456-1.78939-5.57273a7.14484,7.14484,0,0,1,1.19465-3.48161,14.85194,14.85194,0,0,0,4.56079-.63328,5.19542,5.19542,0,0,0,2.53518-1.46316,5.71641,5.71641,0,0,0,1.04981-2.81836,29.4843,29.4843,0,0,0,.38026-4.68427c.77566-.14376,1.76936-.67128,1.86457-1.60419a2.42147,2.42147,0,0,0-1.12591-1.93694,12.17061,12.17061,0,0,0-2.38074-1.52229,1.82793,1.82793,0,0,1-.785-.55811,1.481,1.481,0,0,1-.19124-.723c-.11914-1.81115.6109-3.66838.11261-5.41372-.48717-1.70637-2.0191-2.8705-3.45892-3.9078A1.97481,1.97481,0,0,0,245.19524,85.69535Zm15.87031,97.37183a83.958,83.958,0,0,1,1.35,11.53,2.62938,2.62938,0,0,0,.15-.35,70.40627,70.40627,0,0,0,2.49-7.78A21.45493,21.45493,0,0,1,261.06555,183.06718Zm-10.47-45.75a6.08854,6.08854,0,0,0-2.29.05c-2.09.3-4.2.54-6.36.75-.53.06-1.07.12-1.61.17a1.97408,1.97408,0,0,1-.26.07v-.01l.58-3.1a1.98172,1.98172,0,0,0-.34.13,12.27809,12.27809,0,0,0-5.27,4.56,7.04053,7.04053,0,0,0-.71.92,26.88567,26.88567,0,0,0-1.43,2.5,3.60219,3.60219,0,0,1-.73,1.13,3.29931,3.29931,0,0,1-1.12.57c-2.15.77-4.36,1.38995-6.73,2.19a15.6495,15.6495,0,0,1,3.66,10,58.5824,58.5824,0,0,0,8.32-5.93c1.23-.05,2.47-.16,3.7-.32a10.62975,10.62975,0,0,0,3.87-1.04c1.6-.16,3.19-.38,4.78-.66a3.77814,3.77814,0,0,0,1.53-.53,1.20166,1.20166,0,0,0,.48-1.48,2.48471,2.48471,0,0,0,1.08-.86,2.22822,2.22822,0,0,0,.21-.63c.07-.33.13-.65.17-.98a.63667.63667,0,0,0-.02-.31006c-.11-.25-.47-.23-.72-.11-.44.21-.79.59-1.24.78a2.94423,2.94423,0,0,1-1.02.16c-1,.04-2,.05-3.11.01a1.08114,1.08114,0,0,1,.61-.71,3.2846,3.2846,0,0,1,.93-.25c1.16-.18,2.33-.37,3.49-.56a1.53731,1.53731,0,0,0,.96-.38995c.4-.47.11-1.19.19-1.77a3.95416,3.95416,0,0,0-1.78-.29c-1.11,0-2.22-.01-3.32-.01a1.76731,1.76731,0,0,1-.76-.13.54641.54641,0,0,1-.31-.63,21.65572,21.65572,0,0,1,4.32-.31c.56.23,1.12.45,1.67.68.23.08.5.16.68,0a.56173.56173,0,0,0,.15-.36A3.07276,3.07276,0,0,0,250.59552,137.31718Zm-92.83-56.06006a11.926,11.926,0,0,1-1.34-4.22,17.70477,17.70477,0,0,0-16.79-13.29c-2.7.01-5.61.6-7.94-.77-.56-.32-1.22-.77-1.79-.46-.8.43-.36,1.63-.32,2.54.05,1.02-.56,1.95-.81,2.95a5.36638,5.36638,0,0,0,.78,4.05,9.6274,9.6274,0,0,0,.77-1.04c.67-1.02,2.21-.54,3.28-.44a5.50027,5.50027,0,0,1,3.19.98,4.51335,4.51335,0,0,1,1.3,2.65,3.64766,3.64766,0,0,0,.56,1.65,1.04614,1.04614,0,0,0,1.53.2c.13-.15.2-.34.36-.45.43-.25.85.35.98.83a28.69957,28.69957,0,0,1,1,8.3c-.43,1.42-.86,2.71-1.3,4.01-.21.63-.4,1.41.06,1.9a20.74239,20.74239,0,0,1,4.03-3.17,2.4692,2.4692,0,0,1,2.12-.43,1.687,1.687,0,0,1,.77.7,3.21786,3.21786,0,0,1,.11,2.84,8.47089,8.47089,0,0,1-1.67,2.41,32.13836,32.13836,0,0,0-.06,4.05c5.33-1.8,8.91-7,11.95-11.86a3.16268,3.16268,0,0,0,.58-1.41C159.15552,82.79716,158.30554,82.06718,157.76556,81.25712Zm-12.42,85.61c.06.23.13.45.19.67.41-.44.84-.88,1.28-1.32A3.81274,3.81274,0,0,1,145.34552,166.86717Zm7.12-.35a4.62707,4.62707,0,0,0-2.92,1.01,27.23447,27.23447,0,0,0-2.32,2.12c-.25.24-.51.47-.78.7.18.52.37,1.04.56,1.56A15.64806,15.64806,0,0,1,152.46552,166.51713Zm13.58,9.54a2.63067,2.63067,0,0,0-.3-.52c-.39-.56-.78-1.13-1.19-1.7-.58-.1-1.16-.25-1.73-.4-1.96-.53-3.91-1.05-5.57-1.64a6.23679,6.23679,0,0,0-3.66,1.41c-1.06.8-1.96,1.79-2.94,2.69a5.7307,5.7307,0,0,1-1.67,1.15c.66,1.7,1.3,3.4,1.87,5.13.93,2.82,1.66,5.7,2.42,8.57995a4.903,4.903,0,0,0,1.12,2.35,3.816,3.816,0,0,0,2.38.89,13.40693,13.40693,0,0,0,4.66-.56,27.97636,27.97636,0,0,0,10.19-5.15,1.70858,1.70858,0,0,0,.65-.79,1.67593,1.67593,0,0,0-.21-1.13A51.85994,51.85994,0,0,0,166.04553,176.05717Zm25.82-37.03c-.82-1.49-2.16-2.69-3.15-4.3.01-1.7-1.34-3.06-2.56-4.25a52.24515,52.24515,0,0,1-8.06-9.57,34.53047,34.53047,0,0,1-2.33-4.37c-1.01-2.24-1.8-4.62-3.38-6.49-1.58-1.88-4.23-3.13-6.25-2.17a19.705,19.705,0,0,0-6.27-1.94c-1.8-.24006-3.82-.31-5.59-1.56-.02-.01-.04-.03-.06-.04a7.03548,7.03548,0,0,0-.75-1.94,2.4407,2.4407,0,0,0-1.63-1.18,3.70544,3.70544,0,0,0-1.47.19c-1.04.28-2.09.56-3.14.85.19.96.43,1.91.71,2.85a1.10125,1.10125,0,0,1,.07.56,1.05517,1.05517,0,0,1-.44.54c-1.34,1.06-2.71,2.11-4.11,3.12-.02.02-.05.03-.07.05,2.11,3.06,1.68,7.17,1.31,10.87994-.89,8.73-1.01,17.52-1.22,26.33a56.045,56.045,0,0,0,1.3,18.07c1.24-.73,2.5-1.45,3.76-2.14a7.22727,7.22727,0,0,1,1.6-.73,7.73465,7.73465,0,0,1,2.04-.22,18.24494,18.24494,0,0,1,5.52.47c1.6.65,3.23,1.22,4.84,1.81a26.19972,26.19972,0,0,0-1.79-5.11c1.92-1.39,2.55-3.91,3.03-6.23a71.6977,71.6977,0,0,0,1.76-13.32995c2.72,2.18,5.56,4.22,8.13,6.25-.73,1.05-1.49,2.35-1.04,3.35q-4.155,5.07-8.13,10.25a.6103.6103,0,0,0-.07.87l.96,1.65c.16-.33.31-.67.45-1.03a7.05311,7.05311,0,0,1,3.37,3.03c1.09,1.58,2.13995,3.38,2.13,5.09a5.55287,5.55287,0,0,0-.92,1.02,2.76488,2.76488,0,0,0,2.45.79c6.33-5.67,12.75-11.44,17.36-18.93a34.37888,34.37888,0,0,0,2.84-6.49A11.87662,11.87662,0,0,0,191.86554,139.02714Zm-63.07-35.6a24.95891,24.95891,0,0,0-2.77-1.17005,2.10267,2.10267,0,0,0-.82-.16,2.20314,2.20314,0,0,0-.95.4,34.59826,34.59826,0,0,0-3.25,2.29c-.05.04-.09.07-.14.11a2.79069,2.79069,0,0,0-1.85-.92,2.34032,2.34032,0,0,0-1.18.6c-1.18005.95-2.34,1.94-3.46,2.97a1.71709,1.71709,0,0,0-1.88-.24,5.88218,5.88218,0,0,0-1.56,1.12c-1.13,1.04-2.27,2.09-3.4,3.13-.38995-1.29,0-2.51-.48-3.5a2.38574,2.38574,0,0,0-.79-.88q.02994.66.09,1.32a19.90282,19.90282,0,0,1-10.25-1.08c.17-.5.34-1.01.52-1.53a10.33238,10.33238,0,0,0-1.91.27,261.09807,261.09807,0,0,0-8.76,26.09,21.65413,21.65413,0,0,0-2.61005,4.09,4.19565,4.19565,0,0,0-.65,2.31c.13,1.27,1.27,2.15,1.99,3.2.49.72.8,1.55,1.28,2.28a16.13189,16.13189,0,0,0,5.08,3.87,7.22974,7.22974,0,0,0,3.1.42,22.26681,22.26681,0,0,0,7.74-2.44,10.83144,10.83144,0,0,0,6.08-2.53,424.9264,424.9264,0,0,1-8.01,47.63,1.08666,1.08666,0,0,0-.01.69,1.03946,1.03946,0,0,0,.38.4c2.02,1.41,4.68,1.46,7.13,1.23a14.051,14.051,0,0,0,4.21-.93,10.816,10.816,0,0,0,4.77-4.46,25.34862,25.34862,0,0,0,2.43-6.15c2.73-9.66,3.56-19.75,4.02-29.78.81-9.4.24-19.46.72-29.45.18-3.82.53-7.71,2.06-11.22.02.01.03.01.05.02.44.16.88.32995,1.31005.48a3.49594,3.49594,0,0,1-.03-.65,17.598,17.598,0,0,1,1.05-4.37994A22.56221,22.56221,0,0,0,128.79553,103.42717Z" fill="#f2ae2f"/></g><g id="change5_1"><path d="M370.06555,250.56718v15.25a4.05185,4.05185,0,0,1-.05.6c-.41,2.39-3.28,4.61-7.95,6.49v11.41a4.05185,4.05185,0,0,1-.05.6,4.12875,4.12875,0,0,1-.61,1.53c-.08.13-.16.25-.25.37006-.05.07-.1.12994-.15.18994a1.19129,1.19129,0,0,1-.15.18006c-.11.13-.22.25-.34.37-.11.12-.24.24-.37.36-5.94,5.43-24.99,9.4-47.58,9.4-21.27,0-39.41-3.52-46.41-8.47,1.52,6.82,23.08,12.22,49.41,12.22,27.34,0,49.5-5.82,49.5-13v15.25a4.05185,4.05185,0,0,1-.05.6c-1.19,6.9-22.87,12.4-49.45,12.4s-48.27-5.5-49.45-12.4a4.05185,4.05185,0,0,1-.05-.6v-14.53a6.55272,6.55272,0,0,1-2.95-3.87,4.05185,4.05185,0,0,1-.05-.6v-15.25c0,7.18,22.17,13,49.5,13,20.08,0,37.36-3.14,45.13-7.65-9.07,2.7-22.34,4.4-37.13,4.4-23.27,0-42.79-4.22-48.08-9.9-.09-.1-.18-.19-.27-.29-.08-.11005-.16-.21-.24-.32a5.81012,5.81012,0,0,1-.4-.61005,4.29041,4.29041,0,0,1-.46-1.28,4.05185,4.05185,0,0,1-.05-.6v-11.8c-2.89-1.55-4.64-3.28-4.95-5.1a4.05185,4.05185,0,0,1-.05-.6v-15.25c0,7.18,22.16,13,49.5,13s49.5-5.82,49.5-13v15.25a3.51665,3.51665,0,0,1-.23,1.26,1.19416,1.19416,0,0,1-.11.26,1.62966,1.62966,0,0,1-.09.19,3.7149,3.7149,0,0,1-.21.39c-3.82,6.18-24.24,10.9-48.86,10.9-16.48,0-31.08-2.12006-40.08-5.37006,7.81,4.5,25.06,7.62006,45.08,7.62006C347.90552,263.56718,370.06555,257.74717,370.06555,250.56718Zm-250.11,6.76c.33.39.67.79,1.04,1.2.4.36.17.2.54.42a1.48758,1.48758,0,0,0,.3.09c.02.01.04.01.06.02.09,0,.36.03.47.04a.68284.68284,0,0,1,.19,1.3,2.511,2.511,0,0,1-1.75-.26,9.2366,9.2366,0,0,1-2.17-2.24c-8.82,3.56-24.12,5.92-41.52,5.92-20.02,0-37.27-3.12006-45.07-7.62006,8.99,3.25,23.59,5.37006,40.07,5.37006,1.54,0,3.06-.02,4.56-.05,1.03-.03,2.05-.06,3.06-.1.7-.03,1.4-.06,2.09-.1.78-.04,1.56-.09,2.33-.14.43005-.03.86-.06,1.28-.09.62-.04,1.24-.09,1.85-.14.17-.01995.34-.03.51-.04.61-.06,1.21-.11,1.8-.17,1.34-.14,2.64-.28,3.91-.44.09-.01.18-.03.27-.04.59-.06994,1.17-.15,1.74-.23.63-.09,1.26-.18,1.87-.28,1.23-.19,2.43-.4,3.59-.62,1.57-.29,3.07-.61005,4.49-.95.3-.07.59-.14.88-.22.64-.16,1.26-.32,1.86005-.49.25-.07.49-.14.73-.21a42.96926,42.96926,0,0,0,7.11-2.68994v-.01a41.77005,41.77005,0,0,1-2.77-3.99.684.684,0,0,1,1.01-.88c.41.47.65,1.1,1.05,1.6.7.93,1.34,1.79,1.95,2.61.41-.24.79-.49,1.15-.73.23-.16.45-.33.66-.49a9.18545,9.18545,0,0,0,1.23-1.15c.09-.1.17-.19.24-.28a3.447,3.447,0,0,0,.24-.33c.06-.08.12-.17.17-.25a3.7149,3.7149,0,0,0,.21-.39,1.64,1.64,0,0,0,.09-.19,1.19646,1.19646,0,0,0,.11-.26,3.51665,3.51665,0,0,0,.23-1.26v-15.25c0,7.17-22.16,13-49.5,13-27.34,0-49.5-5.83-49.5-13v15.25a4.05185,4.05185,0,0,0,.05.6c.32,1.82,2.06,3.55,4.95,5.1v11.8a4.05185,4.05185,0,0,0,.05.6,4.9672,4.9672,0,0,0,1.37,2.5c5.3,5.68,24.82,9.9,48.08,9.9,14.79,0,28.06-1.7,37.13-4.4-7.77,4.51-25.05,7.65-45.13,7.65-27.33,0-49.5-5.82-49.5-13v15.25a4.05185,4.05185,0,0,0,.05.6,6.55272,6.55272,0,0,0,2.95,3.87v14.53a4.05185,4.05185,0,0,0,.05.6c1.19,6.9,22.88,12.4,49.45,12.4,26.58,0,48.26-5.5,49.45-12.4a4.05185,4.05185,0,0,0,.05-.6v-15.25c0,1.82-1.42,3.55-3.99,5.12a27.31937,27.31937,0,0,0-1.43,4.31994.699.699,0,0,1-1.36-.1,8.492,8.492,0,0,1,.46-1.9c.14-.42.27-.85.41-1.27-8.36005,4.07-24.75,6.83-43.59,6.83-26.33,0-47.88-5.4-49.41-12.22,7,4.95,25.14,8.47,46.41,8.47.83,0,1.66-.01,2.48-.02q.855,0,1.71-.03c.53-.01,1.06-.02,1.59-.04,1.34-.04,2.68-.09,3.99-.16.76-.04,1.52-.09,2.27-.14.74005-.04,1.46-.1,2.18005-.15,3.81995-.3,7.45-.72,10.81995-1.24.38-.06.75-.12,1.12005-.18.45-.07.89-.15,1.33-.23.49-.08.97-.17005,1.44-.26,2.51-.47,4.83-1.01,6.95-1.59.45-.12.88-.25,1.31-.38a47.14625,47.14625,0,0,0,5.22-1.87c.3-.13.59-.26.87-.4.44995-.21.88995-.43006,1.29-.64.14-.08.27-.15.39-.22.49-.28.95-.57,1.36-.85.22-.16.43-.31.63-.47l.15-.12c.17-.13.33-.27.48-.41.13-.12.26-.24.37-.36.12-.12.23-.24.34-.37a1.18833,1.18833,0,0,0,.15-.18006c.05-.06.1-.12.15-.18994.09-.12006.17-.24.25-.37006a4.12877,4.12877,0,0,0,.61-1.53,4.05185,4.05185,0,0,0,.05-.6v-11.41c4.67-1.88,7.54-4.1,7.95-6.49a4.05185,4.05185,0,0,0,.05-.6v-15.25C126.61554,253.18718,124.19556,255.41716,119.95557,257.32713Zm76.77-12.01a5.09346,5.09346,0,0,0-1.56.25l-9.56-17.01a5.02892,5.02892,0,1,0-8.31-3.81,4.92763,4.92763,0,0,0,.96,2.94l-16.44,22.5c-.04,1.42-.08,2.84-.13,4.25l18.4-25.19a5.12909,5.12909,0,0,0,2.24.53,4.74463,4.74463,0,0,0,1.14-.14l9.66,17.2a5.032,5.032,0,1,0,8.1,1.27l3.44-3.29q.12-1.77007.24-3.54l-5.24,5A4.90528,4.90528,0,0,0,196.72553,245.31718Zm184.44-130.02a5.02114,5.02114,0,0,0-2.58,9.34l-10.03,33.07h-.2a5.0267,5.0267,0,0,0-3.84,1.78l-18.52-10.62a4.85405,4.85405,0,0,0,.18-1.33,5.025,5.025,0,1,0-9.87,1.35l-25.99,15.91a5.02473,5.02473,0,1,0-5.91,7.98v.01l-6.46,30.92h-.01a5.02587,5.02587,0,0,0-4.88,3.87l-14.98.2a5.03238,5.03238,0,0,0-4.93-4.07,5.21953,5.21953,0,0,0-1.44.21l-7.49-14.5q-.47993,1.62-1.05,3.21l6.46,12.52a5.026,5.026,0,1,0,8.33,5.03l15.12-.21a5.02575,5.02575,0,1,0,7.2-5.68l6.47-30.93a5.01892,5.01892,0,0,0,5.03-5.02,4.88859,4.88859,0,0,0-.23-1.49l25.94-15.87a5.07453,5.07453,0,0,0,3.67,1.58,4.97207,4.97207,0,0,0,3.66-1.59l18.64,10.67a4.418,4.418,0,0,0-.13,1.1,5.03,5.03,0,1,0,7.53-4.36l10.03-33.04a1.22836,1.22836,0,0,0,.28.02,5.03,5.03,0,0,0,0-10.06ZM130.32735,71.01835c-1.3113,1.99137-3.34778,3.5143-4.239,5.72582a4.08466,4.08466,0,0,0-.01148,3.52717c-1.61666,2.15388-3.2874,4.435-3.65126,7.10343a14.9069,14.9069,0,0,0,.09273,3.69169q.242,2.12734.56182,4.24489a6.0954,6.0954,0,0,0,.7825,2.52786c1.06833,1.59526,3.27464,1.85558,5.11581,1.41052a22.9403,22.9403,0,0,1-.92842,7.62834,17.32285,17.32285,0,0,0-1.05113,4.37943,3.93012,3.93012,0,0,0,1.98034,3.77085,5.00336,5.00336,0,0,0,3.30708-.04417c5.71067-1.54021,10.63365-5.11129,15.27893-8.77262a1.07721,1.07721,0,0,0,.43782-.53946,1.093,1.093,0,0,0-.06623-.56113,33.5081,33.5081,0,0,1-1.28812-12.11238,8.477,8.477,0,0,0,1.66486-2.4129,3.20594,3.20594,0,0,0-.106-2.83829,1.71289,1.71289,0,0,0-.76731-.69622,2.47845,2.47845,0,0,0-2.12115.4255,20.34865,20.34865,0,0,0-4.03072,3.16788c-.46194-.48379-.27724-1.26834-.06321-1.90208.43632-1.29189.87264-2.58377,1.30194-4.00576a28.87093,28.87093,0,0,0-.99926-8.30245c-.13062-.48059-.55447-1.08138-.97974-.82219-.16492.10052-.2368.29981-.36249.44645a1.04956,1.04956,0,0,1-1.53122-.20043,3.67732,3.67732,0,0,1-.55617-1.655,4.517,4.517,0,0,0-1.29835-2.645,5.53671,5.53671,0,0,0-3.19764-.98244C132.53678,70.48079,130.99756,70.00056,130.32735,71.01835ZM109.52557,89.23716a7.87421,7.87421,0,0,0-1.87005-2.88c-1.87995-2.03-4.18-3.9-4.98-6.55-.2-.66-.38-1.46-1.03-1.71-.81-.31-1.64.6-1.71,1.48a5.235,5.235,0,0,0,.22,1.66c-.02-.01-.04,0-.06,0a2.66118,2.66118,0,0,0-1.04.48,10.48376,10.48376,0,0,1-2.36,1.28,22.95833,22.95833,0,0,1-2.04-2.2,3.14065,3.14065,0,0,0,.77-2.03,7.49918,7.49918,0,0,1,.96.91,2.06513,2.06513,0,0,0,1.14.65.94406.94406,0,0,0,1.05-.61,1.47041,1.47041,0,0,0-.49-1.19q-.99-1.17-1.98-2.34a1.85724,1.85724,0,0,0-1.26-.84,1.82411,1.82411,0,0,0-1.31995.85c-.45.54-.9,1.09-1.33,1.66a3.15568,3.15568,0,0,0-.7,3.7,15.00352,15.00352,0,0,0,1.85,4.09,3.64793,3.64793,0,0,0-.88,2.36,7.21447,7.21447,0,0,1,0,1.04c-.08.68-.52,1.29-.58,1.98a3.5851,3.5851,0,0,0,.76,2.11,57.95207,57.95207,0,0,0,5.25995,7.03,1.40458,1.40458,0,0,1,.38.64,1.42307,1.42307,0,0,1-.12.7c-.71,2.01-1.43,4.02-2.06,5.91a19.90282,19.90282,0,0,0,10.25,1.08,17.16518,17.16518,0,0,1,.16-5.15c.43-1.16,1.43-2.05,1.87-3.21a4.94568,4.94568,0,0,0,.07-2.95c0-.01-.01-.03-.01-.04a29.5859,29.5859,0,0,0,1.16-4.63A7.40614,7.40614,0,0,0,109.52557,89.23716Zm54.18575,74.97211a2.51009,2.51009,0,0,0-.86467-.24944c-1.70979-.63175-3.44744-1.23667-5.152-1.92373a18.39627,18.39627,0,0,0-5.5175-.47129,7.93259,7.93259,0,0,0-2.04566.21871,7.77782,7.77782,0,0,0-1.59412.73069q-2.10209,1.16651-4.1741,2.38609a2.46436,2.46436,0,0,0-.94987.80973.85555.85555,0,0,0,.17858,1.128,1.081,1.081,0,0,0,.48685.13124,4.1515,4.1515,0,0,0,2.74-.75187,55.23654,55.23654,0,0,0-3.79594,4.20243,2.57512,2.57512,0,0,0-.52045.83753.8963.8963,0,0,0,.18989.92054c.40985.37167,1.06006.10649,1.52718-.19a20.031,20.031,0,0,0,3.0096-2.34052,25.12679,25.12679,0,0,1,2.3193-2.12119,4.6029,4.6029,0,0,1,2.91328-1.00886,15.96718,15.96718,0,0,0-6.82755,8.18254,1.46264,1.46264,0,0,0-.07888,1.139,1.03883,1.03883,0,0,0,1.2236.41474,3.03255,3.03255,0,0,0,1.14579-.78826,3.42447,3.42447,0,0,0-.36025,1.00333.71086.71086,0,0,0,.35148.70919.86992.86992,0,0,0,.51122.0325,4.623,4.623,0,0,0,2.22639-1.31435c.97895-.89927,1.88085-1.8881,2.94234-2.68827a6.21879,6.21879,0,0,1,3.65475-1.41162c1.66447.58667,3.61935,1.11172,5.57423,1.63677a10.99781,10.99781,0,0,0,3.22336.52948,3.7151,3.7151,0,0,0,2.8754-1.33446,10.21377,10.21377,0,0,0,.91116-1.96592,5.97136,5.97136,0,0,1,1.50057-2.02666c.00955-1.71117-1.03835-3.51086-2.13045-5.09176a7.05354,7.05354,0,0,0-3.3734-3.02971A15.86646,15.86646,0,0,1,163.71132,164.20927Zm88.77421-36.44214-9.09-.82a1.30378,1.30378,0,0,0-1.4,1.07l-1.92,10.34a1.97408,1.97408,0,0,0,.26-.07c2.73-.27,5.36-.55,7.97-.92a6.08854,6.08854,0,0,1,2.29-.05,2.89829,2.89829,0,0,1,1.67,1.15l1.62-8.87A1.55321,1.55321,0,0,0,252.48553,127.76713Zm-24.24-14.88c.3-.34.58-.68.85-1.04a70.18764,70.18764,0,0,0-6.99,1.51c-.1.78-.2,1.57-.25,2.39-.33,3.9-.43,7.11-.65,11.02-.04.73.13,1.72.86,1.78.48.04.86-.4,1.14-.8,1.38-1.92,2.76-3.85,4.13995-5.77.55-.76,1.26-1.6,2.19-1.54a5.89408,5.89408,0,0,1,1.33.43c.03-.19.06-.38.09-.58C230.00555,117.82713,229.04553,115.35716,228.24554,112.88713Zm24.24,12.86c-.18-1.34-.36-2.69-.55-4.03-.08-.55-.15-1.11-.25-1.66h-.01c-.09-.04-.18-.09-.27-.13a2.20888,2.20888,0,0,0-.6-1.88,6.8011,6.8011,0,0,0-1.64-1.22c-1.01-.59-2.01-1.18-3.01-1.77-.74-.44-1.49-.88-2.27-1.26l-.03.3c.56,1.93,1.13,3.87,1.79,5.57.03.11.06.21.08.32,1.48.06,2.59,1.44,3.26,2.8.69,1.4,1.26,2.99,2.57,3.84a.78283.78283,0,0,0,.56.16C252.50555,126.68718,252.54553,126.14714,252.48553,125.74717Z" fill="#f27406"/></g><g id="change1_2"><path d="M89.18555,70.56718l-2.04,1.7-1.28-1.54,2.04-1.7Zm44.7789,12.307a1.93394,1.93394,0,0,0,.167-.80507.66055.66055,0,0,0-.47061-.61212.82764.82764,0,0,0-.70809.31714,2.58384,2.58384,0,0,0-.67788,1.33734,1.236,1.236,0,0,0,.06744.75984.61694.61694,0,0,0,.6274.35859.89579.89579,0,0,0,.4927-.36918A3.34283,3.34283,0,0,0,133.96445,82.87414Zm-6.47264-2.11274a4.36807,4.36807,0,0,1,.26561-.714.65247.65247,0,0,0-.111-.709.53571.53571,0,0,0-.58226-.02556,1.27972,1.27972,0,0,0-.43081.435,4.52205,4.52205,0,0,0-.57061,1.1812,1.2052,1.2052,0,0,0-.07244.50568.49644.49644,0,0,0,.27772.405.58735.58735,0,0,0,.62565-.22783C127.04825,81.43178,127.14736,81.2079,127.49181,80.7614Zm6.781-.54948a4.1251,4.1251,0,0,0,2.0273.95964l.651.17126a2.736,2.736,0,0,0,1.37714.1187.94085.94085,0,0,0,.744-1.02035,1.12423,1.12423,0,0,0-.77969-.70546,21.942,21.942,0,0,1-2.25772-.56249,4.62166,4.62166,0,0,1-1.536-1.46012A1.5671,1.5671,0,0,0,134.27279,80.21192Zm-5.59984-6.89962a1.768,1.768,0,0,1,1.88054.12993c.37778.28513.69368.74825,1.167.75042.48908.00224.82913-.52307.86971-1.01047a1.9865,1.9865,0,0,0-1.1249-1.8942,2.27581,2.27581,0,0,0-2.22693.21406A1.44723,1.44723,0,0,0,128.67295,73.3123Zm1.86691,3.8493a.495.495,0,0,0-.89673.11725,9.97536,9.97536,0,0,1-2.01648,3.91608c-1.26874,1.37152-2.34735,1.85736-3.72272,3.31512-.93463.84113-1.22089,2.04828-.02478,2.80829a5.30685,5.30685,0,0,0,3.03583.52649.68793.68793,0,0,0,.08209-1.222c-.66644-.24664-1.29651-.02557-2.2583-.42187a1.83753,1.83753,0,0,1-.18042-.09815c-.01331-.01294-.03534-.03326-.067-.06152l-.00476-.00726c-.00579-.00958-.01013-.02-.01574-.02973l.00409-.0144c.01818-.02832.04736-.07361.0921-.14142.02881-.03381.0769-.08984.16546-.191a30.10873,30.10873,0,0,1,2.91773-2.58008,8.03729,8.03729,0,0,0,2.22357-3.19568,14.00306,14.00306,0,0,0,.55731-1.81244C130.49078,77.7725,130.71033,77.45457,130.53986,77.1616ZM131.618,88.83451a9.56311,9.56311,0,0,1-2.10547.39,11.76737,11.76737,0,0,1-4.79663-.80676.67381.67381,0,0,0-.67981,1.1629,11.67778,11.67778,0,0,0,7.29053.76031c.58331-.17132,1.6651-.236,1.56122-1.07012C132.70721,88.40013,131.85889,88.72575,131.618,88.83451ZM105.6228,92.264c-.01935-.06592-.032-.12531-.04467-.18451.00476-.014.017-.02313.02081-.0376a20.06736,20.06736,0,0,0-1.20148-4.21924c-.26642-.66345-.50946-1.34637-.80255-2.00305.00751-.02.02466-.03363.03021-.05462a4.199,4.199,0,0,0-.72851-2.07843,7.243,7.243,0,0,0-2.01935-2.48615,1.70685,1.70685,0,0,0-1.45282-.15558c-.65546-.07953-1.76825,1.08411-2.37427,1.38342-.37408.25959-.75989.45148-1.10492.71192a22.76989,22.76989,0,0,1-2.30639,2.15c-.49994.48493.2741,1.26252.76239.76233a39.22138,39.22138,0,0,1,3.358-2.725c.47162-.35523.9635-.68274,1.44012-1.03064a.53945.53945,0,0,0,.3617.01532c.26269-.20618.70538.10937,1.1585.6322a1.38219,1.38219,0,0,0-.75.20624,21.9623,21.9623,0,0,0-5.2514,3.71368.52973.52973,0,0,0,.8587.57874,24.53993,24.53993,0,0,1,4.59662-3.068l.04657-.02044c.06543-.02643.13135-.05188.19837-.0741.113-.0282.13293-.03613.12365-.037l.02424-.00409.0371-.00152c1.51642.55529,2.63361,4.25158,3.461,7.14434a5.26274,5.26274,0,0,0,.26142.79126c.02325.124.05035.27063.08209.45874a6.40284,6.40284,0,0,1,.17645,2.67878c-.14947.442-.222.45074-.47693.61175l-.02893.00556-.01709.001c-.02838-.00811-.05639-.01709-.0841-.02734a2.16141,2.16141,0,0,1-.25611-.1449l-.05279-.03821c-.01685-.01495-.04-.035-.07617-.06567-.03284-.04016-.05323-.06348-.06653-.07751-.01984-.03632-.05292-.09357-.12122-.20453-.14123-.14618-.11175-.40753-.30078-.69562a4.87291,4.87291,0,0,0,.34125-1.36188c.01977-2.03973-1.50763-3.92462-2.20709-5.81775a3.6205,3.6205,0,0,0-.37226-.859.74766.74766,0,0,0-.83294-.11676c-1.5011.60144-2.9715,1.50428-4.01764,2.01374a.63781.63781,0,0,0,.15118,1.15667c.86487.01184,1.55811-.79315,2.33832-1.11688a17.72446,17.72446,0,0,1,1.60968-.81769c.22882.61786.8316,2.066,1.21844,2.90546.62531,1.41412.95734,1.82428.74713,2.85754a6.68627,6.68627,0,0,1-1.59167,2.78168c-.02533-.98163.03229-2.91522.12946-3.94885a1.10093,1.10093,0,0,0-.06867-.69147.69881.69881,0,0,0-1.28339.276c-.00543.00592-.01623.01843-.04058.048a2.97587,2.97587,0,0,1-.98542.70221l-.00909.00421a1.64274,1.64274,0,0,1-.23425.07391l-.00214.00043c-.01471.00061-.02936.00042-.04407.00018l-.02081-.00519a1.23807,1.23807,0,0,1-.16711-.102c-.528-.62683-1.48371.088-.92206.72608a1.76159,1.76159,0,0,0,2.31482.1983c-.03931.66-.06671,1.32074-.0705,1.98212.01685.93213-.15344,2.85772,1.3028,2.49634a4.78565,4.78565,0,0,0,1.9909-1.92768c.792,1.32379,2.401,1.75971,3.37256-.00311C106.33911,94.89708,105.913,93.51957,105.6228,92.264Zm49.73432,75.03827a24.45666,24.45666,0,0,0-3.71418,2.29693,4.8983,4.8983,0,0,0-1.24646,1.12525c-.72851.98334-1.37878,2.02527-2.01568,3.06933a.6475.6475,0,0,0-.10791.52979c.51568.94665,1.13373.11725,1.4386-.4527,1.106-1.82086,1.8258-3.00451,3.32275-3.92608a27.61985,27.61985,0,0,1,2.99213-1.88013A.51891.51891,0,0,0,155.35712,167.30229Zm1.87841-56.37512a10.40435,10.40435,0,0,0-1.31-2.49,15.13228,15.13228,0,0,1-1.65-4.06c-.02-.01-.04-.03-.06-.04a7.03548,7.03548,0,0,0-.75-1.94,2.4407,2.4407,0,0,0-1.63-1.18,3.70544,3.70544,0,0,0-1.47.19c-1.04.28-2.09.56-3.14.85.19.96.43,1.91.71,2.85a1.10125,1.10125,0,0,1,.07.56,1.05517,1.05517,0,0,1-.44.54c-1.34,1.06-2.71,2.11-4.11,3.12q2.92493.42,5.85.84a2.94769,2.94769,0,0,1,1.27.39,3.12445,3.12445,0,0,1,.77.92,29.67405,29.67405,0,0,0,4.83,6.39,8.49732,8.49732,0,0,0,1.09-3.82A7.799,7.799,0,0,0,157.23553,110.92717Zm-28.44-7.5a24.95891,24.95891,0,0,0-2.77-1.17005,2.10267,2.10267,0,0,0-.82-.16,2.20314,2.20314,0,0,0-.95.4,34.59826,34.59826,0,0,0-3.25,2.29c-.58.71-1.15,1.44-1.77,2.12-.83.89-1.75,1.68-2.65,2.5-.84.76-1.65,1.54-2.44,2.34a9.06821,9.06821,0,0,0-1.30005,1.54.57991.57991,0,0,0-.11.35c.03.3.45.35.75.3,3.7-.61005,6.72-3.17005,9.66-5.49006.33-.25994.78-.53,1.13-.3a.94558.94558,0,0,1,.31995.5c.38.92.75,1.86,1.12,2.78.44.16.88.32995,1.31005.48a3.49594,3.49594,0,0,1-.03-.65,17.598,17.598,0,0,1,1.05-4.37994A22.56221,22.56221,0,0,0,128.79553,103.42717Zm36.63495,33.96923a90.09061,90.09061,0,0,1-4.246-10.53472c-.47821-1.136-.99951-2.25409-1.55194-3.35584a.69856.69856,0,1,0-1.20618.705c2.3783,4.408,3.29224,9.656,6.09162,14.29059C165.26044,139.02928,165.98639,138.07078,165.43048,137.3964Zm17.86975,1.51337c-1.98657,1.15357-4.19958,1.88629-6.10022,3.19183-.87805.58832-5.00006,3.5813-2.34808,4.09632,1.90155-.001,4.88916-.5542,5.6449-.10565a2.14017,2.14017,0,0,1,.2511.13586c-.00214.02777-.00287.04388-.00367.05994l-.00317.01477-.02905.03351a3.4273,3.4273,0,0,1-1.84815.80529c-1.48358.40113-3.115.35474-4.54687.87079a.697.697,0,0,0,.60754,1.2193c1.34125-.27026,2.70587-.40863,4.04559-.68677a4.71569,4.71569,0,0,0,2.92157-1.45971,1.4809,1.4809,0,0,0-.15985-1.8606,3.69053,3.69053,0,0,0-2.12591-.69848,22.40668,22.40668,0,0,0-3.48682.23394,6.6947,6.6947,0,0,1,.86279-.7929c1.343-1.20185,4.67517-2.59052,6.81318-3.73444A.71232.71232,0,1,0,183.30023,138.90977Zm-23.14325,19.012a.69492.69492,0,0,0-.90765-.17687.67626.67626,0,0,0-.23694.22058c-.64221.675-1.34955,1.286-2.02588,1.92614-.64923.6294.35608,1.63507.98773.98774a14.908,14.908,0,0,0,2.30793-2.34754A.65464.65464,0,0,0,160.157,157.92179Zm4.31464,17.40522a.696.696,0,0,0-1.12976-.22425c-.47132.94745-.13074,2.61127-.30316,3.73127a20.72247,20.72247,0,0,1-.88373,5.60077,14.39822,14.39822,0,0,1-.43158-3.37464,47.73837,47.73837,0,0,1,.62646-6.7218.65355.65355,0,0,0-1.25952-.34723c-.55835,3.65363-1.173,7.48108-.20209,11.11444.25513,1.03308,1.13752,1.58612,1.98914.73908.887-1.019.9801-2.45588,1.24475-3.7273A35.37094,35.37094,0,0,0,164.47162,175.327Zm-56.77686-60.1872c-.03772-.736.34156-1.6275-.04022-2.27972a.569.569,0,0,0-.96313.39886,48.5196,48.5196,0,0,1-1.98505,11.4776,40.02707,40.02707,0,0,1-2.82611,6.73481c-.4353,1.11737-1.09943,2.20575-1.45453,3.348l-.02759.04309c.00684-.00739.01306-.01038.0199-.0174-.05157.16846-.11694.33454-.15216.50586a.70441.70441,0,0,0,1.25726.31806,45.55971,45.55971,0,0,0,3.07556-5.62665c.16095,1.6701.42652,3.33148.574,5.00323a.67765.67765,0,0,0,.42841.63691c.61529.27282,1.12323-.40168.93206-.98206-.11566-1.086-.25457-2.16943-.3985-3.25207a32.24837,32.24837,0,0,1-.29449-3.5044c-.08807-.57544.14166-.597-.36737-1.059l-.01672-.00708c.08636-.22278.17828-.45013.25525-.665A52.72943,52.72943,0,0,0,107.69476,115.13981Zm3.83234,4.56336a.62541.62541,0,0,0-1.20526-.33228,64.73843,64.73843,0,0,0-1.43292,8.887,39.59941,39.59941,0,0,0,.25512,4.92493,38.56035,38.56035,0,0,1-.7893,6.09448c-.043.62635-.39368,1.31415-.15747,1.91608a.70442.70442,0,0,0,1.0946.141c.34589-.45172.24078-1.11542.39905-1.64935a43.83773,43.83773,0,0,0,.8407-6.48371,37.27974,37.27974,0,0,1-.25013-5.45312A67.79371,67.79371,0,0,1,111.5271,119.70317Zm52.10846,189.384c-.64,1.4-2.44,1.82-3.47,2.96a34.6262,34.6262,0,0,0-4.36-2.43,7.90646,7.90646,0,0,0-4.57-.53c-2.13.46-3.85,1.99-5.44,3.48-1.19-1.45-2.11-2.64-3.03-3.82a7.88811,7.88811,0,0,1-1.2-1.93,6.6014,6.6014,0,0,1,.12-4.14,16.76325,16.76325,0,0,0,.92-4.1c.14-14.01-.14-28.41-.99-42.78.22-1.5-.88-2.81-1.35-4.29-.54-1.69995-.23-3.55-.53-5.31a120.177,120.177,0,0,1-2.24-17.73c-.68-3.24-1.37-6.51-2.27-9.72a82.63919,82.63919,0,0,0-2.09,21.75995c-.28,2.87006,1.09,5,.87,7.26a13.76985,13.76985,0,0,1-.73,2.73,28.04666,28.04666,0,0,0-.98,8.81,235.0353,235.0353,0,0,1-.07,37.53,55.6729,55.6729,0,0,0,2.11,9,3.679,3.679,0,0,1,.27,1.52,3.08252,3.08252,0,0,1-1.22,1.87,10.30605,10.30605,0,0,1-4.24,2.16c-2.49-.2-4.47-2.07-6.85-2.69a7.0325,7.0325,0,0,0-7.03,2.26,9.64842,9.64842,0,0,1-3.02-2.69,1.47793,1.47793,0,0,1-.28-.56,1.68758,1.68758,0,0,1,.13-.82,47.258,47.258,0,0,0,1.96-9.11,105.81038,105.81038,0,0,1-1.34-24.04,154.9537,154.9537,0,0,1-1.81-24.03,360.9579,360.9579,0,0,1-4.86-56.23c.47-.01.95-.04,1.41-.08a14.051,14.051,0,0,0,4.21-.93,10.816,10.816,0,0,0,4.77-4.46,25.34862,25.34862,0,0,0,2.43-6.15c.31-1.1.6-2.21.86-3.32a96.4312,96.4312,0,0,0,15.15,1.64,30.80547,30.80547,0,0,0,7.31-.47,30.34,30.34,0,0,0,6.84-2.55c.65,1.66,1.27,3.33,1.83,5.02.93,2.82,1.66,5.7,2.42,8.57995a4.903,4.903,0,0,0,1.12,2.35,3.816,3.816,0,0,0,2.38.89,13.40693,13.40693,0,0,0,4.66-.56c.2-.05.41-.11005.61-.18006.12,15.53-.28,31.11005-1.02,46.67005-.06,3.07995.03,6.45-.04,9.81a115.03015,115.03015,0,0,1,.88,14.31q.3,16.575.61,33.15a9.65281,9.65281,0,0,1,.63,5.88,9.97822,9.97822,0,0,1,.78,3.82A4.49785,4.49785,0,0,1,163.63556,309.08714Zm-45.84-16.05a.6984.6984,0,0,0-1.29-.44,17.76614,17.76614,0,0,0-1.21,3.16,8.492,8.492,0,0,0-.46,1.9.699.699,0,0,0,1.36.1A27.50667,27.50667,0,0,1,117.79553,293.03715Zm4.76-32.64a.68284.68284,0,0,0-.19-1.3c-.11-.01-.38-.04-.47-.04-.02-.01-.04-.01-.06-.02a1.48758,1.48758,0,0,1-.3-.09c-.37-.22-.13995-.06-.54-.42-2.17-2.41-3.61-4.54-5.66-7.24-.4-.5-.64-1.13-1.05-1.6a.684.684,0,0,0-1.01.88,83.3753,83.3753,0,0,0,5.31,7.27,9.517,9.517,0,0,0,2.22,2.3A2.511,2.511,0,0,0,122.55554,260.39714Zm9.46,43.24c-.43-.6-1.31-.34-1.94-.28-2.41.49-5.27,1.71-6.4,1.04a1.33914,1.33914,0,0,1,.14-.69c1.19-1.7,4.3-3.63995,6.09-5.63995a5.64365,5.64365,0,0,0,1.18-1.78.69843.69843,0,0,0-1.29-.44c-1.37,2.52-5.1,4.39-7.13,7.06-.84,1.45-.36,2.96,1.45,3.05,1.76.17005,3.44-.56,5.13-.97a6.77914,6.77914,0,0,1,1.8-.33h.14a.71192.71192,0,0,0,.83-1.02Zm3.48-86.03a.69687.69687,0,0,0-.05-.25.20176.20176,0,0,1-.02-.06c-3.29-9.7-3.8-20.03-6.21-29.95-.21-.73,0-1.43-.37-2.15a.57767.57767,0,0,0-.98.4,52.98979,52.98979,0,0,0,1.2,7.07c.55,2.99.98,5.99,1.42,8.99a103.62285,103.62285,0,0,0,2.68,13.04c.33,1.09.6,2.21,1.03,3.26a.69824.69824,0,0,0,1.3-.35Zm12.17,40.82c-.75-1.53-1.61-3-2.44-4.49-.47-.7-.74-1.56-1.25-2.21a.65956.65956,0,0,0-.97.85c.95,2.01,2.53,4.62,3.43,6.48-.5-.17-1.14-.32-1.34.34-.17.62.45.91.96,1.01a4.95754,4.95754,0,0,0,1.66.25C148.79553,260.27714,147.95557,259.09715,147.66553,258.42717Zm13.95,42.4c-2.06,1.18-4.17,2.25-6.34,3.23a4.80042,4.80042,0,0,0-1.73,1.09,1.09378,1.09378,0,0,0,.19,1.36c1.24.96,2.95.35,4.39.36005a7.17215,7.17215,0,0,1,1.97.13995c.55.12006,1.16.37006,1.33-.56-.15-.81994-.59-.63995-1.34-.85-1.55-.36-3.56.15-4.86.02,1.38-.76,2.82-1.38,4.18-2.16.93-.55,1.85-1.11,2.79-1.65a.53107.53107,0,0,0,.26-.34A.57315.57315,0,0,0,161.61554,300.82713ZM116.78967,168.01744a.66433.66433,0,0,0-1.04272.34491c-1.538,6.01739-6.07385,13.47278-9.33356,17.57641a.69353.69353,0,0,0,.72345,1.18335,52.41187,52.41187,0,0,0,6.5763-10.09613,41.90037,41.90037,0,0,0,3.31451-8.31054A.64681.64681,0,0,0,116.78967,168.01744Zm16.69586,148.23968c.01-.2.01-.4.02-.6-4.28,1.79-7.67,5.24-11.77,7.44a22.55278,22.55278,0,0,1-7,2.37c-3.56.59-7.45.24-10.41-1.84a5.77121,5.77121,0,0,0-1.14-.69,1.5625,1.5625,0,0,0-.02.31c.05,1.08,1.13,1.81,2.13,2.24a17.62832,17.62832,0,0,0,11.52.51,28.13961,28.13961,0,0,0,10.12-5.53,13.60564,13.60564,0,0,0,4.88-.44,2.93166,2.93166,0,0,0,1.08-.48,2.23891,2.23891,0,0,0,.75-1.48A5.29945,5.29945,0,0,0,133.48553,316.25712Zm24.46,8.08c-2.39,1.63-5.44,1.92-8.34,1.92a10.50986,10.50986,0,0,1-4.82-.84,4.67539,4.67539,0,0,1-2.24-2.44,3.28274,3.28274,0,0,0,.17,1.53,3.80249,3.80249,0,0,0,2.11,1.86005c2.41,1.07,5.16,1.03,7.8.86,2.37-.16,5.05-.58,6.4-2.54a5.106,5.106,0,0,0,.71-1.64C159.11554,323.42717,158.54553,323.92717,157.94556,324.33714ZM248.96014,94.58487a3.70357,3.70357,0,0,0-.25517-1.7734c-.10958-.26777-.29761-.555-.58605-.57769-.31537-.02482-.55333.27961-.68382.56779a2.425,2.425,0,0,0-.20151,1.49513,1.61018,1.61018,0,0,0,.916,1.15623.58394.58394,0,0,0,.34024.04931C248.79924,95.43461,248.91285,95.04409,248.96014,94.58487Zm-1.33316-5.232a4.80647,4.80647,0,0,0-2.94292,1.83618.5133.5133,0,0,0-.09584.476c.11707.24207.47267.1871.72615.09737a5.33891,5.33891,0,0,1,3.00478-.39933c.24141.05932.53455.137.70837-.04071a.65256.65256,0,0,0,.09073-.556l-.19-1.33687A1.86509,1.86509,0,0,0,247.627,89.35288Zm2.98478,11.87018a.70262.70262,0,0,0-.3122.18348c.07019-.08289.33142-.18445.22595-.14746a5.788,5.788,0,0,1-2.43878-.1316,11.51648,11.51648,0,0,1-2.62982-1.19409.69826.69826,0,0,0-.44544,1.28919,8.18178,8.18178,0,0,0,4.8006,1.49865c.612-.0393,1.652.00714,1.68183-.82623A.704.704,0,0,0,250.61176,101.22306Zm7.66381-6.49591c-.45-.55-.99-1.03-1.39-1.61-1.32-1.9-.96-4.44-1.26-6.74a11.5974,11.5974,0,0,0-8.39-9.53,14.37431,14.37431,0,0,0-8.35.59,47.54435,47.54435,0,0,0-7.41,3.84c-1.67-1.05-3.98-.2-5.26,1.3-1.27,1.5-1.8,3.48-2.44,5.34a37.99819,37.99819,0,0,1-2.32,5.37,8.381,8.381,0,0,0-1.35,3.75,6.25638,6.25638,0,0,0,1.12,3.24,16.1454,16.1454,0,0,0,3.05,3.6c1.44,1.27,3.28,2.62994,3.16,4.55-.03.46-.14,1.03.25,1.3a.96722.96722,0,0,0,.59.11,6.437,6.437,0,0,0,2.49-.58,19.15262,19.15262,0,0,0,1.31-2.96,7.79489,7.79489,0,0,0,3.33-3.85,7.907,7.907,0,0,1-3.04-5.07995,2.86448,2.86448,0,0,1,.52-2.44,2.16833,2.16833,0,0,1,1.97-.53,3.93153,3.93153,0,0,1,1.83,1.05,6.75984,6.75984,0,0,1,2.04,3.85,1.15169,1.15169,0,0,0,.34.79c.35.23.85-.08.97-.48a2.61088,2.61088,0,0,0-.05-1.24,6.17577,6.17577,0,0,1,1.45-5.08,14.22143,14.22143,0,0,0,2.24-2.49,7.74117,7.74117,0,0,0,.58-2.62,4.346,4.346,0,0,1,.94-2.48005,1.98014,1.98014,0,0,1,2.42-.35c1.44,1.04,2.97,2.2,3.46,3.91.5,1.74-.23,3.6-.11,5.41a1.38575,1.38575,0,0,0,.19.72,1.842,1.842,0,0,0,.78.56,12.335,12.335,0,0,1,2.38,1.52,2.415,2.415,0,0,1,1.13,1.94c-.1.93-1.09,1.46-1.87,1.6a29.47341,29.47341,0,0,1-.38,4.69,5.63721,5.63721,0,0,1-1.05,2.82,5.16545,5.16545,0,0,1-2.53,1.46,14.83543,14.83543,0,0,1-4.56.63,7.06033,7.06033,0,0,0-1.17,3.19c.78.38,1.53.82,2.27,1.26,1,.59,2,1.18,3.01,1.77a6.8011,6.8011,0,0,1,1.64,1.22,2.20888,2.20888,0,0,1,.6,1.88c.93.43,1.82.88,2.68,1.32995a4.49306,4.49306,0,0,0,1.01-4.01,24.43326,24.43326,0,0,0-1.34-2.59c-1.11-2.57.28-5.51,1.93-7.77,1.65-2.26,3.68-4.48,4.01-7.26A6.60385,6.60385,0,0,0,258.27557,94.72715Zm-49.63,223.12c-.05-.81-.12-1.63-.25-2.43h-.01a11.823,11.823,0,0,1-2.22-2.3,4.79628,4.79628,0,0,0-2.57-1.81,5.09009,5.09009,0,0,0-1.98.09,28.57841,28.57841,0,0,0-4.8,1.37,28.92083,28.92083,0,0,0-3.17,6.55c-.55,1.6-.93,3.46-.08,4.93a5.29626,5.29626,0,0,0,3.2,2.18c2.74.81,5.66.6,8.51.38a3.73423,3.73423,0,0,0,2.77-1,3.50307,3.50307,0,0,0,.59-2.09A45.99129,45.99129,0,0,0,208.64557,317.84715Zm58.47,1.91c-4.07-2.99-10.16-2.68-13.54-6.43-.54-.6-.99-1.3-1.55-1.91a.57.57,0,0,1-.01.13,2.874,2.874,0,0,0-2.04-.57,16.29972,16.29972,0,0,0-1.91.61,8.77528,8.77528,0,0,1-1.92.24c-3.02.15-6.15.29-9.01-.63a29.39757,29.39757,0,0,0,0,9.73005,18.40429,18.40429,0,0,0-.03,2.1,28.98172,28.98172,0,0,0,9.7-.02,28.91735,28.91735,0,0,0,18.42,1.97,6.26739,6.26739,0,0,0,2.27-.87,2.50268,2.50268,0,0,0,1.16-2.03A3.23086,3.23086,0,0,0,267.11554,319.75712Zm-19.56-175.37a3.2846,3.2846,0,0,0-.93.25,1.08114,1.08114,0,0,0-.61.71c1.11.04,2.11.03,3.11-.01a2.94423,2.94423,0,0,0,1.02-.16,7.39141,7.39141,0,0,0,1.02-.66l.14-.74c-.09.02-.18.04-.26.05C249.88556,144.01713,248.71552,144.20713,247.55554,144.38713Zm-1.53-3.78a.54641.54641,0,0,0,.31.63,1.76731,1.76731,0,0,0,.76.13c1.1,0,2.21.01,3.32.01a5.6158,5.6158,0,0,1,1.3.12l.11-.6c-.49-.2-.98-.4-1.48-.6A21.65572,21.65572,0,0,0,246.02557,140.60716Zm1.53,3.78a3.2846,3.2846,0,0,0-.93.25,1.08114,1.08114,0,0,0-.61.71c1.11.04,2.11.03,3.11-.01a2.94423,2.94423,0,0,0,1.02-.16,8.5704,8.5704,0,0,0,1.03-.66l.13-.74c-.09.02-.18.04-.26.05C249.88556,144.01713,248.71552,144.20713,247.55554,144.38713Zm-1.53-3.78a.54641.54641,0,0,0,.31.63,1.76731,1.76731,0,0,0,.76.13c1.1,0,2.21.01,3.32.01a5.702,5.702,0,0,1,1.31.12l.1-.6c-.49-.2-.98-.4-1.48-.6A21.65572,21.65572,0,0,0,246.02557,140.60716Zm6.78-11.48-8.56-.86005a1.04548,1.04548,0,0,0-1.14.85l-1.68,9.06c2.35-.24,4.62-.49,6.88-.81a6.08854,6.08854,0,0,1,2.29-.05,2.89829,2.89829,0,0,1,1.67,1.15l1.47-8.1A1.05688,1.05688,0,0,0,252.80554,129.12718Zm-24.0567,30.97357c-1.99524,3.34113-5.6886,5.30524-9.04962,7.04846-1.05109.49243-2.16565.826-3.23895,1.26331a2.57245,2.57245,0,0,1-.78821.295.69688.69688,0,0,1-.35175-1.29858,24.75781,24.75781,0,0,1,2.39417-.95,26.33489,26.33489,0,0,0,5.27923-2.77027,14.86038,14.86038,0,0,0,4.43549-4.049,29.30253,29.30253,0,0,0-2.34534-9.454,14.87007,14.87007,0,0,0-2.6969-3.42541c-.08069-.05085-.18237-.10828-.23443-.13837l-.02368.00067c-1.954.3681-4.86194,1.15918-7.514,1.967-.06311.585-.41895.49439-.80542.94635a10.4899,10.4899,0,0,1-5.9242,3.62689c-1.59454.34882-2.89141-1.13574-1.71484-2.49542,1.43665-1.59228,3.61231-2.05957,5.58917-2.6344,2.21973-.69372,4.44422-1.40185,6.69825-1.98126.55883-1.74176,1.16271-3.47253,1.73-5.20911.26367-1.502.43713-5.75421.759-8.48938a.54087.54087,0,0,1,1.08124,0c-.27472,2.62732-.13227,5.277-.38276,7.90528a12.78209,12.78209,0,0,1-.90832,3.2901,18.88025,18.88025,0,0,0-.64411,2.11371c.647-.14264,1.29389-.28638,1.94825-.39515a1.45992,1.45992,0,0,1,.77014.22236c.50232.03424.79455.54968,1.15381.85009a22.868,22.868,0,0,1,2.24426,2.98975A25.37154,25.37154,0,0,1,228.74884,160.10075ZM211.989,149.41423c-1.93951.5426-3.62652.99914-4.61547,2.00616a2.79149,2.79149,0,0,0-.20679.223c-.01355.02558-.02521.04712-.03266.06012l-.01367.04315.031.02.03277.01557.008.00287a6.05354,6.05354,0,0,0,3.22534-1.10425A8.041,8.041,0,0,0,211.989,149.41423Zm25.68274,22.81585c-4.64727,1.2948-9.53613,2.51477-13.40326,5.5437-1.07391.74335-1.14923,1.99488.21,2.44233a5.337,5.337,0,0,0,3.87841-.48072,33.50618,33.50618,0,0,0,4.20984-2.221c.481-.3675,1.23456-.54,1.4798-1.12775a.701.701,0,0,0-.66907-.87824,24.62862,24.62862,0,0,0-2.74957,1.52338c-1.98352,1.24243-4.57043,2.24854-5.59235,1.92157.0188-.01739.0362-.03625.055-.05365a21.243,21.243,0,0,1,5.253-2.94611c1.56128-.70581,5.008-1.73333,7.27166-2.4414C238.63861,173.449,238.75928,172.13182,237.67175,172.23008Zm30.00885-19.10144c-1.25671-.60089-2.76739-.19342-4.0534.13483a15.79652,15.79652,0,0,0-5.71039,3.4895,3.98046,3.98046,0,0,1-.48846.40973l-.0105-.0506c-.16681-.80261-.02991-.89374.883-2.24823a13.79458,13.79458,0,0,0,1.79773-4.608,37.75843,37.75843,0,0,0,.478-8.70666c-.402-3.18342-.60358-5.91041-1.85584-9.12983a.60814.60814,0,0,0-1.06341.52991,34.48226,34.48226,0,0,1,1.28912,6.53833,24.51945,24.51945,0,0,1,.254,5.97,21.84639,21.84639,0,0,1-.97888,6.37329c-.28931,1.34436-1.50562,2.60974-2.21027,4.19959a9.36665,9.36665,0,0,0,.47815,3.3175,26.70422,26.70422,0,0,0,2.2229,5.93549c1.13422,2.15735,1.59619,2.69531.30609,4.57574a13.09746,13.09746,0,0,1-.95269,1.35071.6781.6781,0,0,0-.14411.76129.69271.69271,0,0,0,.82208.40351c.7826-.47327.74176-.843,1.36847-1.64356a6.73343,6.73343,0,0,0,1.02729-2.102c.29681-1.79657-.91858-3.381-1.69782-4.89825a34.50842,34.50842,0,0,1-1.75226-5.36988,25.83731,25.83731,0,0,1,4.65125-3.28,8.96044,8.96044,0,0,1,4.02673-.90789c-1.03314.71252-3.512,1.81372-4.87982,2.71044a.69537.69537,0,0,0,.70178,1.20069c1.14014-.66406,2.28967-1.31275,3.46161-1.91913.84552-.50836,2.00525-.835,2.39813-1.82458A1.01348,1.01348,0,0,0,267.6806,153.12864Zm-18.78289,21.702c-1.21308-.78552-1.24183.851-1.29987,1.32837-.22076,1.55438-.4082,3.116-.73279,4.6532-1.12878,4.57782-2.50506,9.13434-5.11383,12.583.0376-.204.07788-.40747.115-.61157a114.02291,114.02291,0,0,0,1.84107-12.54052,35.49715,35.49715,0,0,0-.12452-5.13147c-.0415-.28644-.0119-.61048-.24231-.8238a.70277.70277,0,0,0-1.18963.49274c.666,5.94122-.457,10.93774-1.47168,16.77387-.20038,1.18866-.45862,2.36834-.64807,3.558a1.00343,1.00343,0,0,0,.069.35944c-.62158,2.694-1.13776,5.4118-1.81262,8.09314a72.40417,72.40417,0,0,0-1.83478,7.18158.69364.69364,0,0,0,1.35034.09222c.45642-2.41541,1.286-4.73,1.87775-7.11231.65966-2.62225,1.14276-5.28442,1.74475-7.92,2.18316-1.18371,5.07477-8.47,5.43841-9.76617a42.93658,42.93658,0,0,0,1.95-8.60492C248.80573,176.64231,249.37238,175.48686,248.89771,174.83067Zm-13.764,27.99463A40.48318,40.48318,0,0,0,222.06,213.4741a1.11832,1.11832,0,0,0,.82617,1.81024,7.4175,7.4175,0,0,0,3.88483-1.32568c1.774-1.02655,3.47723-2.16931,5.14038-3.366.96856-.73083,2.03454-1.35968,2.97082-2.11853a.69622.69622,0,0,0-.362-1.0943c-.54852-.12628-.944.40735-1.383.65021-1.69568,1.17005-3.34235,2.41235-5.08515,3.5127-1.6394,1.005-3.24817,2.11914-4.59222,2.32641.34326-.475.81-.923,1.35858-1.56445a33.47,33.47,0,0,1,5.07385-4.52148,38.324,38.324,0,0,1,5.915-3.80573A.66763.66763,0,0,0,235.13373,202.8253Zm9.45611,12.91675a69.83049,69.83049,0,0,1-3.42559-8.44263c-.16181-.3916-.15668-.91913-.5514-1.15936a.70445.70445,0,0,0-1.02606.78875,66.96111,66.96111,0,0,0,3.45587,8.77448c.39478.62231.46918,1.62628,1.17737,1.9566a.70583.70583,0,0,0,.88422-.67358A5.8212,5.8212,0,0,0,244.58984,215.74205Zm8.27094,44.10675a24.12611,24.12611,0,0,0-9.14844,6.20813c-.69092.6145-1.19983,1.65808-.02484,2.06591a11.67957,11.67957,0,0,0,4.6015-.65692,7.1564,7.1564,0,0,0,1.36316-.45758.58642.58642,0,0,0-.19928-1.0252,21.83993,21.83993,0,0,0-2.421.55017,14.53176,14.53176,0,0,1-2.25195.38342,22.85732,22.85732,0,0,1,4.26025-3.66675,23.944,23.944,0,0,1,4.31305-2.23309A.64172.64172,0,0,0,252.86078,259.8488Zm-41.64447,1.608c-.26611-.64173-.51526-1.29029-.76392-1.939a31.19345,31.19345,0,0,1-1.15851-3.4472.6939.6939,0,0,0-1.33789.36883,48.80218,48.80218,0,0,0,2.07874,5.7779.70237.70237,0,0,0,1.09454.141.71961.71961,0,0,0,.2041-.49274A1.01182,1.01182,0,0,0,211.21631,261.45677Zm-.68683,45.08356a28.75579,28.75579,0,0,0-6.25122.92016,1.00783,1.00783,0,0,0-.70471,1.51672,6.2339,6.2339,0,0,0,1.65216,1.44849,2.26653,2.26653,0,0,0,.77356.39874.67364.67364,0,0,0,.7406-.8424c-.08215-.31372-.38483-.44941-.63788-.60791a7.0837,7.0837,0,0,1-1.00208-.73816c.02814-.00763.05549-.01807.08362-.02558a24.75051,24.75051,0,0,1,5.346-.79821A.63621.63621,0,0,0,210.52948,306.54033Zm31.04852.19635c-.63916-3.07752-1.45709-7.52106-1.76159-9.9621-.23163-.9787-.11884-2.48859-.54987-3.29944a.66973.66973,0,0,0-1.13379.4696q.59025,5.41242,1.64148,10.76c.18872.97449.37,1.95056.572,2.92243a.7001.7001,0,0,0,.31958.41552C241.59979,308.44511,241.87634,307.45976,241.578,306.73668ZM119.93179.17h-2a5.20671,5.20671,0,0,1,5.21,5.21v35.58a5.20665,5.20665,0,0,1-5.21,5.21h-82.57a5.21515,5.21515,0,0,1-5.22-5.21v.33a9.22265,9.22265,0,0,0,9.22,9.22h80.57a7.21465,7.21465,0,0,0,7.21-7.22V7.38A7.21255,7.21255,0,0,0,119.93179.17ZM335.5401,0h-2a5.20671,5.20671,0,0,1,5.21,5.21V40.79a5.20666,5.20666,0,0,1-5.21,5.21h-82.57a5.21515,5.21515,0,0,1-5.22-5.21v.33a9.22265,9.22265,0,0,0,9.22,9.22h80.57a7.21465,7.21465,0,0,0,7.21-7.22V7.21A7.21255,7.21255,0,0,0,335.5401,0ZM51.47659,32.49124c4.94727,0,7.81445-2.99316,7.81445-6.42773,0-2.86719-1.51269-4.56885-4.06494-5.57715l-2.55224-1.04c-1.82715-.72461-3.11914-1.13428-3.11914-2.33154,0-1.07129.97656-1.66993,2.48925-1.66993a7.32329,7.32329,0,0,1,4.09619,1.51221l2.55225-3.18213A9.84034,9.84034,0,0,0,52.044,11.22269c-4.34863,0-7.43652,2.77295-7.43652,6.207a5.96592,5.96592,0,0,0,4.15918,5.60888l2.61572,1.13428c1.7959.72461,2.89844,1.103,2.89844,2.3003,0,1.10253-.85059,1.79589-2.70947,1.79589a8.18846,8.18846,0,0,1-5.16748-1.95361l-2.584,3.18262A10.94156,10.94156,0,0,0,51.47659,32.49124Zm11.21387-.37793H75.98733V28.01712H67.606V23.63724h6.90039V19.541H67.606V15.69681h8.0664V11.60062H62.69046Zm17.32617,0H92.90384V28.01712H84.93216V11.60062H80.01663Zm16.44385,0h12.8872V28.01712H101.376V11.60062H96.46048Zm169.89835-.17h7.75195c4.44238,0,8.03418-1.85889,8.03418-6.04981a4.67643,4.67643,0,0,0-3.68652-4.8208v-.126a4.74831,4.74831,0,0,0,2.67871-4.41162c0-3.97022-3.37207-5.1045-7.626-5.1045h-7.15234Zm4.916-12.35156V15.18011h2.0791c2.0166,0,2.99317.59864,2.99317,2.07959,0,1.418-.91309,2.332-3.02442,2.332Zm0,8.602V23.18353h2.457c2.42676,0,3.624.66162,3.624,2.395,0,1.73291-1.22852,2.61524-3.624,2.61524Zm22.39844,4.12744c5.45117,0,8.19238-3.08789,8.19238-10.02V11.4306h-4.69433V22.83685c0,3.90723-1.2295,5.26221-3.49805,5.26221-2.23731,0-3.40234-1.355-3.40234-5.26221V11.4306h-4.88477V22.30121C285.38617,29.23334,288.22211,32.32123,293.67328,32.32123Zm17.28223-.37793h4.88378V24.69623l6.17579-13.26563h-5.1045l-1.73339,4.56885c-.53516,1.54395-1.13379,2.96191-1.70118,4.56885h-.126c-.56739-1.60694-1.07129-3.0249-1.60742-4.56885l-1.73243-4.56885h-5.23047l6.17579,13.26563Z" fill="#4833da"/></g></svg>