<svg xmlns="http://www.w3.org/2000/svg" xmlns:xlink="http://www.w3.org/1999/xlink" width="750" zoomAndPan="magnify" viewBox="0 0 562.5 112.499997" height="150" preserveAspectRatio="xMidYMid meet" version="1.0"><defs><g/><clipPath id="e4ab44d911"><path d="M 17 5.402344 L 107.695312 5.402344 L 107.695312 99 L 17 99 Z M 17 5.402344 " clip-rule="nonzero"/></clipPath><clipPath id="719b4f664a"><path d="M 4.652344 14 L 93 14 L 93 108.445312 L 4.652344 108.445312 Z M 4.652344 14 " clip-rule="nonzero"/></clipPath><clipPath id="b58080fb4e"><path d="M 11 36 L 107.695312 36 L 107.695312 99 L 11 99 Z M 11 36 " clip-rule="nonzero"/></clipPath></defs><g clip-path="url(#e4ab44d911)"><path fill="#12a548" d="M 66.253906 22.453125 L 72.851562 22.453125 L 72.851562 34.699219 C 71.902344 34.457031 70.933594 34.285156 69.941406 34.285156 C 67.925781 34.285156 65.960938 34.890625 63.78125 36.203125 C 62.566406 36.929688 61.402344 37.800781 60.214844 38.871094 L 60.117188 38.964844 C 59.246094 39.765625 58.347656 40.566406 57.523438 41.535156 C 57.523438 41.535156 57.472656 41.535156 57.472656 41.535156 C 57.351562 41.535156 57.230469 41.535156 57.109375 41.5625 L 57.109375 22.453125 L 63.707031 22.453125 L 63.707031 12.433594 L 66.253906 12.433594 Z M 105.660156 15.25 L 105.660156 5.402344 L 103.117188 5.402344 L 103.117188 15.25 L 96.519531 15.25 L 96.519531 48.570312 C 97.636719 49.636719 98.726562 50.703125 99.769531 51.746094 C 100.328125 52.304688 100.910156 52.863281 101.492188 53.445312 C 101.710938 53.664062 102.046875 53.976562 102.292969 54.488281 C 102.363281 54.609375 102.414062 54.753906 102.460938 54.875 C 102.875 54.972656 103.261719 55.09375 103.625 55.214844 C 105.417969 55.820312 106.632812 57.082031 107.699219 58.222656 C 108.160156 58.707031 108.597656 59.167969 109.03125 59.507812 C 109.90625 60.210938 111.070312 60.71875 112.308594 60.960938 L 112.308594 15.273438 L 105.710938 15.273438 Z M 111.410156 66.226562 C 110.464844 66.226562 109.46875 66.054688 108.476562 65.738281 C 106.996094 65.253906 105.734375 64.503906 104.523438 63.75 L 104.230469 63.582031 C 103.988281 63.4375 103.699219 63.265625 103.429688 63.144531 C 103.308594 63.410156 103.164062 63.628906 102.996094 63.847656 L 96.496094 71.777344 L 96.496094 71.898438 L 103.089844 71.898438 L 103.089844 81.988281 L 105.636719 81.988281 L 105.636719 71.898438 L 112.234375 71.898438 L 112.234375 66.175781 C 112.136719 66.175781 112.015625 66.175781 111.917969 66.199219 C 111.75 66.199219 111.554688 66.199219 111.359375 66.199219 Z M 30.628906 52.886719 C 30.484375 53.300781 30.507812 53.90625 30.847656 54.195312 C 31.015625 54.339844 31.1875 54.390625 31.429688 54.390625 C 31.960938 54.390625 32.714844 54.125 33.441406 53.855469 L 33.441406 50.4375 C 32.109375 51.117188 31.015625 51.84375 30.628906 52.910156 Z M 32.398438 82.523438 C 29.269531 83.566406 27.453125 84.269531 26.480469 86.402344 C 26.359375 86.667969 26.238281 86.910156 26.117188 87.179688 C 25.027344 89.554688 24.371094 91.105469 24.929688 92.707031 C 24.976562 92.820312 25.074219 92.933594 25.21875 93.046875 C 26.070312 93.703125 26.84375 94.574219 26.722656 96.636719 C 26.699219 97.195312 26.53125 97.945312 25.949219 98.578125 L 26.820312 98.578125 L 26.820312 88.488281 L 33.417969 88.488281 L 33.417969 82.183594 C 33.273438 82.230469 33.125 82.28125 33.003906 82.304688 L 32.375 82.523438 Z M 26.84375 31.449219 L 24.296875 31.449219 L 24.296875 41.488281 L 17.703125 41.488281 L 17.703125 71.027344 C 18.355469 70.300781 19.132812 69.839844 19.8125 69.425781 C 20.007812 69.304688 20.199219 69.207031 20.394531 69.085938 C 22.308594 67.851562 23.621094 65.425781 23.910156 62.585938 C 23.984375 61.761719 24.082031 60.574219 23.835938 59.628906 C 23.765625 59.3125 23.667969 58.996094 23.546875 58.660156 C 23.253906 57.761719 22.941406 56.765625 22.964844 55.53125 C 22.988281 53.445312 23.863281 51.335938 25.390625 49.515625 C 26.820312 47.816406 28.738281 46.410156 30.726562 45.5625 C 31.429688 45.246094 32.15625 45.003906 32.835938 44.738281 C 33.054688 44.664062 33.246094 44.59375 33.464844 44.496094 L 33.464844 41.464844 L 26.871094 41.464844 L 26.871094 31.425781 Z M 26.84375 31.449219 " fill-opacity="1" fill-rule="nonzero"/></g><g clip-path="url(#719b4f664a)"><path fill="#ff914d" d="M 92.566406 24.65625 L 92.566406 45.054688 C 89.269531 42.242188 85.558594 39.304688 81.023438 37.972656 C 80.828125 37.921875 80.632812 37.898438 80.464844 37.898438 C 80.296875 37.898438 80.101562 37.921875 79.929688 37.972656 C 78.960938 37.292969 77.894531 36.734375 76.804688 36.25 L 76.804688 24.683594 L 83.398438 24.683594 L 83.398438 14.882812 L 85.945312 14.882812 L 85.945312 24.683594 L 92.542969 24.683594 Z M 90.019531 76.703125 C 88.539062 76.703125 87.160156 76.046875 86.210938 74.980469 C 85.65625 75.34375 85.074219 75.5625 84.585938 75.753906 C 84.320312 75.851562 84.054688 75.949219 83.859375 76.070312 C 83.328125 76.335938 82.769531 76.796875 82.1875 77.308594 C 80.972656 78.328125 79.46875 79.585938 77.359375 79.585938 C 77.167969 79.585938 76.972656 79.585938 76.804688 79.5625 L 76.804688 88.535156 L 83.398438 88.535156 L 83.398438 98.625 L 85.945312 98.625 L 85.945312 88.535156 L 92.542969 88.535156 L 92.542969 76.023438 C 91.910156 76.410156 91.160156 76.675781 90.261719 76.726562 C 90.164062 76.726562 90.09375 76.726562 89.996094 76.726562 Z M 43.117188 50.945312 C 43.433594 50.945312 43.75 51.019531 44.015625 51.164062 C 45.832031 50.097656 47.578125 48.933594 49.300781 47.695312 L 46.5625 47.695312 L 46.5625 37.609375 L 44.015625 37.609375 L 44.015625 39.597656 C 44.667969 40.6875 44.886719 41.972656 44.597656 43.257812 C 44.476562 43.792969 44.257812 44.253906 44.015625 44.640625 L 44.015625 47.695312 L 39.261719 47.695312 L 37.394531 48.570312 L 37.394531 52.59375 L 42.535156 51.042969 C 42.730469 50.996094 42.921875 50.945312 43.117188 50.945312 Z M 41.46875 80.777344 C 40.863281 80.679688 40.351562 80.289062 40.0625 79.757812 C 39.941406 79.828125 39.820312 79.902344 39.699219 79.953125 C 38.945312 80.363281 38.171875 80.703125 37.394531 80.96875 L 37.394531 87.976562 L 43.992188 87.976562 L 43.992188 97.898438 L 46.539062 97.898438 L 46.539062 87.976562 L 53.132812 87.976562 L 53.132812 81.550781 C 52.503906 81.550781 51.871094 81.574219 51.242188 81.574219 C 47.945312 81.574219 44.644531 81.285156 41.421875 80.726562 Z M 7.152344 47.769531 L 4.605469 47.769531 L 4.605469 57.859375 L -2.015625 57.859375 L -2.015625 98.164062 L 4.582031 98.164062 L 4.582031 108.082031 L 7.128906 108.082031 L 7.128906 98.164062 L 9.746094 98.164062 C 9.675781 97.195312 9.433594 92.925781 11.128906 90.332031 C 10.910156 89.265625 10.523438 87.492188 11.589844 85.894531 C 12.34375 84.730469 13.09375 83.515625 13.773438 82.207031 L 13.773438 57.90625 L 7.175781 57.90625 L 7.175781 47.816406 Z M 7.152344 47.769531 " fill-opacity="1" fill-rule="nonzero"/></g><g clip-path="url(#b58080fb4e)"><path fill="#ffffff" d="M 113.859375 63.167969 C 113.808594 63.167969 113.785156 63.144531 113.738281 63.144531 C 113.6875 63.144531 113.664062 63.144531 113.617188 63.144531 C 111.554688 63.070312 109.371094 62.394531 107.746094 61.058594 C 106.171875 59.773438 105.007812 57.785156 102.996094 57.105469 C 102.167969 56.839844 101.296875 56.574219 100.472656 56.863281 C 100.617188 56.378906 100.738281 55.84375 100.519531 55.410156 C 100.421875 55.214844 100.253906 55.046875 100.109375 54.898438 C 97.609375 52.449219 95.234375 50 92.589844 47.695312 C 88.929688 44.519531 85.121094 41.269531 80.488281 39.886719 C 81.046875 40.46875 81.214844 41.390625 80.902344 42.117188 C 80.050781 40.007812 77.796875 38.871094 75.710938 37.921875 C 71.929688 36.203125 69.140625 35.328125 64.796875 37.921875 C 63.632812 38.625 62.542969 39.453125 61.546875 40.371094 C 60.53125 41.292969 59.488281 42.214844 58.664062 43.308594 C 57.863281 44.398438 57.136719 45.734375 55.851562 46.121094 C 56.867188 45.828125 57.257812 44.59375 57.472656 43.550781 C 52.429688 48.328125 46.632812 52.351562 40.402344 55.410156 C 41.492188 54.828125 42.4375 53.976562 43.117188 52.984375 C 40.523438 53.757812 37.929688 54.558594 35.355469 55.335938 C 33.5625 55.871094 31.378906 57.203125 29.632812 55.796875 C 28.589844 54.949219 28.347656 53.46875 28.785156 52.257812 C 29.5625 50.171875 31.695312 49.101562 33.585938 48.207031 C 35.84375 47.164062 38.097656 46.097656 40.351562 45.054688 C 41.324219 44.59375 42.367188 44.109375 42.65625 42.847656 C 42.972656 41.488281 42.269531 40.105469 41.03125 39.476562 C 39.554688 38.699219 37.832031 39.085938 36.496094 40.007812 C 36.207031 40.203125 36.398438 40.640625 36.738281 40.589844 C 37.273438 40.496094 37.808594 40.46875 38.339844 40.640625 C 38.875 40.808594 39.359375 41.171875 39.578125 41.683594 C 39.917969 42.507812 39.429688 43.210938 38.921875 43.742188 C 36.933594 45.78125 34.023438 46.386719 31.5 47.480469 C 29.78125 48.230469 28.105469 49.46875 26.894531 50.898438 C 25.753906 52.230469 24.976562 53.90625 24.953125 55.652344 C 24.953125 56.960938 25.460938 58.003906 25.753906 59.242188 C 26.042969 60.378906 25.996094 61.714844 25.875 62.878906 C 25.558594 65.957031 24.128906 69.136719 21.460938 70.855469 C 20.539062 71.464844 19.449219 71.925781 18.867188 72.871094 C 18.503906 73.425781 18.285156 74.082031 18.1875 74.761719 C 17.53125 79.683594 15.617188 83.394531 13.238281 87.03125 C 12.269531 88.488281 13.507812 90.644531 13.117188 91.058594 C 11.710938 92.585938 11.566406 96.273438 11.738281 98.210938 C 13.117188 98.527344 15.058594 98.601562 15.082031 96.734375 C 15.082031 96.539062 15.082031 96.371094 15.035156 96.175781 C 14.816406 95.179688 14.71875 91.859375 15.421875 89.457031 C 15.542969 89.019531 15.15625 88.511719 15.253906 88.148438 C 15.421875 87.519531 16.003906 86.765625 16.222656 86.476562 C 17.3125 85.042969 18.210938 82.933594 18.769531 81.238281 C 19.496094 79.03125 19.109375 76.3125 20.710938 74.617188 C 21.195312 74.105469 21.800781 73.71875 22.359375 73.28125 C 23.714844 72.191406 24.664062 70.613281 25 68.917969 C 25.4375 70.664062 24.757812 72.652344 23.304688 73.765625 C 22.503906 74.375 22.457031 73.960938 21.726562 74.835938 C 20.589844 76.167969 19.980469 77.890625 20.007812 79.636719 C 20.03125 82.714844 19.667969 83.539062 18.1875 85.578125 C 17.726562 86.207031 17.191406 86.8125 16.902344 87.519531 C 16.609375 88.246094 16.585938 89.140625 17.097656 89.722656 C 15.738281 93.652344 16.222656 96.976562 16.175781 95.667969 C 16.175781 96.199219 16.246094 96.757812 16.585938 97.167969 C 16.851562 97.484375 17.191406 97.847656 17.605469 97.824219 C 20.320312 97.679688 24.6875 98.769531 24.785156 96.613281 C 24.90625 94.378906 23.691406 95.179688 23.085938 93.433594 C 22.140625 90.742188 23.523438 88.269531 24.6875 85.675781 C 26.140625 82.449219 29.050781 81.648438 32.398438 80.507812 C 34.53125 79.78125 36.789062 79.371094 38.753906 78.277344 C 41.175781 76.917969 43.019531 74.542969 43.722656 71.851562 C 43.773438 74.300781 43.09375 76.773438 41.832031 78.859375 C 46.585938 79.683594 51.460938 79.878906 56.285156 79.441406 C 56.285156 82.109375 56.335938 87.300781 54.976562 89.75 C 54.589844 90.453125 54.03125 91.203125 54.226562 91.980469 C 54.273438 92.222656 54.46875 93.023438 54.515625 93.265625 C 54.832031 94.40625 53.691406 95.011719 54.007812 96.152344 C 54.175781 96.734375 54.6875 97.144531 55.21875 97.363281 C 55.777344 97.582031 56.382812 97.605469 56.964844 97.628906 C 58.515625 97.703125 59.632812 97.507812 61.183594 97.582031 C 61.574219 97.121094 61.765625 95.207031 60.917969 94.378906 C 60.75 94.210938 60.507812 94.089844 60.335938 93.894531 C 59.972656 93.484375 60.167969 92.878906 60.070312 92.34375 C 59.414062 88.804688 63.902344 83.152344 64.457031 81.769531 C 64.675781 81.238281 65.089844 79.734375 64.894531 79.199219 C 64.726562 78.691406 62.46875 78.859375 62.035156 78.691406 C 62.007812 78.691406 61.960938 78.691406 61.914062 78.664062 C 62.761719 78.496094 63.609375 78.328125 64.433594 78.109375 C 65.015625 77.960938 65.621094 77.792969 66.035156 77.355469 C 66.398438 76.96875 66.519531 76.433594 66.664062 75.925781 C 67.078125 74.398438 67.707031 72.871094 68.847656 71.753906 C 69.988281 70.640625 71.6875 70.007812 73.1875 70.492188 C 74.160156 70.808594 75.542969 71.367188 75.929688 70.421875 L 74.644531 69.378906 C 76.125 69.910156 77.699219 70.152344 79.277344 70.105469 C 77.917969 71.195312 76.292969 72.335938 74.597656 71.972656 C 73.917969 71.828125 73.3125 71.4375 72.632812 71.292969 C 71.394531 71.050781 70.109375 71.730469 69.285156 72.699219 C 68.460938 73.671875 68 74.882812 67.5625 76.070312 C 67.441406 76.410156 67.320312 76.796875 67.441406 77.113281 C 67.5625 77.429688 67.902344 77.597656 68.21875 77.71875 C 69.601562 78.300781 71.175781 78.398438 72.605469 77.988281 C 73.480469 77.746094 74.304688 77.332031 75.203125 77.332031 C 75.929688 77.332031 76.632812 77.597656 77.359375 77.597656 C 79.566406 77.597656 81 75.296875 82.960938 74.300781 C 83.8125 73.863281 84.832031 73.671875 85.535156 73.015625 C 86.625 71.996094 86.648438 70.300781 86.578125 68.820312 C 86.550781 68.1875 86.503906 67.535156 86.1875 67 C 85.824219 66.394531 85.144531 66.054688 84.515625 65.765625 C 82.1875 64.648438 79.835938 63.507812 77.507812 62.394531 C 79.929688 63.460938 82.503906 64.210938 85.144531 64.601562 C 85.945312 64.722656 86.792969 64.816406 87.375 65.375 C 88.226562 66.175781 88.128906 67.535156 87.789062 68.648438 C 87.375 69.960938 86.671875 71.246094 87.109375 72.628906 C 87.523438 73.9375 88.832031 74.808594 90.191406 74.738281 C 91.597656 74.664062 92.421875 73.671875 93.195312 72.722656 C 95.960938 69.351562 98.726562 65.984375 101.464844 62.613281 C 101.855469 62.152344 102.046875 61.203125 101.464844 61.15625 C 101.734375 61.15625 102.121094 60.960938 102.414062 60.9375 C 102.75 60.9375 103.066406 60.9375 103.382812 61.035156 C 104.0625 61.203125 104.691406 61.542969 105.273438 61.90625 C 106.511719 62.660156 107.722656 63.410156 109.105469 63.871094 C 109.980469 64.164062 110.898438 64.308594 111.820312 64.261719 C 112.28125 64.238281 113.90625 64.089844 114.003906 63.484375 C 114.003906 63.363281 113.957031 63.242188 113.859375 63.195312 Z M 96.714844 64.792969 C 96.496094 65.035156 96.132812 65.253906 95.863281 65.085938 C 95.550781 64.890625 95.644531 64.40625 95.816406 64.066406 C 96.179688 63.410156 96.714844 62.855469 97.367188 62.488281 L 97.367188 62.683594 C 97.441406 63.4375 97.199219 64.210938 96.714844 64.792969 Z M 96.714844 64.792969 " fill-opacity="1" fill-rule="nonzero"/></g><g fill="#ffffff" fill-opacity="1"><g transform="translate(118.050002, 80.247589)"><g><path d="M 22.296875 0 L 28.804688 0 L 28.804688 -8.945312 L 24.535156 -8.945312 C 20.46875 -8.945312 18.570312 -10.910156 18.570312 -15.046875 L 18.570312 -27.175781 L 28.328125 -27.175781 L 28.328125 -35.582031 L 18.570312 -35.582031 L 18.570312 -44.796875 L 10.574219 -44.796875 L 9.960938 -40.1875 C 9.421875 -36.53125 8.402344 -35.582031 4.539062 -35.582031 L 1.355469 -35.582031 L 1.355469 -27.175781 L 8.269531 -27.175781 L 8.269531 -13.488281 C 8.269531 -4.8125 13.285156 0 22.296875 0 Z M 22.296875 0 "/></g></g></g><g fill="#ffffff" fill-opacity="1"><g transform="translate(149.698587, 80.247589)"><g><path d="M 21.957031 0.949219 C 30.699219 0.949219 37.613281 -3.523438 40.730469 -11.046875 L 30.292969 -11.046875 C 28.601562 -8.675781 25.550781 -7.320312 22.160156 -7.320312 C 17.484375 -7.320312 13.824219 -9.960938 12.875 -14.84375 L 41.410156 -14.84375 C 42.019531 -27.855469 34.292969 -36.53125 22.09375 -36.53125 C 10.574219 -36.53125 2.644531 -28.871094 2.644531 -17.824219 C 2.644531 -6.710938 10.503906 0.949219 21.957031 0.949219 Z M 12.945312 -21.347656 C 14.097656 -25.6875 17.621094 -28.328125 22.160156 -28.328125 C 26.90625 -28.328125 30.292969 -25.6875 31.445312 -21.347656 Z M 12.945312 -21.347656 "/></g></g></g><g fill="#ffffff" fill-opacity="1"><g transform="translate(193.681296, 80.247589)"><g><path d="M 22.296875 0 L 28.804688 0 L 28.804688 -8.945312 L 24.535156 -8.945312 C 20.46875 -8.945312 18.570312 -10.910156 18.570312 -15.046875 L 18.570312 -27.175781 L 28.328125 -27.175781 L 28.328125 -35.582031 L 18.570312 -35.582031 L 18.570312 -44.796875 L 10.574219 -44.796875 L 9.960938 -40.1875 C 9.421875 -36.53125 8.402344 -35.582031 4.539062 -35.582031 L 1.355469 -35.582031 L 1.355469 -27.175781 L 8.269531 -27.175781 L 8.269531 -13.488281 C 8.269531 -4.8125 13.285156 0 22.296875 0 Z M 22.296875 0 "/></g></g></g><g fill="#ffffff" fill-opacity="1"><g transform="translate(225.329881, 80.247589)"><g><path d="M 5.152344 0 L 15.453125 0 L 15.453125 -18.707031 C 15.453125 -24.332031 18.570312 -27.71875 23.3125 -27.71875 C 27.71875 -27.71875 30.363281 -24.738281 30.363281 -19.519531 L 30.363281 0 L 40.664062 0 L 40.664062 -20.535156 C 40.664062 -30.429688 35.105469 -36.53125 25.890625 -36.53125 C 21.890625 -36.53125 18.164062 -35.308594 15.453125 -32.871094 L 15.453125 -50.152344 L 5.152344 -50.152344 Z M 5.152344 0 "/></g></g></g><g fill="#ffffff" fill-opacity="1"><g transform="translate(270.464698, 80.247589)"><g><path d="M 21.957031 0.949219 C 30.699219 0.949219 37.613281 -3.523438 40.730469 -11.046875 L 30.292969 -11.046875 C 28.601562 -8.675781 25.550781 -7.320312 22.160156 -7.320312 C 17.484375 -7.320312 13.824219 -9.960938 12.875 -14.84375 L 41.410156 -14.84375 C 42.019531 -27.855469 34.292969 -36.53125 22.09375 -36.53125 C 10.574219 -36.53125 2.644531 -28.871094 2.644531 -17.824219 C 2.644531 -6.710938 10.503906 0.949219 21.957031 0.949219 Z M 12.945312 -21.347656 C 14.097656 -25.6875 17.621094 -28.328125 22.160156 -28.328125 C 26.90625 -28.328125 30.292969 -25.6875 31.445312 -21.347656 Z M 12.945312 -21.347656 "/></g></g></g><g fill="#ffffff" fill-opacity="1"><g transform="translate(314.447407, 80.247589)"><g><path d="M 5.152344 0 L 15.453125 0 L 15.453125 -15.722656 C 15.453125 -23.382812 19.042969 -26.226562 24.941406 -26.226562 L 28.871094 -26.226562 L 28.871094 -35.582031 L 25.007812 -35.582031 C 19.789062 -35.582031 16.46875 -34.15625 14.164062 -30.835938 L 12.808594 -35.582031 L 5.152344 -35.582031 Z M 5.152344 0 "/></g></g></g><g fill="#ff914d" fill-opacity="1"><g transform="translate(345.63747, 80.247589)"><g><path d="M 19.042969 0.882812 C 27.71875 0.882812 33.34375 -3.117188 33.34375 -9.21875 C 33.34375 -14.707031 28.734375 -18.433594 19.859375 -20.195312 C 12.539062 -21.621094 10.03125 -23.042969 10.03125 -26.023438 C 10.03125 -29.140625 13.011719 -31.039062 18.09375 -31.039062 C 23.449219 -31.039062 26.636719 -28.9375 27.042969 -25.074219 L 32.667969 -25.074219 C 32.191406 -31.988281 26.703125 -36.054688 18.027344 -36.054688 C 9.554688 -36.054688 4.40625 -32.328125 4.40625 -26.023438 C 4.40625 -20.46875 8.675781 -17.078125 17.757812 -15.585938 C 24.601562 -14.4375 27.71875 -12.539062 27.71875 -9.351562 C 27.71875 -6.167969 24.464844 -4.203125 19.113281 -4.203125 C 13.082031 -4.203125 9.488281 -6.777344 9.285156 -11.046875 L 3.660156 -11.046875 C 3.796875 -3.863281 9.828125 0.882812 19.042969 0.882812 Z M 19.042969 0.882812 "/></g></g></g><g fill="#ff914d" fill-opacity="1"><g transform="translate(382.639891, 80.247589)"><g><path d="M 25.484375 0.882812 C 35.851562 0.882812 43.375 -6.914062 43.375 -17.621094 C 43.375 -28.261719 35.851562 -36.054688 25.484375 -36.054688 C 19.722656 -36.054688 14.84375 -33.683594 11.65625 -29.753906 L 10.980469 -35.175781 L 6.304688 -35.175781 L 6.304688 13.554688 L 11.996094 13.554688 L 11.996094 -5.015625 C 15.179688 -1.355469 19.925781 0.882812 25.484375 0.882812 Z M 11.792969 -17.621094 C 11.792969 -25.210938 17.148438 -30.632812 24.738281 -30.632812 C 32.394531 -30.632812 37.683594 -25.210938 37.683594 -17.621094 C 37.683594 -9.960938 32.394531 -4.609375 24.738281 -4.609375 C 17.148438 -4.609375 11.792969 -9.960938 11.792969 -17.621094 Z M 11.792969 -17.621094 "/></g></g></g><g fill="#ff914d" fill-opacity="1"><g transform="translate(429.536716, 80.247589)"><g><path d="M 17.824219 0.542969 C 23.515625 0.542969 27.992188 -1.289062 31.175781 -4.878906 L 31.785156 0 L 36.460938 0 L 36.460938 -22.363281 C 36.460938 -30.496094 30.292969 -36.054688 21.078125 -36.054688 C 13.417969 -36.054688 7.660156 -31.921875 6.097656 -25.144531 L 11.859375 -25.144531 C 13.011719 -28.601562 16.605469 -30.769531 21.144531 -30.769531 C 27.109375 -30.769531 30.769531 -27.449219 30.769531 -21.957031 L 30.769531 -20.671875 L 16.402344 -20.671875 C 9.082031 -20.671875 4.269531 -16.535156 4.269531 -10.164062 C 4.269531 -3.523438 9.351562 0.542969 17.824219 0.542969 Z M 9.960938 -10.234375 C 9.960938 -13.554688 12.671875 -15.65625 16.605469 -15.65625 L 30.835938 -15.65625 C 30.632812 -9.148438 25.347656 -4.539062 18.027344 -4.539062 C 13.082031 -4.539062 9.960938 -6.777344 9.960938 -10.234375 Z M 9.960938 -10.234375 "/></g></g></g><g fill="#ff914d" fill-opacity="1"><g transform="translate(471.554101, 80.247589)"><g><path d="M 21.621094 0.882812 C 30.429688 0.882812 37.273438 -4.40625 39.648438 -12.945312 L 33.617188 -12.945312 C 31.851562 -7.863281 27.3125 -4.609375 21.621094 -4.609375 C 14.367188 -4.609375 9.21875 -9.960938 9.21875 -17.621094 C 9.21875 -25.210938 14.367188 -30.632812 21.621094 -30.632812 C 26.972656 -30.632812 31.378906 -27.71875 33.480469 -22.839844 L 39.242188 -22.839844 C 37.476562 -30.769531 30.363281 -36.054688 21.621094 -36.054688 C 11.046875 -36.054688 3.523438 -28.328125 3.523438 -17.621094 C 3.523438 -6.84375 11.046875 0.882812 21.621094 0.882812 Z M 21.621094 0.882812 "/></g></g></g><g fill="#ff914d" fill-opacity="1"><g transform="translate(514.520279, 80.247589)"><g><path d="M 21.550781 0.882812 C 29.480469 0.882812 35.988281 -3.386719 38.832031 -10.234375 L 32.394531 -10.234375 C 30.226562 -6.507812 26.226562 -4.472656 21.621094 -4.472656 C 14.910156 -4.472656 10.164062 -8.675781 9.285156 -15.316406 L 39.714844 -15.316406 C 40.121094 -27.582031 32.871094 -36.054688 21.621094 -36.054688 C 10.980469 -36.054688 3.523438 -28.464844 3.523438 -17.621094 C 3.523438 -6.710938 10.910156 0.882812 21.550781 0.882812 Z M 9.351562 -20.332031 C 10.371094 -26.566406 15.113281 -30.699219 21.621094 -30.699219 C 28.058594 -30.699219 32.800781 -26.769531 34.023438 -20.332031 Z M 9.351562 -20.332031 "/></g></g></g></svg>