<svg xmlns="http://www.w3.org/2000/svg" xmlns:xlink="http://www.w3.org/1999/xlink" width="1200" zoomAndPan="magnify" viewBox="0 0 900 470.999988" height="628" preserveAspectRatio="xMidYMid meet" version="1.0"><defs><clipPath id="e065beb700"><path d="M 219.929688 62.480469 L 428 62.480469 L 428 450.828125 L 219.929688 450.828125 Z M 219.929688 62.480469 " clip-rule="nonzero"/></clipPath><clipPath id="6f47a40780"><path d="M 367 118.902344 L 631.339844 118.902344 L 631.339844 400 L 367 400 Z M 367 118.902344 " clip-rule="nonzero"/></clipPath><clipPath id="e5160f6c29"><path d="M 253 62.328125 L 310 62.328125 L 310 97 L 253 97 Z M 253 62.328125 " clip-rule="nonzero"/></clipPath><clipPath id="927c4e3bf9"><path d="M 219.242188 113 L 342 113 L 342 274 L 219.242188 274 Z M 219.242188 113 " clip-rule="nonzero"/></clipPath><clipPath id="c4c0f19d8d"><path d="M 231.207031 400.273438 L 350.753906 400.273438 L 350.753906 450.828125 L 231.207031 450.828125 Z M 231.207031 400.273438 " clip-rule="nonzero"/></clipPath><clipPath id="82a830659c"><path d="M 439 118.902344 L 631.339844 118.902344 L 631.339844 288 L 439 288 Z M 439 118.902344 " clip-rule="nonzero"/></clipPath></defs><g clip-path="url(#e065beb700)"><path fill="#999999" d="M 251.71875 116.910156 C 251.71875 117.109375 251.753906 117.3125 251.832031 117.511719 C 251.730469 117.4375 251.644531 117.359375 251.566406 117.285156 Z M 285.25 109.949219 C 285.25 109.925781 285.261719 109.914062 285.289062 109.914062 C 287.417969 109.207031 289.296875 107.09375 290.929688 103.554688 C 291.90625 101.472656 292.582031 100.109375 292.957031 99.457031 C 293.0625 99.300781 293.160156 99.148438 293.261719 99.003906 C 293.171875 99.140625 293.085938 99.277344 292.996094 99.417969 C 292.59375 100.09375 291.917969 101.472656 290.964844 103.554688 C 290.917969 103.632812 290.878906 103.71875 290.851562 103.820312 C 290.578125 104.371094 290.304688 104.882812 290.027344 105.359375 C 288.597656 107.84375 287.007812 109.375 285.25 109.949219 Z M 285.628906 126.164062 C 278.585938 126.0625 271.867188 125.109375 265.476562 123.304688 C 266.554688 123.429688 267.71875 123.542969 268.972656 123.644531 C 273.535156 124.019531 276.277344 124.253906 277.207031 124.355469 C 277.433594 124.382812 277.554688 124.394531 277.582031 124.394531 C 280.714844 124.746094 283.398438 125.335938 285.628906 126.164062 Z M 368.445312 142.375 C 368.621094 142.125 368.785156 141.839844 368.9375 141.566406 L 394.007812 151.675781 C 392.503906 152.480469 390.800781 153.363281 388.898438 154.34375 L 386.457031 155.429688 C 383.472656 156.933594 380.953125 158.488281 378.898438 160.09375 C 378.070312 160.769531 377.292969 161.621094 376.566406 162.648438 C 375.890625 162.925781 375.199219 163.277344 374.5 163.707031 C 372.292969 163.527344 370.125 163.941406 367.996094 164.945312 L 340.363281 177.886719 L 318.558594 161.03125 C 325.152344 158.5 333.25 155.289062 342.847656 151.402344 C 342.894531 151.175781 342.945312 150.988281 342.996094 150.839844 C 343.847656 150.488281 344.738281 150.050781 345.664062 149.449219 C 346.441406 148.945312 347.03125 148.394531 347.429688 147.640625 C 348.308594 147.640625 349.210938 147.640625 350.140625 147.640625 C 360.238281 147.640625 366.34375 145.859375 368.445312 142.375 Z M 279.011719 102.914062 C 278.429688 103.703125 278.035156 104.574219 277.828125 105.53125 C 277.890625 105.203125 277.96875 104.882812 278.070312 104.570312 C 278.296875 103.96875 278.585938 103.417969 278.9375 102.914062 C 279.460938 102.234375 280.058594 101.710938 280.738281 101.335938 C 280.089844 101.714844 279.511719 102.242188 279.011719 102.914062 Z M 277.957031 108.933594 L 277.921875 108.972656 C 277.804688 108.5 277.726562 108.023438 277.695312 107.542969 C 277.738281 108.015625 277.828125 108.480469 277.957031 108.933594 Z M 296.867188 95.449219 C 297.09375 95.222656 297.320312 94.96875 297.546875 94.679688 C 298.046875 94.050781 298.585938 93.273438 299.160156 92.347656 L 299.199219 92.308594 L 300.25 90.390625 C 300.300781 90.339844 300.328125 90.300781 300.328125 90.277344 C 300.351562 90.25 300.363281 90.210938 300.363281 90.164062 C 300.414062 90.140625 300.4375 90.113281 300.4375 90.089844 L 300.964844 89.148438 C 300.992188 89.097656 301.003906 89.0625 301.003906 89.039062 C 301.078125 88.933594 301.152344 88.824219 301.230469 88.695312 L 301.378906 88.546875 C 301.027344 89.074219 300.691406 89.648438 300.363281 90.277344 C 299.109375 92.703125 297.945312 94.429688 296.867188 95.449219 Z M 343.972656 420.359375 C 338.886719 420.359375 333.859375 420.546875 328.898438 420.921875 C 327.820312 419.867188 327.058594 418.691406 326.605469 417.386719 C 326.328125 416.636719 326.066406 415.882812 325.816406 415.132812 C 324.511719 411.195312 323.625 407.144531 323.144531 402.980469 C 322.070312 394.226562 321.390625 385.3125 321.117188 376.234375 C 320.890625 367.707031 321.03125 359.246094 321.53125 350.847656 C 322.054688 342.367188 322.617188 333.929688 323.222656 325.527344 C 323.671875 319.9375 324.1875 314.382812 324.761719 308.867188 C 325.316406 303.773438 325.878906 298.722656 326.453125 293.703125 C 327.007812 288.566406 327.542969 283.460938 328.070312 278.398438 C 328.472656 274.457031 328.5625 270.519531 328.335938 266.585938 L 338.371094 263.386719 C 332.683594 241.445312 327.128906 219.273438 321.71875 196.882812 L 330.628906 203.726562 C 332.609375 205.230469 334.8125 206.125 337.242188 206.398438 C 339.675781 206.671875 342.03125 206.285156 344.3125 205.230469 L 379.199219 188.867188 C 381.578125 187.714844 383.4375 186.074219 384.761719 183.941406 C 385.0625 183.464844 385.328125 182.976562 385.550781 182.472656 C 386.003906 182.25 386.46875 181.996094 386.941406 181.71875 C 389.398438 180.820312 391.390625 179.675781 392.917969 178.300781 C 394.726562 176.441406 395.976562 175.027344 396.679688 174.050781 C 398.058594 172.292969 398.484375 170.5625 397.957031 168.855469 C 398.308594 166.777344 397.871094 165.058594 396.640625 163.707031 C 396.566406 163.078125 396.453125 161.859375 396.304688 160.054688 C 395.925781 158.601562 395.113281 157.960938 393.859375 158.136719 L 393.632812 157.347656 C 394.113281 156.820312 394.699219 156.28125 395.402344 155.730469 L 395.550781 155.652344 C 396.054688 155.304688 396.695312 154.925781 397.46875 154.523438 C 398.019531 154.226562 398.535156 153.949219 399.011719 153.695312 L 407.582031 157.15625 C 413.046875 159.363281 416.15625 158.976562 416.90625 155.992188 L 427.433594 113.300781 C 428.183594 110.289062 425.828125 107.691406 420.363281 105.511719 L 371.945312 85.953125 C 366.503906 83.746094 363.410156 84.132812 362.65625 87.117188 L 355.550781 115.855469 C 354.300781 116.355469 352.945312 117.160156 351.492188 118.261719 C 349.488281 119.792969 346.292969 123.65625 341.90625 129.851562 C 341.402344 130.125 340.902344 130.425781 340.402344 130.75 C 337.996094 129.597656 335.300781 129.984375 332.320312 131.917969 C 332.042969 131.816406 331.792969 131.742188 331.566406 131.691406 C 322.191406 134.976562 313.785156 137.648438 306.34375 139.703125 L 287.09375 124.65625 L 283.558594 121.574219 C 283.109375 120.546875 282.734375 119.265625 282.433594 117.738281 C 282.957031 117.8125 283.546875 117.914062 284.199219 118.035156 C 286.203125 118.390625 287.65625 118.589844 288.5625 118.640625 C 291.945312 118.941406 294.460938 118.164062 296.117188 116.308594 C 297.546875 111.742188 298.546875 108.871094 299.121094 107.691406 C 300.601562 104.605469 302.632812 102.527344 305.214844 101.449219 C 304.710938 99.46875 304.53125 96.785156 304.804688 93.398438 C 304.878906 92.195312 304.957031 91.117188 304.957031 90.164062 C 304.957031 90.089844 304.957031 90.011719 304.957031 89.9375 C 304.957031 87.757812 305.167969 86.152344 305.066406 85.121094 C 304.691406 85.277344 304.367188 85.476562 304.011719 85.726562 L 304.070312 85.464844 C 304.167969 85.410156 304.273438 85.199219 304.347656 85.199219 L 304.3125 85.199219 C 304.5625 85.199219 304.828125 85.097656 305.101562 84.972656 C 307.054688 83.921875 308.421875 83.082031 309.199219 82.300781 C 309.5 81.976562 309.75 81.714844 309.953125 81.4375 C 310.726562 80.308594 310.878906 79.148438 310.402344 77.917969 C 310.050781 76.941406 309.585938 75.984375 309.011719 75.035156 C 307.730469 72.851562 305.964844 70.898438 303.710938 69.167969 C 300.980469 67.085938 297.644531 65.472656 293.710938 64.320312 C 289.902344 62.914062 285.914062 62.316406 281.757812 62.515625 C 277.644531 62.691406 273.734375 63.582031 270.027344 65.1875 C 262.910156 68.34375 257.945312 73.199219 255.136719 79.746094 C 254.761719 80.621094 254.425781 81.527344 254.125 82.453125 C 253.75 83.605469 253.484375 84.8125 253.335938 86.0625 C 253.335938 86.261719 253.324219 86.464844 253.296875 86.664062 C 253.121094 88.644531 253.222656 90.714844 253.597656 92.871094 C 254.097656 95.578125 255.054688 98.398438 256.453125 101.335938 C 256.605469 102.1875 256.828125 103.003906 257.132812 103.78125 L 253.976562 111.453125 C 253.898438 111.628906 253.820312 111.808594 253.75 111.984375 C 253.421875 112.609375 253.070312 113.3125 252.695312 114.085938 L 253.410156 111.941406 L 246.152344 113.222656 L 234.726562 113.433594 C 226.882812 115.386719 222.167969 119.054688 220.589844 124.320312 C 220.566406 124.320312 220.75 124.320312 220.75 124.320312 C 220.75 124.320312 220.75 124.21875 220.75 124.320312 C 219.246094 127.550781 220.003906 131.402344 221.460938 135.871094 C 221.785156 138.527344 222.152344 141.199219 222.679688 143.878906 C 224.007812 150.453125 225.207031 156.28125 226.335938 161.371094 C 227.535156 166.363281 229.425781 170.800781 232.03125 174.6875 C 233.613281 176.871094 235.433594 178.75 237.515625 180.328125 C 240.496094 193.019531 242.136719 205.921875 242.433594 219.035156 C 242.660156 226.710938 242.144531 234.433594 240.894531 242.207031 C 240.113281 247.625 239.386719 253.105469 238.710938 258.648438 L 246.71875 262.746094 L 246.683594 267.375 C 246.507812 275.902344 245.964844 284.539062 245.0625 293.292969 C 244.210938 301.015625 243.398438 308.738281 242.621094 316.460938 C 241.820312 323.910156 240 331.109375 237.167969 338.054688 C 236.066406 340.890625 235.203125 343.574219 234.574219 346.105469 C 232.695312 354.179688 231.578125 362.53125 231.179688 371.160156 C 230.851562 378.351562 229.769531 385.515625 229.019531 392.636719 L 229.019531 392.671875 C 227.515625 400.394531 227.480469 408.144531 227.980469 415.917969 C 228.207031 419.933594 229.496094 423.492188 231.878906 426.605469 C 231.078125 426.5 231.070312 427.242188 231.875 428.824219 C 232.824219 430.777344 234.425781 431.871094 236.683594 432.09375 C 239.441406 432.722656 242.03125 432.410156 244.464844 431.152344 C 249.25 428.695312 251.730469 424.785156 251.90625 419.417969 L 253.523438 416.035156 C 254.652344 414.601562 256.027344 413.386719 257.65625 412.382812 C 261.492188 409.851562 263.472656 406.492188 263.597656 402.304688 C 263.699219 401.976562 263.75 401.664062 263.75 401.363281 C 263.800781 400.234375 263.636719 399.257812 263.257812 398.425781 C 261.78125 395.195312 259.238281 393.953125 255.628906 394.703125 C 255.90625 393.125 256.164062 391.554688 256.417969 390.003906 C 256.46875 389.675781 256.519531 389.347656 256.566406 389.023438 C 257.695312 381.953125 258.933594 374.921875 260.289062 367.921875 C 261.46875 361.550781 262.910156 355.296875 264.613281 349.152344 C 266.742188 341.078125 268.960938 333.089844 271.269531 325.191406 C 272.796875 320.046875 274.074219 314.882812 275.101562 309.691406 C 276.230469 303.773438 277.859375 297.941406 279.988281 292.199219 C 280.113281 291.949219 280.226562 291.6875 280.324219 291.414062 L 281.53125 297.277344 C 281.679688 299.3125 282.09375 301.414062 282.769531 303.597656 C 285.328125 312.25 287.257812 320.914062 288.5625 329.59375 C 289.839844 337.992188 290.589844 346.433594 290.816406 354.90625 C 291.089844 363.933594 291.066406 372.9375 290.742188 381.914062 C 290.464844 388.734375 290.964844 395.554688 292.246094 402.378906 C 292.492188 403.730469 292.71875 405.074219 292.917969 406.402344 C 293.925781 413.675781 294.074219 420.996094 293.371094 428.371094 C 292.746094 434.992188 294.234375 440.949219 297.84375 446.238281 C 298.019531 446.691406 298.222656 447.117188 298.449219 447.519531 C 299.726562 449.777344 301.691406 450.878906 304.347656 450.828125 C 310.011719 450.703125 315.492188 449.648438 320.777344 447.667969 L 321.042969 443.792969 C 322.496094 443.394531 323.960938 443.027344 325.4375 442.703125 C 329.550781 442.125 333.660156 441.699219 337.769531 441.425781 C 345.789062 440.347656 349.9375 435.945312 350.210938 428.21875 L 350.398438 424.496094 C 348.921875 422.0625 346.78125 420.6875 343.972656 420.359375 " fill-opacity="1" fill-rule="nonzero"/></g><g clip-path="url(#6f47a40780)"><path fill="#999999" d="M 397.582031 354.117188 L 401.714844 356.449219 C 401.667969 356.523438 401.582031 356.589844 401.453125 356.636719 C 400.078125 357.414062 398.960938 358.332031 398.109375 359.382812 C 398.109375 358.957031 398.042969 358.558594 397.921875 358.179688 C 398.121094 357.703125 398.222656 357.164062 398.222656 356.5625 C 398.222656 355.660156 398.007812 354.84375 397.582031 354.117188 Z M 631.304688 118.941406 L 619.046875 126.011719 L 558.484375 169.269531 L 578.972656 180.632812 L 547.769531 230.808594 L 480.511719 138.953125 L 468.222656 146.027344 L 406.867188 243.375 L 407.09375 243.488281 L 399.535156 255.449219 L 398.996094 255.148438 L 380.898438 266.660156 L 380.898438 287.347656 L 399.546875 297.84375 L 404.957031 295.324219 L 404.957031 300.890625 L 423.492188 311.726562 L 429.019531 308.453125 L 429.019531 310.21875 L 397.867188 328.351562 C 397.742188 328.050781 397.617188 327.773438 397.519531 327.523438 C 397.996094 326.617188 398.226562 325.726562 398.226562 324.851562 C 398.226562 324.300781 398.125 323.785156 397.925781 323.308594 C 398.125 322.882812 398.222656 322.394531 398.222656 321.84375 C 398.222656 320.886719 397.984375 320.011719 397.507812 319.210938 C 397.984375 318.308594 398.222656 317.414062 398.222656 316.539062 C 398.222656 314.054688 396.707031 311.9375 393.671875 310.183594 C 390.613281 308.425781 386.941406 307.550781 382.65625 307.550781 C 378.324219 307.550781 374.625 308.425781 371.566406 310.183594 C 368.558594 311.9375 367.054688 314.054688 367.054688 316.539062 C 367.054688 317.414062 367.292969 318.28125 367.769531 319.132812 C 367.292969 319.984375 367.054688 320.886719 367.054688 321.84375 C 367.054688 322.320312 367.105469 322.808594 367.207031 323.308594 C 367.105469 323.785156 367.054688 324.300781 367.054688 324.851562 C 367.054688 325.726562 367.292969 326.59375 367.769531 327.449219 C 367.292969 328.300781 367.054688 329.203125 367.054688 330.15625 C 367.054688 330.707031 367.144531 331.222656 367.316406 331.695312 C 367.144531 332.226562 367.054688 332.800781 367.054688 333.429688 C 367.054688 334.257812 367.269531 335.09375 367.695312 335.949219 C 367.269531 336.726562 367.054688 337.566406 367.054688 338.46875 C 367.054688 339.320312 367.230469 340.109375 367.582031 340.839844 C 367.230469 341.566406 367.054688 342.34375 367.054688 343.167969 C 367.054688 344.074219 367.269531 344.914062 367.695312 345.691406 C 367.269531 346.492188 367.054688 347.347656 367.054688 348.246094 C 367.054688 348.722656 367.144531 349.265625 367.316406 349.867188 C 367.144531 350.417969 367.054688 350.996094 367.054688 351.597656 C 367.054688 352.425781 367.269531 353.226562 367.695312 354.003906 C 367.492188 354.453125 367.332031 354.820312 367.207031 355.09375 C 367.105469 355.59375 367.054688 356.085938 367.054688 356.5625 C 367.054688 357.113281 367.144531 357.652344 367.316406 358.179688 C 367.144531 358.730469 367.054688 359.308594 367.054688 359.910156 C 367.054688 360.8125 367.292969 361.691406 367.769531 362.542969 C 367.292969 363.371094 367.054688 364.273438 367.054688 365.25 C 367.105469 367.707031 368.632812 369.816406 371.640625 371.570312 C 374.726562 373.328125 378.394531 374.203125 382.65625 374.203125 C 386.941406 374.203125 390.613281 373.328125 393.671875 371.570312 C 395.074219 370.71875 396.164062 369.816406 396.941406 368.863281 C 396.992188 369.214844 397.09375 369.578125 397.242188 369.953125 C 397.042969 370.480469 396.941406 371.042969 396.941406 371.644531 C 396.941406 372.121094 397.003906 372.636719 397.132812 373.1875 C 397.257812 373.488281 397.34375 373.765625 397.394531 374.015625 C 397.09375 374.71875 396.941406 375.496094 396.941406 376.347656 C 396.941406 376.949219 396.917969 377.550781 397.117188 378.152344 C 396.917969 378.65625 396.6875 379.230469 396.6875 379.882812 C 396.6875 380.183594 396.6875 380.460938 396.6875 380.710938 C 396.6875 380.109375 395.4375 379.535156 394.484375 378.980469 C 393.507812 378.429688 392.542969 377.976562 391.464844 377.625 C 390.386719 377.199219 389.28125 376.902344 388.078125 376.726562 C 386.621094 376.472656 385.136719 376.347656 383.578125 376.347656 C 381.699219 376.347656 379.929688 376.535156 378.253906 376.914062 C 376.144531 377.3125 374.246094 378.003906 372.539062 378.980469 C 371.539062 379.585938 370.664062 380.273438 369.910156 381.050781 C 368.660156 382.328125 368.03125 383.746094 368.03125 385.300781 C 368.03125 386.277344 368.246094 387.179688 368.671875 388.007812 C 368.246094 388.910156 368.035156 389.851562 368.035156 390.832031 C 368.085938 393.289062 369.625 395.394531 372.65625 397.148438 C 375.664062 398.90625 379.3125 399.78125 383.597656 399.78125 C 387.933594 399.78125 391.605469 398.90625 394.609375 397.148438 C 397.667969 395.394531 399.199219 393.289062 399.199219 390.832031 C 399.199219 390.152344 399.085938 389.574219 398.859375 389.101562 C 399.636719 389.703125 400.542969 390.339844 401.566406 391.019531 C 404.625 392.75 408.269531 393.613281 412.507812 393.613281 C 416.816406 393.613281 420.511719 392.75 423.597656 391.019531 C 426.605469 389.261719 428.109375 387.15625 428.109375 384.699219 C 428.109375 383.894531 427.933594 383.109375 427.582031 382.328125 C 427.933594 381.476562 428.109375 380.664062 428.109375 379.882812 C 428.109375 379.28125 428.019531 378.707031 427.847656 378.152344 C 428.019531 377.550781 428.109375 376.949219 428.109375 376.347656 C 428.109375 375.570312 427.933594 374.792969 427.582031 374.015625 C 427.933594 373.238281 428.109375 372.300781 428.109375 371.574219 L 477.167969 399.671875 L 477.246094 399.671875 L 497.429688 388.199219 C 498.257812 390.078125 499.675781 391.675781 501.679688 392.804688 C 505.9375 395.085938 510.625 395.921875 515.738281 395.222656 C 519.421875 394.972656 522.746094 393.726562 525.703125 391.449219 C 528.183594 389.441406 528.816406 386.941406 527.660156 383.933594 L 528.265625 381.765625 C 528.265625 381.589844 528.265625 381.4375 528.265625 381.3125 C 528.265625 380.785156 528.203125 380.25 528 379.695312 C 528.148438 379.269531 528.253906 378.84375 528.277344 378.417969 C 528.304688 378.289062 528.324219 378.179688 528.324219 378.078125 C 528.324219 377.175781 528.117188 376.296875 527.691406 375.445312 C 528.117188 374.667969 528.332031 373.828125 528.332031 372.925781 C 528.332031 372.449219 528.234375 371.957031 528.03125 371.457031 C 528.058594 371.410156 528.082031 371.347656 528.109375 371.269531 L 545.558594 381.199219 L 564.355469 370.328125 L 564.355469 349.492188 L 545.261719 338.394531 L 539.542969 341.929688 L 539.542969 314.507812 L 520.203125 303.523438 L 515.484375 306.304688 L 515.484375 280.277344 L 497.023438 269.066406 L 490.671875 272.980469 L 490.671875 246.195312 L 471.851562 235.476562 L 459.003906 243.148438 L 454.460938 240.554688 L 479.269531 200.679688 L 542.882812 287.574219 L 554.871094 280.992188 L 607.46875 196.390625 L 619.046875 202.785156 L 631.339844 195.714844 L 631.304688 118.941406 " fill-opacity="1" fill-rule="nonzero"/></g><path fill="#ffffff" d="M 364.613281 111.417969 L 359.796875 130.675781 L 365.027344 132.820312 L 369.835938 113.523438 Z M 399.726562 146.8125 L 405.097656 125.148438 L 399.875 123.039062 L 394.5 144.710938 Z M 398.972656 149.148438 L 355.929688 131.765625 L 358.710938 120.480469 C 360.515625 118.726562 361.59375 117.539062 361.941406 116.910156 C 361.339844 116.257812 360.675781 115.804688 359.953125 115.554688 L 365.664062 92.457031 L 423.183594 115.703125 L 413.445312 155.011719 L 403.75 151.105469 C 404.574219 150.523438 405.289062 149.933594 405.890625 149.335938 L 409.5 150.800781 L 411.265625 143.652344 L 406.039062 141.546875 L 404.910156 146.0625 C 403.835938 146.636719 402.421875 147.390625 400.664062 148.316406 C 400.1875 148.542969 399.625 148.820312 398.972656 149.148438 Z M 251.832031 117.511719 C 251.753906 117.3125 251.71875 117.109375 251.71875 116.910156 L 252.695312 114.085938 C 253.070312 113.3125 253.421875 112.609375 253.75 111.984375 C 253.871094 112.082031 254.023438 112.195312 254.199219 112.316406 C 255.375 113.171875 256.566406 113.898438 257.769531 114.5 C 262.207031 116.558594 268.449219 117.585938 276.492188 117.585938 C 276.96875 117.585938 278.035156 117.5 279.6875 117.324219 C 279.8125 117.371094 279.949219 117.421875 280.101562 117.472656 C 280.679688 117.5 281.453125 117.585938 282.433594 117.738281 C 282.734375 119.265625 283.109375 120.546875 283.558594 121.574219 L 283.484375 121.535156 L 284.386719 123.644531 L 285.742188 126.164062 C 285.691406 126.164062 285.652344 126.164062 285.628906 126.164062 C 283.398438 125.335938 280.714844 124.746094 277.582031 124.394531 C 277.554688 124.394531 277.433594 124.382812 277.207031 124.355469 C 276.277344 124.253906 273.535156 124.019531 268.972656 123.644531 C 267.71875 123.542969 266.554688 123.429688 265.476562 123.304688 C 261.21875 122.097656 257.09375 120.519531 253.109375 118.566406 C 252.683594 118.238281 252.257812 117.886719 251.832031 117.511719 Z M 424.050781 112.246094 L 366.53125 88.996094 L 366.414062 89.429688 L 366.53125 88.960938 L 424.050781 112.207031 Z M 384.835938 102.765625 L 376.226562 137.332031 L 381.453125 139.441406 L 390.0625 104.871094 Z M 393.035156 109.726562 L 385.25 140.984375 L 390.515625 143.089844 L 398.296875 111.867188 Z M 375.140625 105.433594 L 368.035156 134.023438 L 373.257812 136.132812 L 380.363281 107.542969 L 375.140625 105.433594 " fill-opacity="1" fill-rule="evenodd"/><path fill="#132146" d="M 341.191406 139.703125 C 342.542969 142.210938 343.246094 144.769531 343.296875 147.378906 C 343.320312 148.53125 343.222656 149.683594 342.996094 150.839844 C 342.945312 150.988281 342.894531 151.175781 342.847656 151.402344 C 333.25 155.289062 325.152344 158.5 318.558594 161.03125 L 317.660156 160.355469 C 317.40625 156.71875 316.390625 153.285156 314.613281 150.050781 C 319.925781 148.167969 325.613281 146.027344 331.679688 143.617188 C 331.980469 143.492188 332.292969 143.367188 332.621094 143.238281 C 335.425781 142.085938 338.285156 140.90625 341.191406 139.703125 Z M 220.589844 124.054688 C 220.566406 124.132812 220.539062 124.21875 220.515625 124.320312 C 220.515625 124.21875 220.515625 124.132812 220.515625 124.054688 C 220.539062 124.054688 220.566406 124.054688 220.589844 124.054688 Z M 237.507812 180.328125 C 235.425781 178.75 233.597656 176.871094 232.019531 174.6875 C 229.414062 170.800781 227.507812 166.363281 226.304688 161.371094 C 225.175781 156.28125 223.949219 150.453125 222.621094 143.878906 C 222.09375 141.199219 221.667969 138.527344 221.339844 135.871094 C 221.617188 136.695312 221.933594 137.546875 222.28125 138.425781 C 222.632812 139.277344 223.058594 140.105469 223.558594 140.90625 C 229.699219 153.824219 234.351562 166.964844 237.507812 180.328125 Z M 295.511719 156.21875 L 339.5 190.226562 L 384.3125 169.234375 C 384.761719 169.859375 385.164062 170.5625 385.515625 171.339844 C 387.070312 174.625 387.230469 177.984375 386.003906 181.421875 C 385.851562 181.773438 385.703125 182.121094 385.550781 182.472656 C 385.328125 182.976562 385.0625 183.464844 384.761719 183.941406 C 383.4375 186.074219 381.578125 187.714844 379.199219 188.867188 L 344.3125 205.230469 C 342.03125 206.285156 339.675781 206.671875 337.242188 206.398438 C 334.8125 206.125 332.609375 205.230469 330.628906 203.726562 L 321.71875 196.882812 L 295.855469 176.871094 C 294.023438 175.441406 292.683594 173.746094 291.832031 171.792969 C 291.332031 170.664062 290.988281 169.433594 290.816406 168.105469 C 290.363281 164.492188 291.253906 161.246094 293.484375 158.363281 C 294.113281 157.558594 294.789062 156.847656 295.511719 156.21875 " fill-opacity="1" fill-rule="evenodd"/><path fill="#ce7c56" d="M 277.921875 108.972656 L 277.957031 108.933594 C 278.136719 109.511719 278.371094 110.0625 278.671875 110.589844 C 278.621094 111.96875 278.410156 114 278.035156 116.683594 C 278.5625 116.910156 279.113281 117.121094 279.6875 117.324219 C 278.035156 117.5 276.96875 117.585938 276.492188 117.585938 C 268.449219 117.585938 262.207031 116.558594 257.769531 114.5 C 256.566406 113.898438 255.375 113.171875 254.199219 112.316406 C 254.023438 112.195312 253.871094 112.082031 253.75 111.984375 C 253.820312 111.808594 253.898438 111.628906 253.976562 111.453125 L 257.132812 103.78125 C 257.65625 105.234375 258.449219 106.589844 259.5 107.84375 C 261.03125 109.699219 262.894531 111.105469 265.101562 112.054688 C 266.808594 112.808594 268.523438 113.210938 270.25 113.257812 C 270.855469 113.3125 271.417969 113.3125 271.945312 113.257812 C 272.519531 113.210938 273.082031 113.125 273.636719 112.996094 C 275.164062 112.648438 276.582031 112.03125 277.882812 111.15625 C 278.109375 110.953125 278.347656 110.777344 278.597656 110.625 C 278.347656 110.203125 278.148438 109.761719 277.996094 109.308594 C 277.96875 109.207031 277.945312 109.097656 277.921875 108.972656 " fill-opacity="1" fill-rule="evenodd"/><path fill="#452312" d="M 255.136719 79.746094 C 258.773438 81.371094 265.101562 82.191406 274.121094 82.191406 C 285.402344 82.191406 296.507812 80.042969 307.433594 75.757812 C 308.007812 75.507812 308.535156 75.265625 309.011719 75.042969 C 309.585938 75.996094 310.050781 76.957031 310.402344 77.941406 C 310.878906 79.167969 310.726562 80.34375 309.953125 81.472656 C 309.398438 81.777344 308.824219 82.089844 308.222656 82.414062 C 299.148438 87.128906 287.644531 89.488281 273.710938 89.488281 C 265.613281 89.488281 258.8125 88.546875 253.296875 86.664062 C 253.324219 86.464844 253.335938 86.261719 253.335938 86.0625 C 253.484375 84.8125 253.75 83.605469 254.125 82.453125 C 254.425781 81.527344 254.761719 80.621094 255.136719 79.746094 Z M 297.546875 94.679688 C 297.320312 94.96875 297.09375 95.222656 296.867188 95.449219 L 296.191406 96.03125 C 296.140625 96.082031 296.09375 96.121094 296.042969 96.144531 C 295.941406 96.21875 295.84375 96.296875 295.738281 96.371094 C 295.640625 96.417969 295.550781 96.484375 295.476562 96.558594 L 293.558594 98.589844 L 293.261719 99.003906 C 293.160156 99.148438 293.0625 99.300781 292.957031 99.457031 C 292.582031 100.109375 291.90625 101.472656 290.929688 103.554688 C 289.296875 107.09375 287.417969 109.207031 285.289062 109.914062 C 285.664062 108.007812 285.914062 106.5625 286.042969 105.589844 C 286.042969 105.535156 286.054688 105.5 286.078125 105.472656 L 286.078125 105.324219 C 286.179688 104.570312 286.242188 103.84375 286.265625 103.144531 C 286.289062 102.4375 286.277344 101.773438 286.230469 101.148438 C 285.300781 100.773438 284.410156 100.582031 283.558594 100.582031 C 283.285156 100.582031 283.007812 100.609375 282.734375 100.65625 C 282.609375 100.65625 282.496094 100.671875 282.394531 100.699219 C 282.242188 100.722656 282.121094 100.761719 282.019531 100.808594 L 280.738281 101.335938 C 280.058594 101.710938 279.460938 102.234375 278.9375 102.914062 C 278.585938 103.417969 278.296875 103.96875 278.070312 104.570312 C 277.96875 104.882812 277.890625 105.203125 277.828125 105.53125 L 277.695312 106.527344 C 277.695312 106.550781 277.695312 106.578125 277.695312 106.601562 C 277.695312 106.628906 277.695312 106.652344 277.695312 106.675781 L 277.695312 107.542969 C 277.726562 108.023438 277.804688 108.5 277.921875 108.972656 C 277.945312 109.097656 277.96875 109.207031 277.996094 109.308594 C 277.996094 109.585938 277.996094 109.859375 277.996094 110.136719 C 277.96875 110.488281 277.933594 110.828125 277.882812 111.15625 C 276.582031 112.03125 275.164062 112.648438 273.636719 112.996094 C 273.082031 113.125 272.519531 113.210938 271.945312 113.257812 C 271.417969 113.3125 270.855469 113.3125 270.25 113.257812 C 268.523438 113.210938 266.808594 112.808594 265.101562 112.054688 C 262.894531 111.105469 261.03125 109.699219 259.5 107.84375 C 258.449219 106.589844 257.65625 105.234375 257.132812 103.78125 C 256.828125 103.003906 256.605469 102.1875 256.453125 101.335938 C 255.054688 98.398438 254.097656 95.578125 253.597656 92.871094 C 260.039062 95.578125 264.398438 96.9375 266.679688 96.9375 C 277.15625 96.9375 283.945312 96.570312 287.058594 95.84375 C 290.015625 95.089844 293.511719 94.703125 297.546875 94.679688 " fill-opacity="1" fill-rule="evenodd"/><g clip-path="url(#e5160f6c29)"><path fill="#7a3a1e" d="M 297.546875 94.679688 C 293.511719 94.703125 290.015625 95.089844 287.058594 95.84375 C 283.945312 96.570312 277.15625 96.9375 266.679688 96.9375 C 264.398438 96.9375 260.039062 95.578125 253.597656 92.871094 C 253.222656 90.714844 253.121094 88.644531 253.296875 86.664062 C 258.8125 88.546875 265.613281 89.488281 273.710938 89.488281 C 287.644531 89.488281 299.148438 87.128906 308.222656 82.414062 C 308.824219 82.089844 309.398438 81.777344 309.953125 81.472656 C 309.75 81.75 309.5 82.050781 309.199219 82.378906 C 308.421875 83.152344 307.054688 84.070312 305.101562 85.121094 C 304.828125 85.25 304.5625 85.375 304.3125 85.5 L 304.347656 85.5 C 304.273438 85.527344 304.1875 85.5625 304.085938 85.609375 L 304.046875 85.726562 C 303.097656 86.328125 302.207031 87.269531 301.378906 88.546875 L 301.230469 88.695312 C 301.152344 88.824219 301.078125 88.933594 301.003906 89.039062 C 301.003906 89.0625 300.992188 89.097656 300.964844 89.148438 L 300.4375 90.089844 C 300.4375 90.113281 300.414062 90.140625 300.363281 90.164062 C 300.363281 90.210938 300.351562 90.25 300.328125 90.277344 C 300.328125 90.300781 300.300781 90.339844 300.25 90.390625 L 299.199219 92.308594 L 299.160156 92.347656 C 298.585938 93.273438 298.046875 94.050781 297.546875 94.679688 Z M 255.136719 79.746094 C 257.945312 73.199219 262.910156 68.347656 270.027344 65.1875 C 273.734375 63.582031 277.644531 62.691406 281.757812 62.519531 C 285.914062 62.316406 289.902344 62.917969 293.710938 64.320312 C 297.644531 65.472656 300.980469 67.09375 303.710938 69.175781 C 305.964844 70.90625 307.730469 72.863281 309.011719 75.042969 C 308.535156 75.265625 308.007812 75.507812 307.433594 75.757812 C 296.507812 80.042969 285.402344 82.191406 274.121094 82.191406 C 265.101562 82.191406 258.773438 81.371094 255.136719 79.746094 " fill-opacity="1" fill-rule="evenodd"/></g><path fill="#995f35" d="M 277.996094 109.308594 C 278.148438 109.761719 278.347656 110.203125 278.597656 110.625 C 278.347656 110.777344 278.109375 110.953125 277.882812 111.15625 C 277.933594 110.828125 277.96875 110.488281 277.996094 110.136719 C 277.996094 109.859375 277.996094 109.585938 277.996094 109.308594 " fill-opacity="1" fill-rule="evenodd"/><path fill="#ffaa83" d="M 347.429688 147.566406 C 348.308594 145.960938 348.359375 143.804688 347.582031 141.09375 C 345.878906 137.359375 344.976562 135.417969 344.875 135.265625 C 343.597656 133.285156 342.382812 131.917969 341.226562 131.167969 C 340.953125 131.015625 340.679688 130.875 340.402344 130.75 C 340.902344 130.425781 341.402344 130.125 341.90625 129.851562 C 346.292969 123.65625 349.488281 119.792969 351.492188 118.261719 C 352.945312 117.160156 354.300781 116.355469 355.550781 115.855469 C 357.207031 115.203125 358.671875 115.105469 359.953125 115.554688 C 360.675781 115.804688 361.339844 116.257812 361.941406 116.910156 C 361.59375 117.539062 360.515625 118.726562 358.710938 120.480469 C 357.632812 121.511719 356.304688 122.738281 354.722656 124.167969 C 354.175781 124.644531 353.648438 125.097656 353.144531 125.523438 L 352.09375 129.808594 C 351.339844 132.796875 353.699219 135.390625 359.160156 137.597656 L 368.9375 141.546875 C 368.785156 141.824219 368.621094 142.085938 368.445312 142.335938 C 366.34375 145.824219 360.238281 147.566406 350.140625 147.566406 C 349.210938 147.566406 348.308594 147.566406 347.429688 147.566406 Z M 285.289062 109.914062 C 285.261719 109.914062 285.25 109.925781 285.25 109.949219 C 287.007812 109.375 288.597656 107.84375 290.027344 105.359375 C 290.453125 105.734375 290.890625 105.921875 291.34375 105.921875 C 292.492188 105.921875 295.675781 102.515625 300.890625 95.695312 C 302.59375 93.4375 304 91.59375 305.101562 90.164062 C 305.027344 91.117188 304.949219 92.195312 304.875 93.398438 C 304.601562 96.785156 304.710938 99.46875 305.214844 101.449219 C 302.632812 102.527344 300.601562 104.605469 299.121094 107.691406 C 298.546875 108.871094 297.546875 111.742188 296.117188 116.308594 C 294.460938 118.164062 291.945312 118.941406 288.5625 118.640625 C 287.65625 118.589844 286.203125 118.390625 284.199219 118.035156 C 283.546875 117.914062 282.957031 117.8125 282.433594 117.738281 C 281.453125 117.585938 280.679688 117.5 280.101562 117.472656 C 279.949219 117.421875 279.8125 117.371094 279.6875 117.324219 C 279.113281 117.121094 278.5625 116.910156 278.035156 116.683594 C 278.410156 114 278.621094 111.96875 278.671875 110.589844 C 278.371094 110.0625 278.136719 109.511719 277.957031 108.933594 C 277.828125 108.480469 277.738281 108.015625 277.695312 107.542969 L 277.695312 106.675781 C 277.695312 106.652344 277.695312 106.628906 277.695312 106.601562 C 277.695312 106.578125 277.695312 106.550781 277.695312 106.527344 L 277.828125 105.53125 C 278.035156 104.574219 278.429688 103.703125 279.011719 102.914062 C 279.511719 102.242188 280.089844 101.714844 280.738281 101.335938 L 282.019531 100.808594 C 282.121094 100.761719 282.242188 100.722656 282.394531 100.699219 C 282.496094 100.671875 282.609375 100.65625 282.734375 100.65625 C 283.007812 100.609375 283.285156 100.582031 283.558594 100.582031 C 284.410156 100.582031 285.300781 100.773438 286.230469 101.148438 C 286.277344 101.773438 286.289062 102.4375 286.265625 103.144531 C 286.242188 103.84375 286.179688 104.570312 286.078125 105.324219 L 286.078125 105.472656 C 286.054688 105.5 286.042969 105.535156 286.042969 105.589844 C 285.914062 106.5625 285.664062 108.007812 285.289062 109.914062 Z M 386.941406 181.71875 C 387.195312 181.574219 387.445312 181.398438 387.695312 181.195312 C 390.050781 179.589844 390.601562 176.816406 389.347656 172.878906 C 387.570312 169.171875 386.632812 167.253906 386.527344 167.125 C 385.175781 165.167969 383.921875 163.839844 382.769531 163.140625 C 380.867188 161.984375 378.796875 161.824219 376.566406 162.648438 C 377.292969 161.621094 378.070312 160.769531 378.898438 160.089844 C 380.953125 158.484375 383.472656 156.933594 386.457031 155.429688 L 388.898438 154.335938 L 386.527344 155.464844 C 391.390625 154.035156 394.351562 154.125 395.402344 155.730469 C 394.699219 156.28125 394.113281 156.820312 393.632812 157.347656 L 393.859375 158.136719 C 395.113281 157.960938 395.925781 158.601562 396.304688 160.054688 C 396.453125 161.859375 396.566406 163.078125 396.640625 163.707031 C 397.871094 165.058594 398.308594 166.777344 397.957031 168.855469 C 398.484375 170.5625 398.058594 172.292969 396.679688 174.050781 C 395.976562 175.027344 394.726562 176.441406 392.917969 178.300781 C 391.390625 179.675781 389.398438 180.820312 386.941406 181.71875 " fill-opacity="1" fill-rule="evenodd"/><path fill="#cccccc" d="M 365.664062 92.457031 L 366.414062 89.429688 L 366.53125 88.996094 L 424.050781 112.246094 L 423.222656 115.703125 L 423.183594 115.703125 L 365.664062 92.457031 " fill-opacity="1" fill-rule="evenodd"/><path fill="#63bb55" d="M 364.613281 111.417969 L 369.835938 113.523438 L 365.027344 132.820312 L 359.796875 130.675781 Z M 381.003906 266.660156 L 399.800781 277.378906 L 399.425781 297.84375 L 381.003906 287.347656 Z M 428.972656 308.453125 L 428.972656 248.078125 L 447.921875 258.835938 L 447.921875 306.117188 L 441.945312 302.695312 L 428.972656 310.21875 Z M 404.613281 274.597656 L 404.613281 259.210938 L 423.296875 269.933594 L 423.296875 311.726562 L 404.613281 300.890625 Z M 526.640625 349.753906 L 545.4375 360.472656 L 545.4375 381.199219 L 528.109375 371.269531 C 528.257812 370.792969 528.332031 370.316406 528.332031 369.84375 C 528.332031 368.9375 528.097656 368.074219 527.621094 367.246094 C 528.097656 366.390625 528.332031 365.476562 528.332031 364.5 C 528.332031 363.042969 527.769531 361.703125 526.640625 360.472656 Z M 404.910156 146.0625 L 406.039062 141.546875 L 411.265625 143.652344 L 409.5 150.800781 L 405.890625 149.335938 C 407.066406 148.078125 407.785156 146.738281 408.035156 145.308594 L 407.242188 144.855469 C 406.84375 145.058594 406.066406 145.460938 404.910156 146.0625 Z M 384.835938 102.765625 L 390.0625 104.871094 L 381.453125 139.441406 L 376.226562 137.332031 Z M 375.140625 105.433594 L 380.363281 107.542969 L 373.257812 136.132812 L 368.035156 134.023438 L 375.140625 105.433594 " fill-opacity="1" fill-rule="evenodd"/><path fill="#d51a00" d="M 539.386719 341.929688 L 526.640625 349.753906 L 526.640625 360.472656 C 525.988281 359.746094 525.136719 359.070312 524.085938 358.441406 L 524.085938 349.941406 L 520.589844 347.949219 L 520.589844 325.488281 L 539.386719 314.507812 Z M 515.664062 306.304688 L 501.53125 314.65625 L 501.53125 337.039062 L 496.867188 334.328125 L 497.132812 290.882812 L 515.664062 280.277344 Z M 472.242188 320.1875 L 472.242188 256.917969 L 490.703125 246.195312 L 490.703125 272.980469 L 478.710938 280.050781 L 478.710938 323.910156 L 476.191406 322.480469 C 475.164062 321.402344 474.652344 321.101562 474.652344 321.578125 Z M 399.726562 146.8125 L 394.5 144.710938 L 399.875 123.039062 L 405.097656 125.148438 Z M 393.035156 109.726562 L 398.296875 111.867188 L 390.515625 143.089844 L 385.25 140.984375 L 393.035156 109.726562 " fill-opacity="1" fill-rule="evenodd"/><g clip-path="url(#927c4e3bf9)"><path fill="#17388e" d="M 220.589844 124.054688 C 222.167969 118.839844 226.882812 115.253906 234.726562 113.300781 L 246.152344 113.222656 C 245.703125 114.351562 244.886719 115.53125 243.710938 116.757812 C 242.507812 117.960938 245.738281 120.445312 253.410156 124.207031 C 260.628906 127.816406 277.421875 133.210938 303.785156 140.382812 C 305.515625 140.859375 307.28125 141.347656 309.085938 141.847656 L 306.34375 139.703125 C 313.785156 137.648438 322.191406 134.976562 331.566406 131.691406 C 331.792969 131.742188 332.042969 131.816406 332.320312 131.917969 C 333.597656 132.320312 334.800781 132.921875 335.925781 133.722656 C 337.882812 135.101562 339.640625 137.097656 341.191406 139.703125 C 338.285156 140.90625 335.425781 142.085938 332.621094 143.238281 C 332.292969 143.367188 331.980469 143.492188 331.679688 143.617188 C 325.613281 146.027344 319.925781 148.167969 314.613281 150.050781 C 314.160156 149.222656 313.644531 148.394531 313.070312 147.566406 C 303.371094 149.097656 296.519531 152.144531 292.507812 156.707031 C 289.226562 160.417969 287.832031 165.132812 288.335938 170.851562 C 288.386719 171.628906 288.484375 172.429688 288.632812 173.257812 C 289.4375 178.171875 291.519531 183.777344 294.875 190.070312 C 295.050781 190.398438 295.226562 190.722656 295.402344 191.050781 C 296.480469 193.109375 297.535156 195.1875 298.558594 197.296875 C 306.78125 214.347656 312.382812 232.453125 315.363281 251.613281 C 316.015625 255.898438 316.554688 260.238281 316.980469 264.628906 C 317.128906 266.433594 317.269531 268.25 317.394531 270.082031 C 314.640625 270.660156 311.84375 271.25 309.011719 271.851562 C 305.253906 272.652344 301.492188 273.214844 297.734375 273.542969 C 289.863281 274.21875 282.042969 273.894531 274.277344 272.566406 C 270.039062 271.835938 265.828125 270.808594 261.644531 269.480469 L 260.964844 237.390625 L 257.171875 268.050781 L 256.71875 267.824219 L 246.71875 262.746094 L 238.710938 258.648438 C 239.386719 253.105469 240.113281 247.625 240.890625 242.207031 C 242.144531 234.433594 242.660156 226.710938 242.433594 219.035156 C 242.132812 205.921875 240.492188 193.019531 237.507812 180.328125 C 234.351562 166.964844 229.699219 153.824219 223.558594 140.90625 C 223.058594 140.105469 222.632812 139.277344 222.28125 138.425781 C 221.933594 137.546875 221.617188 136.695312 221.339844 135.871094 C 219.886719 131.402344 219.613281 127.550781 220.515625 124.320312 C 220.539062 124.21875 220.566406 124.132812 220.589844 124.054688 " fill-opacity="1" fill-rule="evenodd"/></g><path fill="#d1e7f4" d="M 342.996094 150.839844 C 343.222656 149.683594 343.320312 148.53125 343.296875 147.378906 C 343.246094 144.769531 342.542969 142.210938 341.191406 139.703125 C 339.640625 137.097656 337.882812 135.101562 335.925781 133.722656 C 334.800781 132.921875 333.597656 132.320312 332.320312 131.917969 C 335.300781 129.984375 337.996094 129.597656 340.402344 130.75 C 340.679688 130.875 340.953125 131.015625 341.226562 131.167969 C 342.382812 131.917969 343.597656 133.285156 344.875 135.265625 C 344.976562 135.417969 345.878906 137.359375 347.582031 141.09375 C 348.359375 143.804688 348.308594 145.960938 347.429688 147.566406 C 347.03125 148.292969 346.441406 148.910156 345.664062 149.410156 C 344.738281 150.011719 343.847656 150.488281 342.996094 150.839844 Z M 376.566406 162.648438 C 378.796875 161.824219 380.867188 161.984375 382.769531 163.140625 C 383.921875 163.839844 385.175781 165.167969 386.527344 167.125 C 386.632812 167.253906 387.570312 169.171875 389.347656 172.878906 C 390.601562 176.816406 390.050781 179.589844 387.695312 181.195312 C 387.445312 181.398438 387.195312 181.574219 386.941406 181.71875 C 386.46875 181.996094 386.003906 182.25 385.550781 182.472656 C 385.703125 182.121094 385.851562 181.773438 386.003906 181.421875 C 387.230469 177.984375 387.070312 174.625 385.515625 171.339844 C 385.164062 170.5625 384.761719 169.859375 384.3125 169.234375 C 382.785156 167.027344 380.703125 165.445312 378.070312 164.492188 C 376.867188 164.039062 375.675781 163.777344 374.5 163.707031 C 375.199219 163.277344 375.890625 162.925781 376.566406 162.648438 " fill-opacity="1" fill-rule="evenodd"/><path fill="#ed9870" d="M 290.027344 105.359375 C 290.304688 104.882812 290.578125 104.371094 290.851562 103.820312 C 290.878906 103.71875 290.917969 103.632812 290.964844 103.554688 C 291.917969 101.472656 292.59375 100.09375 292.996094 99.417969 C 293.085938 99.277344 293.171875 99.140625 293.261719 99.003906 L 293.558594 98.589844 L 295.476562 96.558594 C 295.550781 96.484375 295.640625 96.417969 295.738281 96.371094 C 295.84375 96.296875 295.941406 96.21875 296.042969 96.144531 C 296.09375 96.121094 296.140625 96.082031 296.191406 96.03125 L 296.867188 95.449219 C 297.945312 94.429688 299.109375 92.703125 300.363281 90.277344 C 300.691406 89.648438 301.027344 89.074219 301.378906 88.546875 C 302.207031 87.269531 303.097656 86.328125 304.046875 85.726562 C 304.402344 85.476562 304.761719 85.277344 305.136719 85.121094 C 305.242188 86.152344 305.226562 87.757812 305.101562 89.9375 C 305.101562 90.011719 305.101562 90.089844 305.101562 90.164062 C 304 91.59375 302.59375 93.4375 300.890625 95.695312 C 295.675781 102.515625 292.492188 105.921875 291.34375 105.921875 C 290.890625 105.921875 290.453125 105.734375 290.027344 105.359375 " fill-opacity="1" fill-rule="evenodd"/><path fill="#112558" d="M 239.199219 428.824219 C 238.648438 428.824219 238.097656 428.824219 237.546875 428.824219 C 235.261719 428.824219 233.371094 428.082031 231.867188 426.605469 C 229.488281 423.492188 228.183594 419.933594 227.957031 415.917969 C 227.457031 408.144531 227.796875 400.394531 228.976562 392.671875 L 228.976562 392.636719 C 230.101562 385.515625 230.828125 378.351562 231.152344 371.160156 C 231.554688 362.53125 232.695312 354.179688 234.574219 346.105469 C 235.203125 343.574219 236.066406 340.890625 237.167969 338.054688 C 240 331.109375 241.820312 323.910156 242.621094 316.460938 C 243.398438 308.738281 244.210938 301.015625 245.0625 293.292969 C 245.964844 284.539062 246.507812 275.902344 246.679688 267.375 L 246.71875 262.746094 L 256.71875 267.824219 C 256.519531 270.433594 256.265625 273.042969 255.964844 275.648438 C 255.015625 284.175781 254.023438 292.703125 252.996094 301.226562 C 252.046875 309.53125 250.890625 317.71875 249.535156 325.792969 C 248.058594 334.316406 246.644531 342.742188 245.289062 351.070312 C 243.886719 359.671875 242.480469 368.398438 241.078125 377.25 C 240.375 381.636719 239.800781 386.027344 239.347656 390.417969 C 238.921875 394.304688 238.597656 398.1875 238.375 402.078125 C 237.871094 410.929688 238.148438 419.84375 239.199219 428.824219 Z M 308.597656 444.960938 C 307.644531 445.261719 306.691406 445.550781 305.738281 445.828125 C 303.085938 446.503906 300.453125 446.640625 297.84375 446.238281 C 294.234375 440.949219 292.746094 434.992188 293.371094 428.371094 C 294.074219 420.996094 293.925781 413.675781 292.917969 406.402344 C 292.71875 405.074219 292.492188 403.730469 292.246094 402.378906 C 290.964844 395.554688 290.464844 388.734375 290.742188 381.914062 C 291.066406 372.9375 291.089844 363.933594 290.816406 354.90625 C 290.589844 346.433594 289.839844 337.992188 288.5625 329.59375 C 287.257812 320.914062 285.328125 312.25 282.769531 303.597656 C 282.09375 301.414062 281.679688 299.3125 281.53125 297.277344 L 280.324219 291.414062 C 280.226562 291.6875 280.113281 291.949219 279.988281 292.199219 L 274.277344 272.566406 C 282.042969 273.894531 289.863281 274.21875 297.734375 273.542969 C 299.988281 281.191406 301.941406 288.929688 303.597656 296.753906 C 307.15625 313.777344 308.007812 330.933594 306.152344 348.210938 C 303.648438 371.160156 303.234375 394.089844 304.910156 417.011719 C 305.441406 424.007812 306.152344 431.015625 307.054688 438.039062 C 307.355469 440.394531 307.871094 442.703125 308.597656 444.960938 " fill-opacity="1" fill-rule="evenodd"/><path fill="#05102e" d="M 255.363281 410.839844 C 253.859375 412.671875 252.621094 414.828125 251.644531 417.3125 C 249.289062 423.40625 245.140625 427.242188 239.199219 428.824219 C 238.148438 419.84375 237.871094 410.929688 238.375 402.078125 C 238.597656 398.1875 238.921875 394.304688 239.347656 390.417969 C 239.800781 386.027344 240.375 381.636719 241.078125 377.25 C 242.480469 368.398438 243.886719 359.671875 245.289062 351.070312 C 246.644531 342.742188 248.058594 334.316406 249.535156 325.792969 C 250.890625 317.71875 252.046875 309.53125 252.996094 301.226562 C 254.023438 292.703125 255.015625 284.175781 255.964844 275.648438 C 256.265625 273.042969 256.519531 270.433594 256.71875 267.824219 L 257.171875 268.050781 L 260.964844 237.390625 L 261.644531 269.480469 C 265.828125 270.808594 270.039062 271.835938 274.277344 272.566406 L 279.988281 292.199219 C 277.859375 297.941406 276.230469 303.773438 275.101562 309.691406 C 274.074219 314.882812 272.796875 320.046875 271.269531 325.191406 C 268.960938 333.089844 266.742188 341.078125 264.613281 349.152344 C 262.910156 355.296875 261.46875 361.550781 260.289062 367.921875 C 258.933594 374.921875 257.695312 381.953125 256.566406 389.023438 C 256.519531 389.347656 256.46875 389.675781 256.417969 390.003906 C 256.164062 391.554688 255.90625 393.125 255.628906 394.703125 L 255.441406 394.78125 C 256.691406 400.195312 256.667969 405.550781 255.363281 410.839844 Z M 314.613281 150.050781 C 316.390625 153.285156 317.40625 156.71875 317.660156 160.355469 L 311.980469 155.953125 C 309.074219 153.722656 305.816406 152.84375 302.207031 153.320312 C 299.601562 153.671875 297.371094 154.636719 295.511719 156.21875 C 294.789062 156.847656 294.113281 157.558594 293.484375 158.363281 C 291.253906 161.246094 290.363281 164.492188 290.816406 168.105469 C 290.988281 169.433594 291.332031 170.664062 291.832031 171.792969 C 292.683594 173.746094 294.023438 175.441406 295.855469 176.871094 L 321.71875 196.882812 C 327.128906 219.273438 332.683594 241.445312 338.371094 263.386719 L 328.335938 266.585938 C 328.5625 270.519531 328.472656 274.457031 328.070312 278.398438 C 327.542969 283.460938 327.007812 288.566406 326.453125 293.703125 C 325.878906 298.722656 325.316406 303.773438 324.761719 308.867188 C 324.1875 314.382812 323.671875 319.9375 323.222656 325.527344 C 322.617188 333.929688 322.054688 342.367188 321.53125 350.847656 C 321.03125 359.246094 320.890625 367.707031 321.117188 376.234375 C 321.390625 385.3125 322.070312 394.226562 323.144531 402.980469 C 323.625 407.144531 324.511719 411.195312 325.816406 415.132812 C 326.066406 415.882812 326.328125 416.636719 326.605469 417.386719 C 327.058594 418.691406 327.820312 419.867188 328.898438 420.921875 C 329.925781 422.003906 330.441406 423.417969 330.441406 425.171875 C 330.441406 425.953125 330.242188 426.652344 329.839844 427.28125 C 325.652344 434.050781 320.152344 439.46875 313.335938 443.53125 L 308.597656 444.960938 C 307.871094 442.703125 307.355469 440.394531 307.054688 438.039062 C 306.152344 431.015625 305.441406 424.007812 304.910156 417.011719 C 303.234375 394.089844 303.648438 371.160156 306.152344 348.210938 C 308.007812 330.933594 307.15625 313.777344 303.597656 296.753906 C 301.941406 288.929688 299.988281 281.191406 297.734375 273.542969 C 301.492188 273.214844 305.253906 272.652344 309.011719 271.851562 C 311.84375 271.25 314.640625 270.660156 317.394531 270.082031 C 317.269531 268.25 317.128906 266.433594 316.980469 264.628906 C 316.554688 260.238281 316.015625 255.898438 315.363281 251.613281 C 312.382812 232.453125 306.78125 214.347656 298.558594 197.296875 C 297.535156 195.1875 296.480469 193.109375 295.402344 191.050781 C 295.226562 190.722656 295.050781 190.398438 294.875 190.070312 C 291.519531 183.777344 289.4375 178.171875 288.632812 173.257812 C 288.484375 172.429688 288.386719 171.628906 288.335938 170.851562 C 287.832031 165.132812 289.226562 160.417969 292.507812 156.707031 C 296.519531 152.144531 303.371094 149.097656 313.070312 147.566406 C 313.644531 148.394531 314.160156 149.222656 314.613281 150.050781 " fill-opacity="1" fill-rule="evenodd"/><path fill="#2c2c2c" d="M 284.386719 123.644531 L 283.484375 121.535156 L 283.558594 121.574219 L 287.09375 124.65625 Z M 263.597656 402.304688 L 263.410156 400.535156 C 263.234375 401.085938 263.03125 401.652344 262.808594 402.226562 C 261.355469 406.066406 258.875 408.9375 255.363281 410.839844 C 256.667969 405.550781 256.691406 400.195312 255.441406 394.78125 L 255.628906 394.703125 C 259.238281 393.953125 261.78125 395.195312 263.257812 398.425781 C 263.636719 399.257812 263.800781 400.234375 263.75 401.363281 C 263.75 401.664062 263.699219 401.976562 263.597656 402.304688 Z M 350.210938 428.21875 L 349.949219 423.972656 C 349.902344 425.171875 349.824219 426.390625 349.726562 427.617188 C 349.546875 429.699219 348.898438 431.480469 347.769531 432.960938 C 345.289062 436.394531 341.90625 438.226562 337.617188 438.453125 C 329.273438 438.902344 321.179688 440.597656 313.335938 443.53125 C 320.152344 439.46875 325.652344 434.050781 329.839844 427.28125 C 330.242188 426.652344 330.441406 425.953125 330.441406 425.171875 C 330.441406 423.417969 329.925781 422.003906 328.898438 420.921875 C 333.859375 420.546875 338.886719 420.359375 343.972656 420.359375 C 346.78125 420.6875 348.921875 422.0625 350.398438 424.496094 L 350.210938 428.21875 " fill-opacity="1" fill-rule="evenodd"/><g clip-path="url(#c4c0f19d8d)"><path fill="#000000" d="M 239.199219 428.824219 C 245.140625 427.242188 249.289062 423.40625 251.644531 417.3125 C 252.621094 414.828125 253.859375 412.671875 255.363281 410.839844 C 258.875 408.9375 261.355469 406.066406 262.808594 402.226562 C 263.03125 401.652344 263.234375 401.085938 263.410156 400.535156 L 263.597656 402.304688 C 263.472656 406.492188 261.492188 409.851562 257.65625 412.382812 C 256.027344 413.386719 254.652344 414.601562 253.523438 416.035156 L 251.90625 419.417969 C 251.730469 424.785156 249.25 428.695312 244.460938 431.152344 C 242.03125 432.410156 239.4375 432.722656 236.683594 432.09375 C 234.425781 431.871094 232.820312 430.777344 231.867188 428.824219 C 231.066406 427.242188 231.066406 426.5 231.867188 426.605469 C 233.371094 428.082031 235.261719 428.824219 237.546875 428.824219 C 238.097656 428.824219 238.648438 428.824219 239.199219 428.824219 Z M 313.335938 443.53125 C 321.179688 440.597656 329.273438 438.902344 337.617188 438.453125 C 341.90625 438.226562 345.289062 436.394531 347.769531 432.960938 C 348.898438 431.480469 349.546875 429.699219 349.726562 427.617188 C 349.824219 426.390625 349.902344 425.171875 349.949219 423.972656 L 350.210938 428.21875 C 349.9375 435.945312 345.789062 440.347656 337.769531 441.425781 C 333.660156 441.699219 329.550781 442.125 325.4375 442.703125 C 323.960938 443.027344 322.496094 443.394531 321.042969 443.792969 L 320.777344 447.667969 C 315.492188 449.648438 310.011719 450.703125 304.347656 450.828125 C 301.691406 450.878906 299.726562 449.777344 298.449219 447.519531 C 298.222656 447.117188 298.019531 446.691406 297.84375 446.238281 C 300.453125 446.640625 303.085938 446.503906 305.738281 445.828125 C 306.691406 445.550781 307.644531 445.261719 308.597656 444.960938 L 313.335938 443.53125 " fill-opacity="1" fill-rule="evenodd"/></g><path fill="#2a53bc" d="M 265.476562 123.304688 C 271.867188 125.109375 278.585938 126.0625 285.628906 126.164062 C 285.652344 126.164062 285.691406 126.164062 285.742188 126.164062 L 284.386719 123.644531 L 287.09375 124.65625 L 306.34375 139.703125 L 309.085938 141.847656 C 307.28125 141.347656 305.515625 140.859375 303.785156 140.382812 C 277.421875 133.210938 260.628906 127.816406 253.410156 124.207031 C 245.738281 120.445312 242.507812 117.960938 243.710938 116.757812 C 244.886719 115.53125 245.703125 114.351562 246.152344 113.222656 L 253.410156 111.941406 L 252.695312 114.085938 L 251.71875 116.910156 L 251.566406 117.285156 C 251.644531 117.359375 251.730469 117.4375 251.832031 117.511719 C 252.257812 117.886719 252.683594 118.238281 253.109375 118.566406 C 257.09375 120.519531 261.21875 122.097656 265.476562 123.304688 " fill-opacity="1" fill-rule="evenodd"/><path fill="#ffa886" d="M 405.890625 149.335938 C 405.289062 149.933594 404.574219 150.523438 403.75 151.105469 C 403.195312 151.480469 402.582031 151.839844 401.902344 152.191406 C 401.679688 152.367188 401.40625 152.519531 401.078125 152.644531 C 400.476562 152.945312 399.789062 153.296875 399.011719 153.695312 C 398.535156 153.949219 398.019531 154.226562 397.46875 154.523438 C 396.695312 154.925781 396.054688 155.304688 395.550781 155.652344 L 395.402344 155.730469 C 394.351562 154.125 391.390625 154.035156 386.527344 155.464844 L 388.898438 154.335938 C 390.800781 153.359375 392.503906 152.46875 394.007812 151.667969 C 395.992188 150.664062 397.644531 149.824219 398.972656 149.148438 C 399.625 148.820312 400.1875 148.542969 400.664062 148.316406 C 402.421875 147.390625 403.835938 146.636719 404.910156 146.0625 C 406.066406 145.460938 406.84375 145.058594 407.242188 144.855469 L 408.035156 145.308594 C 407.785156 146.738281 407.066406 148.078125 405.890625 149.335938 " fill-opacity="1" fill-rule="evenodd"/><path fill="#419335" d="M 453.558594 255.5625 L 453.558594 309.429688 L 447.921875 306.117188 L 447.921875 258.835938 Z M 404.613281 274.597656 L 404.613281 295.324219 L 399.425781 297.84375 L 399.800781 277.378906 Z M 428.972656 308.453125 L 423.296875 311.726562 L 423.296875 269.933594 L 428.972656 266.28125 Z M 545.4375 360.472656 L 564.125 349.492188 L 564.125 370.328125 L 545.4375 381.199219 L 545.4375 360.472656 " fill-opacity="1" fill-rule="evenodd"/><path fill="#85dc78" d="M 399.800781 277.378906 L 381.003906 266.660156 L 399.050781 255.148438 L 399.535156 255.449219 L 404.988281 258.570312 L 423.03125 247.851562 L 428.972656 251.238281 L 428.972656 266.28125 L 423.296875 269.933594 L 404.613281 259.210938 L 404.613281 274.597656 Z M 564.125 349.492188 L 545.4375 360.472656 L 526.640625 349.753906 L 539.386719 341.929688 L 545.0625 338.394531 Z M 447.921875 258.835938 L 428.972656 248.078125 L 439.011719 241.757812 L 447.394531 236.453125 L 454.460938 240.554688 L 459.011719 243.148438 L 453.558594 246.308594 L 453.558594 255.5625 L 447.921875 258.835938 " fill-opacity="1" fill-rule="evenodd"/><path fill="#ff8a79" d="M 539.386719 314.507812 L 520.589844 325.488281 L 501.53125 314.65625 L 515.664062 306.304688 L 520.214844 303.523438 Z M 497.132812 290.882812 L 478.710938 280.050781 L 490.703125 272.980469 L 497.132812 269.066406 L 515.664062 280.277344 Z M 472.242188 256.917969 L 453.558594 246.308594 L 459.011719 243.148438 L 471.867188 235.476562 L 490.703125 246.195312 L 472.242188 256.917969 " fill-opacity="1" fill-rule="evenodd"/><path fill="#fd3d22" d="M 520.589844 347.949219 L 501.53125 337.039062 L 501.53125 314.65625 L 520.589844 325.488281 Z M 496.867188 334.328125 L 478.710938 323.910156 L 478.710938 280.050781 L 497.132812 290.882812 Z M 472.242188 256.917969 L 472.242188 320.1875 L 453.558594 309.429688 L 453.558594 246.308594 L 472.242188 256.917969 " fill-opacity="1" fill-rule="evenodd"/><path fill="#c9c29d" d="M 514.234375 355.660156 L 524.085938 349.941406 L 524.085938 358.441406 C 523.960938 358.34375 523.835938 358.253906 523.710938 358.179688 C 522.757812 357.628906 521.71875 357.164062 520.589844 356.789062 C 518.6875 356.136719 516.566406 355.757812 514.234375 355.660156 Z M 477.167969 376.914062 L 497.132812 365.515625 C 497.257812 366.117188 497.480469 366.65625 497.804688 367.132812 C 497.308594 368.035156 497.054688 368.9375 497.054688 369.84375 C 497.054688 370.390625 497.121094 370.90625 497.242188 371.382812 C 497.121094 371.933594 497.054688 372.449219 497.054688 372.925781 C 497.054688 373.828125 497.269531 374.667969 497.695312 375.445312 C 497.269531 376.25 497.054688 377.125 497.054688 378.078125 C 497.054688 378.554688 497.144531 379.09375 497.320312 379.695312 C 497.191406 379.996094 497.105469 380.335938 497.054688 380.710938 C 497.054688 380.886719 497.054688 381.089844 497.054688 381.3125 C 497.054688 382.242188 497.269531 383.09375 497.695312 383.871094 C 497.269531 384.648438 497.054688 385.488281 497.054688 386.390625 C 497.054688 387.042969 497.179688 387.707031 497.429688 388.386719 L 477.246094 400.046875 L 477.167969 400.046875 L 477.167969 376.914062 " fill-opacity="1" fill-rule="evenodd"/><path fill="#ffcc00" d="M 527.621094 367.246094 C 527.367188 367.746094 527.042969 368.222656 526.640625 368.675781 C 525.988281 369.402344 525.136719 370.066406 524.085938 370.667969 C 523.960938 370.71875 523.835938 370.78125 523.710938 370.855469 C 522.179688 371.734375 520.488281 372.386719 518.636719 372.8125 C 516.804688 373.238281 514.824219 373.449219 512.695312 373.449219 C 508.410156 373.449219 504.761719 372.585938 501.753906 370.855469 C 499.902344 369.753906 498.585938 368.511719 497.804688 367.132812 C 497.480469 366.65625 497.257812 366.117188 497.132812 365.515625 C 497.082031 365.140625 497.054688 364.800781 497.054688 364.5 C 497.054688 363.269531 497.457031 362.117188 498.257812 361.039062 C 499.011719 360.007812 500.148438 359.058594 501.679688 358.179688 C 502.15625 357.90625 502.660156 357.652344 503.183594 357.429688 C 505.890625 356.199219 509.0625 355.582031 512.695312 355.582031 C 513.246094 355.582031 513.761719 355.609375 514.234375 355.660156 C 516.566406 355.757812 518.6875 356.136719 520.589844 356.789062 C 521.71875 357.164062 522.757812 357.628906 523.710938 358.179688 C 523.835938 358.253906 523.960938 358.34375 524.085938 358.441406 C 525.136719 359.070312 525.988281 359.746094 526.640625 360.472656 C 527.769531 361.703125 528.332031 363.042969 528.332031 364.5 C 528.332031 365.476562 528.097656 366.390625 527.621094 367.246094 Z M 474.652344 321.578125 C 474.652344 321.101562 475.164062 321.402344 476.191406 322.480469 Z M 397.507812 319.210938 C 396.828125 320.539062 395.550781 321.71875 393.671875 322.746094 C 390.613281 324.550781 386.941406 325.453125 382.65625 325.453125 C 378.394531 325.453125 374.726562 324.550781 371.640625 322.746094 C 369.789062 321.667969 368.5 320.460938 367.769531 319.132812 C 367.292969 318.28125 367.054688 317.414062 367.054688 316.539062 C 367.054688 314.054688 368.558594 311.9375 371.566406 310.183594 C 374.625 308.425781 378.324219 307.550781 382.65625 307.550781 C 386.941406 307.550781 390.613281 308.425781 393.671875 310.183594 C 396.707031 311.9375 398.222656 314.054688 398.222656 316.539062 C 398.222656 317.414062 397.984375 318.308594 397.507812 319.210938 Z M 367.207031 323.308594 C 367.757812 325.113281 369.234375 326.734375 371.640625 328.160156 C 374.726562 329.914062 378.394531 330.792969 382.65625 330.792969 C 386.941406 330.792969 390.613281 329.914062 393.671875 328.160156 C 396.101562 326.734375 397.519531 325.113281 397.921875 323.308594 C 398.121094 323.785156 398.222656 324.300781 398.222656 324.851562 C 398.222656 325.726562 397.984375 326.617188 397.507812 327.523438 C 397.257812 328.125 396.828125 328.699219 396.230469 329.25 C 395.976562 329.429688 395.699219 329.640625 395.402344 329.890625 C 395.351562 330.015625 395.261719 330.105469 395.136719 330.15625 C 394.714844 330.53125 394.222656 330.871094 393.671875 331.171875 C 390.613281 332.902344 386.941406 333.765625 382.65625 333.765625 C 378.394531 333.765625 374.726562 332.902344 371.640625 331.171875 C 369.789062 330.015625 368.5 328.777344 367.769531 327.449219 C 367.292969 326.59375 367.054688 325.726562 367.054688 324.851562 C 367.054688 324.300781 367.105469 323.785156 367.207031 323.308594 Z M 367.316406 331.695312 C 367.847656 333.503906 369.285156 335.09375 371.640625 336.476562 C 374.726562 338.230469 378.394531 339.109375 382.65625 339.109375 C 386.941406 339.109375 390.613281 338.230469 393.671875 336.476562 C 394.222656 336.199219 394.714844 335.871094 395.136719 335.496094 C 396.640625 334.417969 397.570312 333.191406 397.921875 331.8125 C 398.121094 332.261719 398.222656 332.800781 398.222656 333.429688 C 398.222656 334.257812 398.007812 335.09375 397.582031 335.949219 C 397.105469 336.929688 396.292969 337.855469 395.136719 338.730469 C 394.714844 339.109375 394.222656 339.445312 393.671875 339.75 C 390.613281 341.503906 386.941406 342.382812 382.65625 342.382812 C 378.394531 342.382812 374.726562 341.503906 371.640625 339.75 C 369.714844 338.621094 368.398438 337.351562 367.695312 335.949219 C 367.269531 335.09375 367.054688 334.257812 367.054688 333.429688 C 367.054688 332.800781 367.144531 332.226562 367.316406 331.695312 Z M 367.582031 340.839844 C 368.234375 342.34375 369.585938 343.660156 371.640625 344.789062 C 374.726562 346.542969 378.394531 347.421875 382.65625 347.421875 C 386.941406 347.421875 390.613281 346.542969 393.671875 344.789062 C 394.222656 344.511719 394.714844 344.1875 395.136719 343.808594 C 396.339844 342.910156 397.179688 341.917969 397.65625 340.839844 C 398.03125 341.613281 398.222656 342.394531 398.222656 343.167969 C 398.222656 344.074219 398.007812 344.949219 397.582031 345.804688 C 397.105469 346.753906 396.292969 347.695312 395.136719 348.625 C 394.714844 348.902344 394.222656 349.1875 393.671875 349.492188 C 392.421875 350.21875 391.039062 350.832031 389.535156 351.332031 C 387.484375 351.859375 385.1875 352.125 382.65625 352.125 C 380.125 352.125 377.808594 351.859375 375.703125 351.332031 C 374.25 350.832031 372.894531 350.21875 371.640625 349.492188 C 369.660156 348.363281 368.34375 347.097656 367.695312 345.691406 C 367.269531 344.914062 367.054688 344.074219 367.054688 343.167969 C 367.054688 342.34375 367.230469 341.566406 367.582031 340.839844 Z M 367.316406 349.867188 C 367.746094 351.195312 368.609375 352.375 369.914062 353.402344 C 370.464844 353.800781 371.042969 354.191406 371.640625 354.570312 C 374.726562 356.324219 378.394531 357.203125 382.65625 357.203125 C 386.941406 357.203125 390.613281 356.324219 393.671875 354.570312 C 394.472656 354.089844 395.175781 353.578125 395.777344 353.027344 C 396.855469 352.125 397.570312 351.070312 397.921875 349.867188 C 398.121094 350.417969 398.222656 350.996094 398.222656 351.597656 C 398.222656 352.425781 398.007812 353.265625 397.582031 354.117188 C 396.929688 355.496094 395.628906 356.722656 393.671875 357.804688 C 390.613281 359.632812 386.941406 360.550781 382.65625 360.550781 C 378.394531 360.550781 374.726562 359.632812 371.640625 357.804688 C 369.964844 356.851562 368.757812 355.808594 368.035156 354.679688 C 367.90625 354.429688 367.796875 354.203125 367.695312 354.003906 C 367.269531 353.226562 367.054688 352.425781 367.054688 351.597656 C 367.054688 350.996094 367.144531 350.417969 367.316406 349.867188 Z M 367.769531 362.542969 C 367.292969 361.691406 367.054688 360.8125 367.054688 359.910156 C 367.054688 359.308594 367.144531 358.730469 367.316406 358.179688 C 367.917969 359.933594 369.363281 361.5 371.640625 362.882812 C 374.726562 364.636719 378.394531 365.515625 382.65625 365.515625 C 386.941406 365.515625 390.613281 364.636719 393.671875 362.882812 C 396.054688 361.5 397.46875 359.933594 397.921875 358.179688 C 398.042969 358.558594 398.109375 358.957031 398.109375 359.382812 C 398.960938 358.332031 400.078125 357.414062 401.453125 356.636719 C 401.582031 356.589844 401.667969 356.523438 401.714844 356.449219 C 404.675781 354.820312 408.269531 354.003906 412.507812 354.003906 C 416.816406 354.003906 420.511719 354.878906 423.597656 356.636719 C 426.605469 358.394531 428.109375 360.511719 428.109375 362.996094 C 428.109375 363.898438 427.871094 364.800781 427.394531 365.703125 C 426.742188 366.957031 425.515625 368.121094 423.707031 369.203125 L 423.597656 369.3125 C 420.84375 370.867188 417.53125 371.746094 413.671875 371.945312 C 413.296875 371.945312 412.910156 371.945312 412.507812 371.945312 C 408.269531 371.945312 404.625 371.070312 401.566406 369.3125 C 401.441406 369.238281 401.355469 369.175781 401.304688 369.125 C 399.902344 368.273438 398.8125 367.371094 398.03125 366.417969 C 397.910156 366.117188 397.757812 365.855469 397.582031 365.628906 C 397.28125 364.953125 397.070312 364.246094 396.941406 363.519531 C 396.21875 364.472656 395.125 365.375 393.671875 366.230469 C 390.613281 367.984375 386.941406 368.863281 382.65625 368.863281 C 378.394531 368.863281 374.726562 367.984375 371.640625 366.230469 C 369.789062 365.074219 368.5 363.847656 367.769531 362.542969 Z M 397.242188 378.152344 C 397.769531 379.855469 399.210938 381.375 401.566406 382.703125 C 404.625 384.4375 408.269531 385.300781 412.507812 385.300781 C 416.816406 385.300781 420.511719 384.4375 423.597656 382.703125 C 425.828125 381.375 427.246094 379.855469 427.847656 378.152344 C 428.019531 378.707031 428.109375 379.28125 428.109375 379.882812 C 428.109375 380.664062 427.933594 381.476562 427.582031 382.328125 C 426.929688 383.707031 425.601562 385 423.597656 386.203125 C 420.511719 387.960938 416.816406 388.835938 412.507812 388.835938 C 408.269531 388.835938 404.625 387.960938 401.566406 386.203125 C 400.664062 385.652344 399.851562 385.050781 399.121094 384.398438 C 399.171875 384.699219 399.199219 385 399.199219 385.300781 C 399.199219 386.328125 398.960938 387.269531 398.484375 388.121094 C 398.433594 388.222656 398.371094 388.308594 398.296875 388.386719 C 397.59375 389.539062 396.367188 390.617188 394.609375 391.621094 C 391.605469 393.375 387.933594 394.253906 383.597656 394.253906 C 379.3125 394.253906 375.664062 393.375 372.65625 391.621094 C 370.777344 390.542969 369.449219 389.335938 368.671875 388.007812 C 368.246094 387.179688 368.035156 386.277344 368.035156 385.300781 C 368.035156 383.746094 368.660156 382.328125 369.914062 381.050781 C 370.664062 380.273438 371.539062 379.585938 372.546875 378.980469 C 374.25 378.003906 376.152344 377.3125 378.257812 376.914062 C 379.9375 376.535156 381.71875 376.347656 383.597656 376.347656 C 385.152344 376.347656 386.65625 376.472656 388.109375 376.726562 C 389.308594 376.902344 390.453125 377.199219 391.53125 377.625 C 392.609375 377.976562 393.632812 378.429688 394.609375 378.980469 C 395.566406 379.535156 396.339844 380.109375 396.941406 380.710938 C 396.941406 380.460938 396.941406 380.183594 396.941406 379.882812 C 396.941406 379.230469 397.042969 378.65625 397.242188 378.152344 Z M 397.242188 369.953125 C 397.417969 370.730469 397.832031 371.507812 398.484375 372.285156 C 399.261719 373.0625 400.289062 373.851562 401.566406 374.65625 C 401.917969 374.832031 402.246094 375.003906 402.542969 375.183594 C 405.375 376.558594 408.699219 377.25 412.507812 377.25 C 416.816406 377.25 420.511719 376.386719 423.597656 374.65625 C 425.351562 373.628906 426.554688 372.511719 427.207031 371.308594 C 427.507812 370.828125 427.71875 370.378906 427.847656 369.953125 C 428.019531 370.480469 428.109375 371.042969 428.109375 371.644531 L 428.109375 371.757812 C 428.109375 372.488281 427.933594 373.238281 427.582031 374.015625 C 426.929688 375.46875 425.601562 376.796875 423.597656 378.003906 C 420.511719 379.734375 416.816406 380.597656 412.507812 380.597656 C 408.269531 380.597656 404.625 379.734375 401.566406 378.003906 C 400.765625 377.5 400.101562 377.050781 399.574219 376.648438 C 398.546875 375.796875 397.820312 374.921875 397.394531 374.015625 C 397.34375 373.765625 397.257812 373.488281 397.132812 373.1875 C 397.003906 372.636719 396.941406 372.121094 396.941406 371.644531 C 396.941406 371.042969 397.042969 370.480469 397.242188 369.953125 Z M 497.695312 383.871094 C 497.269531 383.09375 497.054688 382.242188 497.054688 381.3125 C 497.054688 381.089844 497.054688 380.886719 497.054688 380.710938 C 497.105469 380.335938 497.191406 379.996094 497.320312 379.695312 C 497.921875 381.449219 499.398438 382.992188 501.753906 384.320312 C 502.230469 384.625 502.707031 384.886719 503.183594 385.113281 C 505.914062 386.339844 509.085938 386.953125 512.695312 386.953125 C 513.949219 386.953125 515.148438 386.894531 516.304688 386.765625 C 519.136719 386.390625 521.605469 385.578125 523.710938 384.320312 C 525.339844 383.417969 526.542969 382.390625 527.316406 381.238281 C 527.621094 380.761719 527.859375 380.25 528.035156 379.695312 C 528.234375 380.25 528.332031 380.785156 528.332031 381.3125 C 528.332031 381.4375 528.332031 381.589844 528.332031 381.765625 L 527.695312 383.945312 C 526.96875 385.328125 525.640625 386.554688 523.710938 387.632812 C 522.507812 388.308594 521.214844 388.863281 519.835938 389.289062 C 517.730469 389.941406 515.351562 390.265625 512.695312 390.265625 C 508.410156 390.265625 504.761719 389.386719 501.753906 387.632812 C 501.503906 387.535156 501.265625 387.417969 501.039062 387.296875 C 500.789062 387.117188 500.550781 386.96875 500.328125 386.84375 C 499.097656 385.863281 498.21875 384.875 497.695312 383.871094 Z M 527.695312 375.445312 C 527.367188 376.097656 526.929688 376.710938 526.378906 377.289062 C 525.675781 377.992188 524.785156 378.644531 523.710938 379.242188 C 523.109375 379.621094 522.480469 379.960938 521.832031 380.261719 C 520.074219 380.960938 518.082031 381.4375 515.851562 381.6875 C 514.824219 381.816406 513.773438 381.875 512.695312 381.875 C 511.492188 381.875 510.3125 381.816406 509.160156 381.6875 C 506.402344 381.261719 503.9375 380.449219 501.753906 379.242188 C 499.824219 378.164062 498.46875 376.902344 497.695312 375.445312 C 497.269531 374.667969 497.054688 373.828125 497.054688 372.925781 C 497.054688 372.449219 497.121094 371.933594 497.242188 371.382812 C 497.84375 373.1875 499.347656 374.792969 501.753906 376.199219 C 504.761719 377.925781 508.410156 378.792969 512.695312 378.792969 C 513.246094 378.792969 513.722656 378.792969 514.125 378.792969 C 517.859375 378.539062 521.054688 377.675781 523.710938 376.199219 C 523.835938 376.121094 523.960938 376.046875 524.085938 375.972656 C 526.265625 374.617188 527.582031 373.113281 528.035156 371.457031 C 528.234375 371.957031 528.332031 372.449219 528.332031 372.925781 C 528.332031 373.828125 528.121094 374.667969 527.695312 375.445312 " fill-opacity="1" fill-rule="evenodd"/><path fill="#eee6bc" d="M 489.761719 357.277344 C 488.132812 358.003906 486.417969 358.367188 484.613281 358.367188 C 482.429688 358.367188 480.679688 357.917969 479.351562 357.015625 C 477.894531 356.285156 477.078125 355.285156 476.90625 354.003906 C 476.90625 352.875 477.71875 351.984375 479.351562 351.332031 C 479.671875 351.109375 480.027344 350.90625 480.402344 350.730469 C 481.503906 350.207031 482.808594 349.941406 484.3125 349.941406 C 486.492188 349.941406 488.308594 350.304688 489.761719 351.035156 C 491.015625 351.886719 491.640625 352.875 491.640625 354.003906 C 491.640625 354.984375 491.277344 355.847656 490.550781 356.601562 C 490.324219 356.828125 490.066406 357.050781 489.761719 357.277344 Z M 444.046875 311.007812 L 408.519531 331.171875 L 475.027344 369.3125 L 510.175781 348.886719 Z M 439.046875 334.78125 C 440.253906 333.453125 441.792969 332.25 443.671875 331.171875 C 444.148438 330.894531 444.648438 330.632812 445.175781 330.378906 C 447.707031 329.179688 450.503906 328.363281 453.558594 327.933594 C 455.363281 327.660156 457.242188 327.523438 459.199219 327.523438 C 464.109375 327.523438 468.460938 328.300781 472.242188 329.855469 C 473.195312 330.230469 474.121094 330.667969 475.027344 331.171875 C 476.476562 332 477.707031 332.902344 478.710938 333.878906 C 480.640625 335.8125 481.605469 337.980469 481.605469 340.386719 C 481.605469 341.714844 481.292969 342.980469 480.667969 344.1875 C 479.8125 345.742188 478.410156 347.167969 476.453125 348.472656 C 476.003906 348.75 475.527344 349.039062 475.027344 349.339844 C 472.792969 350.71875 470.289062 351.710938 467.507812 352.3125 C 464.976562 352.914062 462.207031 353.214844 459.199219 353.214844 C 453.183594 353.214844 448.007812 351.921875 443.671875 349.339844 C 439.335938 347.03125 437.070312 343.988281 436.871094 340.199219 C 436.992188 338.269531 437.722656 336.464844 439.046875 334.78125 Z M 429.3125 322.933594 C 429.789062 322.582031 430.3125 322.304688 430.890625 322.105469 C 431.84375 321.753906 432.933594 321.578125 434.160156 321.578125 C 436.339844 321.578125 438.160156 321.941406 439.613281 322.667969 C 440.867188 323.574219 441.492188 324.648438 441.492188 325.90625 C 441.492188 326.582031 441.253906 327.222656 440.777344 327.824219 C 440.476562 328.199219 440.089844 328.5625 439.613281 328.914062 C 437.980469 329.640625 436.253906 330.003906 434.425781 330.003906 C 432.269531 330.003906 430.5625 329.539062 429.3125 328.613281 C 427.808594 327.886719 426.957031 326.984375 426.753906 325.90625 C 426.753906 324.648438 427.605469 323.660156 429.3125 322.933594 Z M 477.167969 376.914062 L 398.03125 331.433594 C 398.160156 331.007812 398.222656 330.582031 398.222656 330.15625 C 398.222656 329.503906 398.097656 328.902344 397.84375 328.351562 L 428.972656 310.21875 L 441.945312 302.695312 L 447.921875 306.117188 L 453.558594 309.429688 L 472.242188 320.1875 L 474.652344 321.578125 L 476.191406 322.480469 L 478.710938 323.910156 L 496.867188 334.328125 L 501.53125 337.039062 L 520.589844 347.949219 L 524.085938 349.941406 L 514.234375 355.660156 C 513.761719 355.609375 513.246094 355.582031 512.695312 355.582031 C 509.0625 355.582031 505.890625 356.199219 503.183594 357.429688 C 502.660156 357.652344 502.15625 357.90625 501.679688 358.179688 C 500.148438 359.058594 499.011719 360.007812 498.257812 361.039062 C 497.457031 362.117188 497.054688 363.269531 497.054688 364.5 C 497.054688 364.800781 497.082031 365.140625 497.132812 365.515625 L 477.167969 376.914062 " fill-opacity="1" fill-rule="evenodd"/><path fill="#7dbf5c" d="M 489.761719 357.277344 C 490.066406 357.050781 490.324219 356.828125 490.550781 356.601562 C 491.277344 355.847656 491.640625 354.984375 491.640625 354.003906 C 491.640625 352.875 491.015625 351.886719 489.761719 351.035156 C 488.308594 350.304688 486.492188 349.941406 484.3125 349.941406 C 482.808594 349.941406 481.503906 350.207031 480.402344 350.730469 C 480.027344 350.90625 479.671875 351.109375 479.351562 351.332031 C 477.71875 351.984375 476.90625 352.875 476.90625 354.003906 C 477.078125 355.285156 477.894531 356.285156 479.351562 357.015625 C 480.679688 357.917969 482.429688 358.367188 484.613281 358.367188 C 486.417969 358.367188 488.132812 358.003906 489.761719 357.277344 Z M 444.046875 311.007812 L 510.175781 348.886719 L 475.027344 369.3125 L 408.519531 331.171875 Z M 439.046875 334.78125 C 437.722656 336.464844 436.992188 338.269531 436.871094 340.199219 C 437.070312 343.988281 439.335938 347.03125 443.671875 349.339844 C 448.007812 351.921875 453.183594 353.214844 459.199219 353.214844 C 462.207031 353.214844 464.976562 352.914062 467.507812 352.3125 C 470.289062 351.710938 472.792969 350.71875 475.027344 349.339844 C 475.527344 349.039062 476.003906 348.75 476.453125 348.472656 C 478.410156 347.167969 479.8125 345.742188 480.667969 344.1875 C 481.292969 342.980469 481.605469 341.714844 481.605469 340.386719 C 481.605469 337.980469 480.640625 335.8125 478.710938 333.878906 C 477.707031 332.902344 476.476562 332 475.027344 331.171875 C 474.121094 330.667969 473.195312 330.230469 472.242188 329.855469 C 468.460938 328.300781 464.109375 327.523438 459.199219 327.523438 C 457.242188 327.523438 455.363281 327.660156 453.558594 327.933594 C 450.503906 328.363281 447.707031 329.179688 445.175781 330.378906 C 444.648438 330.632812 444.148438 330.894531 443.671875 331.171875 C 441.792969 332.25 440.253906 333.453125 439.046875 334.78125 Z M 429.3125 322.933594 C 427.605469 323.660156 426.753906 324.648438 426.753906 325.90625 C 426.957031 326.984375 427.808594 327.886719 429.3125 328.613281 C 430.5625 329.539062 432.269531 330.003906 434.425781 330.003906 C 436.253906 330.003906 437.980469 329.640625 439.613281 328.914062 C 440.089844 328.5625 440.476562 328.199219 440.777344 327.824219 C 441.253906 327.222656 441.492188 326.582031 441.492188 325.90625 C 441.492188 324.648438 440.867188 323.574219 439.613281 322.667969 C 438.160156 321.941406 436.339844 321.578125 434.160156 321.578125 C 432.933594 321.578125 431.84375 321.753906 430.890625 322.105469 C 430.3125 322.304688 429.789062 322.582031 429.3125 322.933594 " fill-opacity="1" fill-rule="evenodd"/><path fill="#d68d00" d="M 397.921875 323.308594 C 397.519531 325.113281 396.101562 326.734375 393.671875 328.160156 C 390.613281 329.914062 386.941406 330.792969 382.65625 330.792969 C 378.394531 330.792969 374.726562 329.914062 371.640625 328.160156 C 369.234375 326.734375 367.757812 325.113281 367.207031 323.308594 C 367.105469 322.808594 367.054688 322.320312 367.054688 321.84375 C 367.054688 320.886719 367.292969 319.984375 367.769531 319.132812 C 368.5 320.460938 369.789062 321.667969 371.640625 322.746094 C 374.726562 324.550781 378.394531 325.453125 382.65625 325.453125 C 386.941406 325.453125 390.613281 324.550781 393.671875 322.746094 C 395.550781 321.71875 396.828125 320.539062 397.507812 319.210938 C 397.984375 320.011719 398.222656 320.886719 398.222656 321.84375 C 398.222656 322.394531 398.121094 322.882812 397.921875 323.308594 Z M 397.921875 331.8125 C 397.570312 333.191406 396.640625 334.417969 395.136719 335.496094 C 394.714844 335.871094 394.222656 336.199219 393.671875 336.476562 C 390.613281 338.230469 386.941406 339.109375 382.65625 339.109375 C 378.394531 339.109375 374.726562 338.230469 371.640625 336.476562 C 369.285156 335.09375 367.847656 333.503906 367.316406 331.695312 C 367.144531 331.222656 367.054688 330.707031 367.054688 330.15625 C 367.054688 329.203125 367.292969 328.300781 367.769531 327.449219 C 368.5 328.777344 369.789062 330.015625 371.640625 331.171875 C 374.726562 332.902344 378.394531 333.765625 382.65625 333.765625 C 386.941406 333.765625 390.613281 332.902344 393.671875 331.171875 C 394.222656 330.871094 394.714844 330.53125 395.136719 330.15625 C 395.261719 330.105469 395.351562 330.015625 395.402344 329.890625 C 395.699219 329.640625 395.976562 329.429688 396.230469 329.25 C 396.828125 328.699219 397.257812 328.125 397.507812 327.523438 C 397.605469 327.773438 397.722656 328.050781 397.84375 328.351562 C 398.097656 328.902344 398.222656 329.503906 398.222656 330.15625 C 398.222656 330.582031 398.160156 331.007812 398.03125 331.433594 C 398.03125 331.558594 397.996094 331.683594 397.921875 331.8125 Z M 397.65625 340.839844 C 397.179688 341.917969 396.339844 342.910156 395.136719 343.808594 C 394.714844 344.1875 394.222656 344.511719 393.671875 344.789062 C 390.613281 346.542969 386.941406 347.421875 382.65625 347.421875 C 378.394531 347.421875 374.726562 346.542969 371.640625 344.789062 C 369.585938 343.660156 368.234375 342.34375 367.582031 340.839844 C 367.230469 340.109375 367.054688 339.320312 367.054688 338.46875 C 367.054688 337.566406 367.269531 336.726562 367.695312 335.949219 C 368.398438 337.351562 369.714844 338.621094 371.640625 339.75 C 374.726562 341.503906 378.394531 342.382812 382.65625 342.382812 C 386.941406 342.382812 390.613281 341.503906 393.671875 339.75 C 394.222656 339.445312 394.714844 339.109375 395.136719 338.730469 C 396.292969 337.855469 397.105469 336.929688 397.582031 335.949219 C 398.007812 336.800781 398.222656 337.640625 398.222656 338.46875 C 398.222656 339.320312 398.03125 340.109375 397.65625 340.839844 Z M 397.921875 349.867188 C 397.570312 351.070312 396.855469 352.125 395.777344 353.027344 C 395.175781 353.578125 394.472656 354.089844 393.671875 354.570312 C 390.613281 356.324219 386.941406 357.203125 382.65625 357.203125 C 378.394531 357.203125 374.726562 356.324219 371.640625 354.570312 C 371.042969 354.191406 370.464844 353.800781 369.914062 353.402344 C 368.609375 352.375 367.746094 351.195312 367.316406 349.867188 C 367.144531 349.265625 367.054688 348.722656 367.054688 348.246094 C 367.054688 347.347656 367.269531 346.492188 367.695312 345.691406 C 368.34375 347.097656 369.660156 348.363281 371.640625 349.492188 C 372.894531 350.21875 374.25 350.832031 375.703125 351.332031 C 377.808594 351.859375 380.125 352.125 382.65625 352.125 C 385.1875 352.125 387.484375 351.859375 389.535156 351.332031 C 391.039062 350.832031 392.421875 350.21875 393.671875 349.492188 C 394.222656 349.1875 394.714844 348.902344 395.136719 348.625 C 396.292969 347.695312 397.105469 346.753906 397.582031 345.804688 C 398.007812 346.53125 398.222656 347.347656 398.222656 348.246094 C 398.222656 348.777344 398.121094 349.316406 397.921875 349.867188 Z M 367.769531 362.542969 C 368.5 363.847656 369.789062 365.074219 371.640625 366.230469 C 374.726562 367.984375 378.394531 368.863281 382.65625 368.863281 C 386.941406 368.863281 390.613281 367.984375 393.671875 366.230469 C 395.125 365.375 396.21875 364.472656 396.941406 363.519531 C 397.070312 364.246094 397.28125 364.953125 397.582031 365.628906 C 397.757812 365.855469 397.910156 366.117188 398.03125 366.417969 C 398.8125 367.371094 399.902344 368.273438 401.304688 369.125 C 401.355469 369.175781 401.441406 369.238281 401.566406 369.3125 C 404.625 371.070312 408.269531 371.945312 412.507812 371.945312 C 412.910156 371.945312 413.296875 371.945312 413.671875 371.945312 C 417.53125 371.746094 420.84375 370.867188 423.597656 369.3125 L 423.707031 369.203125 C 425.515625 368.121094 426.742188 366.957031 427.394531 365.703125 C 427.871094 366.480469 428.109375 367.34375 428.109375 368.300781 C 428.109375 368.902344 428.019531 369.453125 427.847656 369.953125 C 427.71875 370.378906 427.507812 370.828125 427.207031 371.308594 C 426.554688 372.511719 425.351562 373.628906 423.597656 374.65625 C 420.511719 376.386719 416.816406 377.25 412.507812 377.25 C 408.699219 377.25 405.375 376.558594 402.542969 375.183594 C 402.246094 375.003906 401.917969 374.832031 401.566406 374.65625 C 400.289062 373.851562 399.261719 373.0625 398.484375 372.285156 C 397.832031 371.507812 397.417969 370.730469 397.242188 369.953125 C 397.09375 369.578125 396.992188 369.214844 396.941406 368.863281 C 396.164062 369.816406 395.074219 370.71875 393.671875 371.570312 C 390.613281 373.328125 386.941406 374.203125 382.65625 374.203125 C 378.394531 374.203125 374.726562 373.328125 371.640625 371.570312 C 368.632812 369.816406 367.105469 367.707031 367.054688 365.25 C 367.054688 364.273438 367.292969 363.371094 367.769531 362.542969 Z M 367.316406 358.179688 C 367.144531 357.652344 367.054688 357.113281 367.054688 356.5625 C 367.054688 356.085938 367.105469 355.59375 367.207031 355.09375 C 367.332031 354.820312 367.492188 354.453125 367.695312 354.003906 C 367.796875 354.203125 367.90625 354.429688 368.035156 354.679688 C 368.757812 355.808594 369.964844 356.851562 371.640625 357.804688 C 374.726562 359.632812 378.394531 360.550781 382.65625 360.550781 C 386.941406 360.550781 390.613281 359.632812 393.671875 357.804688 C 395.628906 356.722656 396.929688 355.496094 397.582031 354.117188 C 398.007812 354.84375 398.222656 355.660156 398.222656 356.5625 C 398.222656 357.164062 398.121094 357.703125 397.921875 358.179688 C 397.46875 359.933594 396.054688 361.5 393.671875 362.882812 C 390.613281 364.636719 386.941406 365.515625 382.65625 365.515625 C 378.394531 365.515625 374.726562 364.636719 371.640625 362.882812 C 369.363281 361.5 367.917969 359.933594 367.316406 358.179688 Z M 368.671875 388.007812 C 369.449219 389.335938 370.777344 390.542969 372.65625 391.621094 C 375.664062 393.375 379.3125 394.253906 383.597656 394.253906 C 387.933594 394.253906 391.605469 393.375 394.609375 391.621094 C 396.367188 390.617188 397.59375 389.539062 398.296875 388.386719 C 398.371094 388.308594 398.433594 388.222656 398.484375 388.121094 C 398.960938 387.269531 399.199219 386.328125 399.199219 385.300781 C 399.199219 385 399.171875 384.699219 399.121094 384.398438 C 399.851562 385.050781 400.664062 385.652344 401.566406 386.203125 C 404.625 387.960938 408.269531 388.835938 412.507812 388.835938 C 416.816406 388.835938 420.511719 387.960938 423.597656 386.203125 C 425.601562 385 426.929688 383.707031 427.582031 382.328125 C 427.933594 383.109375 428.109375 383.894531 428.109375 384.699219 C 428.109375 387.15625 426.605469 389.261719 423.597656 391.019531 C 420.511719 392.75 416.816406 393.613281 412.507812 393.613281 C 408.269531 393.613281 404.625 392.75 401.566406 391.019531 C 400.542969 390.339844 399.636719 389.703125 398.859375 389.101562 C 399.085938 389.574219 399.199219 390.152344 399.199219 390.832031 C 399.199219 393.289062 397.667969 395.394531 394.609375 397.148438 C 391.605469 398.90625 387.933594 399.78125 383.597656 399.78125 C 379.3125 399.78125 375.664062 398.90625 372.65625 397.148438 C 369.625 395.394531 368.085938 393.289062 368.035156 390.832031 C 368.035156 389.851562 368.246094 388.910156 368.671875 388.007812 Z M 427.847656 378.152344 C 427.246094 379.855469 425.828125 381.375 423.597656 382.703125 C 420.511719 384.4375 416.816406 385.300781 412.507812 385.300781 C 408.269531 385.300781 404.625 384.4375 401.566406 382.703125 C 399.210938 381.375 397.769531 379.855469 397.242188 378.152344 C 397.042969 377.550781 396.941406 376.949219 396.941406 376.347656 C 396.941406 375.496094 397.09375 374.71875 397.394531 374.015625 C 397.820312 374.921875 398.546875 375.796875 399.574219 376.648438 C 400.101562 377.050781 400.765625 377.5 401.566406 378.003906 C 404.625 379.734375 408.269531 380.597656 412.507812 380.597656 C 416.816406 380.597656 420.511719 379.734375 423.597656 378.003906 C 425.601562 376.796875 426.929688 375.46875 427.582031 374.015625 C 427.933594 374.792969 428.109375 375.570312 428.109375 376.347656 C 428.109375 376.949219 428.019531 377.550781 427.847656 378.152344 Z M 497.429688 388.386719 C 497.179688 387.707031 497.054688 387.042969 497.054688 386.390625 C 497.054688 385.488281 497.269531 384.648438 497.695312 383.871094 C 498.21875 384.875 499.097656 385.863281 500.328125 386.84375 C 500.550781 386.96875 500.789062 387.117188 501.039062 387.296875 C 501.265625 387.417969 501.503906 387.535156 501.753906 387.632812 C 504.761719 389.386719 508.410156 390.265625 512.695312 390.265625 C 515.351562 390.265625 517.730469 389.941406 519.835938 389.289062 C 521.214844 388.863281 522.507812 388.308594 523.710938 387.632812 C 525.640625 386.554688 526.96875 385.328125 527.695312 383.945312 C 528.847656 386.953125 528.183594 389.464844 525.703125 391.46875 C 522.746094 393.75 519.421875 395.019531 515.738281 395.269531 C 510.625 395.96875 505.9375 395.179688 501.679688 392.898438 C 499.675781 391.769531 498.257812 390.265625 497.429688 388.386719 Z M 497.242188 371.382812 C 497.121094 370.90625 497.054688 370.390625 497.054688 369.84375 C 497.054688 368.9375 497.308594 368.035156 497.804688 367.132812 C 498.585938 368.511719 499.902344 369.753906 501.753906 370.855469 C 504.761719 372.585938 508.410156 373.449219 512.695312 373.449219 C 514.824219 373.449219 516.804688 373.238281 518.636719 372.8125 C 520.488281 372.386719 522.179688 371.734375 523.710938 370.855469 C 523.835938 370.78125 523.960938 370.71875 524.085938 370.667969 C 525.136719 370.066406 525.988281 369.402344 526.640625 368.675781 C 527.042969 368.222656 527.367188 367.746094 527.621094 367.246094 C 528.097656 368.074219 528.332031 368.9375 528.332031 369.84375 C 528.332031 370.316406 528.257812 370.792969 528.109375 371.269531 C 528.085938 371.347656 528.058594 371.410156 528.035156 371.457031 C 527.582031 373.113281 526.265625 374.617188 524.085938 375.972656 C 523.960938 376.046875 523.835938 376.121094 523.710938 376.199219 C 521.054688 377.675781 517.859375 378.539062 514.125 378.792969 C 513.722656 378.792969 513.246094 378.792969 512.695312 378.792969 C 508.410156 378.792969 504.761719 377.925781 501.753906 376.199219 C 499.347656 374.792969 497.84375 373.1875 497.242188 371.382812 Z M 497.695312 375.445312 C 498.46875 376.902344 499.824219 378.164062 501.753906 379.242188 C 503.9375 380.449219 506.402344 381.261719 509.160156 381.6875 C 510.3125 381.816406 511.492188 381.875 512.695312 381.875 C 513.773438 381.875 514.824219 381.816406 515.851562 381.6875 C 518.082031 381.4375 520.074219 380.960938 521.832031 380.261719 C 522.480469 379.960938 523.109375 379.621094 523.710938 379.242188 C 524.785156 378.644531 525.675781 377.992188 526.378906 377.289062 C 526.929688 376.710938 527.367188 376.097656 527.695312 375.445312 C 528.121094 376.296875 528.332031 377.175781 528.332031 378.078125 C 528.332031 378.179688 528.320312 378.289062 528.296875 378.417969 C 528.273438 378.84375 528.183594 379.269531 528.035156 379.695312 C 527.859375 380.25 527.621094 380.761719 527.316406 381.238281 C 526.542969 382.390625 525.339844 383.417969 523.710938 384.320312 C 521.605469 385.578125 519.136719 386.390625 516.304688 386.765625 C 515.148438 386.894531 513.949219 386.953125 512.695312 386.953125 C 509.085938 386.953125 505.914062 386.339844 503.183594 385.113281 C 502.707031 384.886719 502.230469 384.625 501.753906 384.320312 C 499.398438 382.992188 497.921875 381.449219 497.320312 379.695312 C 497.144531 379.09375 497.054688 378.554688 497.054688 378.078125 C 497.054688 377.125 497.269531 376.25 497.695312 375.445312 " fill-opacity="1" fill-rule="evenodd"/><path fill="#908a6d" d="M 398.03125 331.433594 L 477.167969 376.914062 L 477.167969 400.046875 L 428.109375 371.757812 L 428.109375 371.644531 C 428.109375 371.042969 428.019531 370.480469 427.847656 369.953125 C 428.019531 369.453125 428.109375 368.902344 428.109375 368.300781 C 428.109375 367.34375 427.871094 366.480469 427.394531 365.703125 C 427.871094 364.800781 428.109375 363.898438 428.109375 362.996094 C 428.109375 360.511719 426.605469 358.394531 423.597656 356.636719 C 420.511719 354.878906 416.816406 354.003906 412.507812 354.003906 C 408.269531 354.003906 404.675781 354.820312 401.714844 356.449219 L 397.582031 354.117188 C 398.007812 353.265625 398.222656 352.425781 398.222656 351.597656 C 398.222656 350.996094 398.121094 350.417969 397.921875 349.867188 C 398.121094 349.316406 398.222656 348.777344 398.222656 348.246094 C 398.222656 347.347656 398.007812 346.53125 397.582031 345.804688 C 398.007812 344.949219 398.222656 344.074219 398.222656 343.167969 C 398.222656 342.394531 398.03125 341.613281 397.65625 340.839844 C 398.03125 340.109375 398.222656 339.320312 398.222656 338.46875 C 398.222656 337.640625 398.007812 336.800781 397.582031 335.949219 C 398.007812 335.09375 398.222656 334.257812 398.222656 333.429688 C 398.222656 332.800781 398.121094 332.261719 397.921875 331.8125 C 397.996094 331.683594 398.03125 331.558594 398.03125 331.433594 " fill-opacity="1" fill-rule="evenodd"/><path fill="#003592" d="M 318.558594 161.03125 L 340.363281 177.886719 L 367.996094 164.945312 C 370.125 163.941406 372.292969 163.527344 374.5 163.707031 C 375.675781 163.777344 376.867188 164.039062 378.070312 164.492188 C 380.703125 165.445312 382.785156 167.027344 384.3125 169.234375 L 339.5 190.226562 L 295.511719 156.21875 C 297.371094 154.636719 299.601562 153.671875 302.207031 153.320312 C 305.816406 152.84375 309.074219 153.722656 311.980469 155.953125 L 317.660156 160.355469 L 318.558594 161.03125 " fill-opacity="1" fill-rule="evenodd"/><path fill="#ff65a7" d="M 547.769531 230.808594 L 539.722656 243.714844 L 468.222656 146.027344 L 480.511719 138.953125 L 547.769531 230.808594 " fill-opacity="1" fill-rule="evenodd"/><path fill="#ed428b" d="M 619.046875 202.785156 L 607.46875 196.390625 L 601.640625 193.121094 L 542.882812 287.574219 L 479.273438 200.679688 L 471.304688 189.808594 L 439.011719 241.757812 L 428.972656 248.078125 L 428.972656 251.238281 L 423.03125 247.851562 L 404.988281 258.570312 L 399.535156 255.449219 L 407.09375 243.488281 L 406.867188 243.375 L 468.222656 146.027344 L 539.722656 243.714844 L 547.769531 230.808594 L 578.972656 180.632812 L 558.484375 169.269531 L 619.046875 126.011719 L 619.046875 202.785156 " fill-opacity="1" fill-rule="evenodd"/><g clip-path="url(#82a830659c)"><path fill="#cb2069" d="M 607.46875 196.390625 L 554.875 280.992188 L 542.882812 287.574219 L 601.640625 193.121094 Z M 439.011719 241.757812 L 471.304688 189.808594 L 479.273438 200.679688 L 454.460938 240.554688 L 447.394531 236.453125 Z M 619.046875 202.785156 L 619.046875 126.011719 L 631.304688 118.941406 L 631.339844 195.714844 L 619.046875 202.785156 " fill-opacity="1" fill-rule="evenodd"/></g><path fill="#999999" d="M 394.007812 151.667969 L 368.9375 141.546875 L 359.160156 137.597656 C 353.699219 135.390625 351.339844 132.796875 352.09375 129.808594 L 353.144531 125.523438 C 353.648438 125.097656 354.175781 124.644531 354.722656 124.167969 C 356.304688 122.738281 357.632812 121.511719 358.710938 120.480469 L 355.929688 131.765625 L 398.972656 149.148438 C 397.644531 149.824219 395.992188 150.664062 394.007812 151.667969 Z M 359.953125 115.554688 C 358.671875 115.105469 357.207031 115.203125 355.550781 115.855469 L 362.65625 87.117188 C 363.410156 84.132812 366.503906 83.746094 371.945312 85.953125 L 420.363281 105.511719 C 425.828125 107.691406 428.183594 110.289062 427.433594 113.300781 L 416.90625 155.992188 C 416.15625 158.976562 413.046875 159.363281 407.582031 157.15625 L 399.011719 153.695312 C 399.789062 153.296875 400.476562 152.945312 401.078125 152.644531 C 401.40625 152.519531 401.679688 152.367188 401.902344 152.191406 C 402.582031 151.839844 403.195312 151.480469 403.75 151.105469 L 413.445312 155.011719 L 423.183594 115.703125 L 423.222656 115.703125 L 424.050781 112.246094 L 424.050781 112.207031 L 366.53125 88.960938 L 366.414062 89.429688 L 365.664062 92.457031 L 359.953125 115.554688 " fill-opacity="1" fill-rule="evenodd"/></svg>